<svg width="501" height="97" viewBox="0 0 501 97" fill="none" xmlns="http://www.w3.org/2000/svg">
<path d="M82.308 48.0485C85.7688 44.0524 88.1673 40.2476 89.4335 36.7313C90.8534 32.7905 90.7742 29.4325 89.1976 26.7501C88.6603 25.837 87.9527 25.0225 87.0913 24.3231V24.3127L87.0806 24.3067C86.8934 23.2247 86.5297 22.216 85.994 21.3014C84.4173 18.6189 81.4953 16.872 77.3086 16.1098C73.5739 15.4299 69.0189 15.5659 63.7638 16.5118C61.9695 11.5698 59.813 7.62751 57.3445 4.7911C54.5792 1.61098 51.5781 0 48.4232 0C47.3518 0 46.2804 0.195769 45.2318 0.576845L45.2212 0.572362L45.2105 0.576845C44.1604 0.195769 43.0875 0 42.0176 0C38.8627 0 35.8616 1.61098 33.0963 4.78961C30.6278 7.62601 28.4713 11.5683 26.677 16.5103C21.4204 15.5644 16.8654 15.4284 13.1322 16.1083C8.94551 16.8705 6.02349 18.6175 4.44682 21.2999C3.90807 22.216 3.54434 23.2307 3.35867 24.3157C2.49424 25.0165 1.78352 25.8325 1.24477 26.7501C-0.3319 29.4325 -0.411038 32.7905 1.00888 36.7313C2.27509 40.2476 4.67358 44.0524 8.13435 48.0485C4.67358 52.0446 2.27509 55.8509 1.00888 59.3672C-0.411038 63.308 -0.3319 66.6675 1.24477 69.3499C1.782 70.2615 2.48968 71.076 3.35106 71.7769V71.7888L3.36172 71.7948C3.54891 72.8768 3.91264 73.8855 4.44834 74.7986C6.02501 77.4811 8.94703 79.228 13.1337 79.9917C14.6952 80.2756 16.3997 80.4191 18.2381 80.4191C20.798 80.4191 23.6211 80.1396 26.6785 79.5897C28.4728 84.5317 30.6293 88.474 33.0978 91.3104C35.8646 94.489 38.8658 96.1 42.0191 96.1C43.0905 96.1 44.1619 95.9042 45.212 95.5232L45.2227 95.5276L45.2333 95.5232C46.2819 95.9042 47.3549 96.1 48.4247 96.1C51.5796 96.1 54.5808 94.489 57.346 91.3104C59.8145 88.4755 61.971 84.5317 63.7653 79.5897C66.8228 80.1396 69.6459 80.4191 72.2057 80.4191C74.0442 80.4191 75.7487 80.2771 77.3101 79.9917C81.4968 79.228 84.4189 77.4811 85.9955 74.8001C86.5343 73.8855 86.898 72.8723 87.0852 71.7858C87.9496 71.0835 88.6603 70.2675 89.1991 69.3529C90.7758 66.6704 90.8549 63.311 89.435 59.3702C88.1688 55.8538 85.7703 52.0476 82.3095 48.0515L82.308 48.0485ZM87.21 26.8218C87.4002 27.0654 87.5722 27.3194 87.7274 27.5825C90.3831 32.1016 87.767 39.3615 80.5517 47.5015C79.2871 48.9287 77.8869 50.3723 76.3909 51.792C75.8491 52.3061 75.2952 52.8187 74.726 53.3298C74.347 53.6705 73.962 54.0097 73.5724 54.3475C73.3776 54.5163 73.1813 54.6852 72.9819 54.8541C71.0019 56.5398 68.8819 58.1986 66.6463 59.8096L66.628 59.823C66.3571 60.0188 66.0832 60.2131 65.8077 60.4073C65.3755 60.7122 64.9372 61.0156 64.4974 61.3174C64.1169 61.5775 63.7349 61.8375 63.3483 62.0945C63.0166 62.3157 62.6818 62.5369 62.3454 62.7566C61.4612 63.3334 60.5633 63.9013 59.6563 64.4572C58.8634 64.9429 58.0568 65.4241 57.2486 65.8933C56.8651 66.116 56.4831 66.3372 56.0996 66.5539C54.8928 67.2383 53.6722 67.9018 52.4699 68.531C52.1549 68.6954 51.8399 68.8583 51.5233 69.0197C49.312 70.1494 47.0809 71.2 44.8772 72.152C44.4283 72.3462 43.9808 72.5345 43.5349 72.7198C43.4984 72.7348 43.4619 72.7497 43.4269 72.7647C42.9992 72.941 42.5731 73.1144 42.1485 73.2847C42.0937 73.3072 42.0389 73.3281 41.9841 73.3505C41.5702 73.5149 41.1562 73.6763 40.7423 73.8332C40.6783 73.8571 40.616 73.881 40.552 73.9049C40.1426 74.0603 39.7348 74.2113 39.3284 74.3592C39.2645 74.3831 39.2006 74.4055 39.1367 74.4295C38.7288 74.5774 38.3209 74.7224 37.9146 74.8628C37.8568 74.8823 37.7989 74.9032 37.7396 74.9226C37.3272 75.0646 36.9147 75.2036 36.5038 75.3381C36.4597 75.353 36.4155 75.3665 36.3714 75.3814C35.9468 75.5204 35.5222 75.6564 35.0991 75.7864C35.0824 75.7909 35.0656 75.7968 35.0504 75.8013C34.6304 75.9313 34.2134 76.0569 33.7979 76.1779C33.7736 76.1854 33.7507 76.1914 33.7264 76.1988C33.7142 76.157 33.7005 76.1152 33.6883 76.0748C33.6092 75.8163 33.5301 75.5548 33.4524 75.2917C33.4266 75.2036 33.4007 75.1169 33.3748 75.0287C33.285 74.7209 33.1968 74.41 33.11 74.0977C33.0994 74.0603 33.0902 74.023 33.0796 73.9856C33.002 73.7002 32.9243 73.4133 32.8498 73.1233C32.8269 73.0367 32.8041 72.9485 32.7813 72.8618C32.6976 72.5375 32.6154 72.2117 32.5363 71.8845C32.5393 71.8845 32.5439 71.8815 32.5484 71.8815C32.9411 71.7589 33.3368 71.6319 33.734 71.5019C33.7933 71.4825 33.8527 71.463 33.912 71.4436C34.2925 71.3181 34.676 71.1881 35.0611 71.0566C35.1387 71.0297 35.2163 71.0028 35.2939 70.9759C35.6774 70.8429 36.064 70.7069 36.4505 70.5664C36.516 70.5425 36.5799 70.5186 36.6453 70.4962C36.933 70.3915 37.2206 70.2854 37.5083 70.1778H37.5098L37.8705 70.0418C40.2979 69.1228 42.7664 68.0797 45.212 66.9409H45.2136L45.5788 66.7706C48.3121 65.4869 51.0576 64.0657 53.7376 62.5458C55.9063 61.3159 58.0324 60.0218 60.0793 58.6873V58.7067L61.5419 57.7204L61.8767 57.4947V57.4917C62.353 57.1689 62.8248 56.8446 63.292 56.5159C64.5065 55.6641 65.6905 54.7958 66.838 53.9201V53.9425L68.2823 52.7963C68.2823 52.7963 68.2853 52.7948 68.2869 52.7933L68.5836 52.5572C68.6963 52.466 68.8089 52.3763 68.92 52.2867C69.2852 51.9923 69.6459 51.6964 70.0036 51.399C71.0947 50.4919 72.1509 49.5743 73.1569 48.6552C73.1569 48.6552 73.1584 48.6552 73.1599 48.6537L73.8265 48.0455L73.8235 48.0425C73.8676 48.0007 73.9133 47.9588 73.9574 47.917C74.4581 47.4478 74.9497 46.9755 75.4276 46.5048C75.4413 46.4913 75.455 46.4779 75.4686 46.4644C76.2113 45.7307 76.9236 44.9969 77.6023 44.2661L78.1563 43.6684L78.1532 43.6654C78.1791 43.637 78.205 43.6086 78.2309 43.5817C78.2324 43.5802 78.2339 43.5772 78.2354 43.5757C78.2598 43.5488 78.2841 43.5204 78.3085 43.4935C78.3115 43.4905 78.3146 43.4875 78.3176 43.4831C78.4957 43.2858 78.6722 43.0885 78.8442 42.8913C78.8579 42.8748 78.8716 42.8599 78.8853 42.8435C81.5912 39.7545 83.6792 36.7477 85.1007 33.8904C86.3714 31.3364 87.0745 28.9678 87.2054 26.8188L87.21 26.8218ZM54.9095 69.1273C54.9399 69.1108 54.9704 69.0944 54.9993 69.0779C55.2154 68.9599 55.433 68.8403 55.6491 68.7223C55.7587 68.6625 55.8683 68.6027 55.9763 68.5415C56.3005 68.3621 56.6231 68.1813 56.9458 67.9975C57.2669 67.8152 57.5865 67.6314 57.9076 67.446C58.0096 67.3863 58.1115 67.3265 58.2135 67.2667C58.4311 67.1397 58.6488 67.0127 58.8664 66.8841C58.8968 66.8662 58.9288 66.8483 58.9592 66.8288C58.9501 66.8812 58.9394 66.935 58.9303 66.9873C58.8831 67.2473 58.8344 67.5073 58.7857 67.7644C58.7766 67.8092 58.769 67.8525 58.7599 67.8974C58.7446 67.9751 58.7294 68.0513 58.7142 68.129C58.667 68.3681 58.6199 68.6057 58.5727 68.8418C58.5514 68.9494 58.5285 69.057 58.5072 69.1631C58.457 69.4082 58.4037 69.6518 58.352 69.8954C58.3444 69.9283 58.3383 69.9626 58.3307 69.9955C58.3155 70.0628 58.3018 70.13 58.2866 70.1973C58.282 70.2167 58.2774 70.2361 58.2729 70.2555C57.1695 69.9103 56.0448 69.5322 54.9065 69.1258L54.9095 69.1273ZM57.897 71.886C57.8833 71.9427 57.8696 71.9995 57.8543 72.0563C57.8133 72.2267 57.7706 72.3956 57.728 72.5644C57.7082 72.6436 57.6869 72.7228 57.6672 72.802C57.6261 72.9589 57.5865 73.1159 57.5454 73.2728C57.5241 73.355 57.5028 73.4357 57.48 73.5179C57.4389 73.6748 57.3963 73.8302 57.3536 73.9856C57.3323 74.0618 57.3126 74.138 57.2912 74.2143C57.2441 74.3816 57.1984 74.5475 57.1497 74.7149C57.1315 74.7762 57.1147 74.8389 57.0964 74.9002C56.9701 75.3396 56.8408 75.7729 56.7068 76.2018C53.6585 75.3142 50.5143 74.2053 47.3259 72.8962C47.3457 72.8872 47.367 72.8768 47.3868 72.8678C47.8175 72.672 48.2482 72.4733 48.6804 72.2715C48.7854 72.2222 48.8904 72.1729 48.9939 72.1236C49.3896 71.9368 49.7853 71.7485 50.181 71.5557C50.2327 71.5303 50.283 71.5064 50.3347 71.4825C50.7669 71.2717 51.1991 71.0566 51.6314 70.8399C51.7394 70.7861 51.8459 70.7308 51.954 70.677C52.2782 70.5126 52.6008 70.3482 52.9234 70.1808C54.6066 70.81 56.2746 71.3838 57.8954 71.8889L57.897 71.886ZM52.925 25.9192C52.6008 25.7503 52.2751 25.5844 51.9494 25.4185C51.8444 25.3662 51.7409 25.3124 51.6359 25.2601C51.2007 25.0405 50.7654 24.8238 50.3286 24.6116C50.2845 24.5906 50.2404 24.5697 50.1962 24.5473C49.9999 24.4517 49.802 24.356 49.6057 24.2619C49.3987 24.1632 49.1918 24.0646 48.9848 23.9675C48.8859 23.9211 48.7854 23.8733 48.6865 23.827C48.2512 23.6223 47.816 23.422 47.3807 23.2247C47.3625 23.2173 47.3457 23.2083 47.3275 23.2008C50.5097 21.8932 53.6539 20.7859 56.7084 19.8952C56.7723 20.1014 56.8347 20.3076 56.8971 20.5169C56.9047 20.5423 56.9123 20.5677 56.9199 20.5916C56.9793 20.7888 57.0371 20.9876 57.0949 21.1864C57.1178 21.2656 57.1406 21.3448 57.1619 21.424C57.2045 21.5704 57.2456 21.7184 57.2867 21.8663C57.3126 21.9575 57.3369 22.0501 57.3628 22.1413C57.4008 22.2803 57.4389 22.4192 57.4754 22.5582C57.5013 22.6539 57.5256 22.748 57.5515 22.8437C57.588 22.9841 57.6245 23.1246 57.6611 23.2651C57.6854 23.3592 57.7098 23.4519 57.7326 23.546C57.7706 23.6985 57.8087 23.8524 57.8467 24.0063C57.8635 24.0736 57.8802 24.1408 57.897 24.2081C56.2594 24.7177 54.5914 25.2915 52.925 25.9162V25.9192ZM58.2759 25.8415C58.2805 25.8609 58.285 25.8803 58.2896 25.8997C58.3018 25.955 58.314 26.0103 58.3261 26.0641C58.3383 26.1179 58.349 26.1717 58.3611 26.2255C58.4114 26.4572 58.4616 26.6903 58.5103 26.9249C58.5331 27.037 58.5575 27.1491 58.5803 27.2627C58.6275 27.4958 58.6746 27.7304 58.7203 27.965C58.737 28.0487 58.7538 28.1324 58.769 28.2161C58.7751 28.249 58.7812 28.2818 58.7888 28.3162C58.8405 28.5867 58.8907 28.8572 58.941 29.1292C58.9501 29.1755 58.9577 29.2218 58.9668 29.2682C58.9364 29.2502 58.9075 29.2338 58.8771 29.2159C58.6594 29.0873 58.4418 28.9603 58.2242 28.8333C58.1207 28.772 58.0157 28.7107 57.9122 28.651C57.6382 28.4926 57.3658 28.3356 57.0919 28.1802C57.0462 28.1533 56.999 28.1264 56.9534 28.101C56.6307 27.9187 56.3081 27.7379 55.9839 27.5571C55.8698 27.4943 55.7557 27.4315 55.64 27.3688C55.4315 27.2537 55.223 27.1386 55.0145 27.025C54.981 27.0071 54.9475 26.9877 54.9141 26.9697C56.0433 26.5663 57.1695 26.1897 58.2805 25.8415H58.2759ZM52.4714 27.5675C52.8504 27.7663 53.2309 27.968 53.6128 28.1728C54.4438 28.6181 55.2763 29.0769 56.1011 29.5446C56.3857 29.706 56.6703 29.8689 56.9549 30.0333C57.0523 30.0886 57.1482 30.1469 57.2456 30.2022C57.4343 30.3113 57.6215 30.4219 57.8102 30.5324C57.9213 30.5982 58.0324 30.664 58.1435 30.7297C58.3155 30.8328 58.489 30.9344 58.6609 31.0376C58.7781 31.1078 58.8953 31.178 59.0125 31.2498C59.1175 31.314 59.224 31.3783 59.329 31.441C59.3382 31.4993 59.3473 31.5591 59.3564 31.6174C59.4158 31.9985 59.4721 32.3825 59.5269 32.7696C59.536 32.8294 59.5436 32.8891 59.5528 32.9489C59.6136 33.3853 59.6715 33.8246 59.7278 34.2655C59.74 34.3671 59.7521 34.4687 59.7658 34.5704C59.813 34.9544 59.8587 35.3415 59.9013 35.7285C59.9089 35.8003 59.918 35.8735 59.9256 35.9452C59.9743 36.3906 60.02 36.8374 60.0641 37.2857C60.0672 37.3231 60.0717 37.3604 60.0748 37.3978C60.0306 37.3679 59.985 37.3395 59.9393 37.3111C59.4934 37.0212 59.0445 36.7328 58.5909 36.4473C58.5209 36.404 58.4509 36.3592 58.3809 36.3158C57.9624 36.0528 57.5408 35.7928 57.1178 35.5343C57.0386 35.4849 56.9595 35.4371 56.8788 35.3878C56.4192 35.1083 55.9566 34.8319 55.4909 34.5584C55.3904 34.5001 55.2915 34.4418 55.191 34.3821C55.0449 34.2969 54.9004 34.2102 54.7527 34.125C54.4195 33.9307 54.0831 33.7395 53.7483 33.5482C53.4135 33.3584 53.0771 33.1701 52.7408 32.9833C52.1229 32.6411 51.5035 32.3048 50.8811 31.9746C49.8051 31.4022 48.723 30.8463 47.641 30.3128C47.6242 30.3038 47.6075 30.2963 47.5892 30.2874C47.0718 30.0318 46.5543 29.7822 46.0369 29.5372C45.8878 29.4669 45.7386 29.3952 45.5895 29.325L45.2242 29.1531H45.2227C44.7037 28.9125 44.1833 28.6734 43.6628 28.4403C43.3401 28.2968 43.019 28.1548 42.6964 28.0143C41.0862 27.3135 39.4745 26.6574 37.8811 26.0537C37.8766 26.0537 37.8735 26.0507 37.8689 26.0492L37.5189 25.9162H37.5174C37.2267 25.8086 36.936 25.701 36.6453 25.5964C36.589 25.5755 36.5327 25.5545 36.4764 25.5351C36.0838 25.3931 35.6911 25.2542 35.3 25.1182C35.2315 25.0943 35.163 25.0703 35.0945 25.0479C34.7034 24.9134 34.3123 24.7819 33.9242 24.6534C33.8694 24.6355 33.8146 24.6175 33.7599 24.5996C33.6046 24.5488 33.4479 24.4965 33.2926 24.4472C33.0476 24.368 32.8026 24.2918 32.5591 24.2155C32.5545 24.2155 32.55 24.2125 32.5469 24.2111C32.6276 23.8778 32.7113 23.5475 32.7965 23.2203C32.8178 23.1396 32.8376 23.0604 32.8589 22.9797C32.938 22.6763 33.0187 22.3759 33.0994 22.077C33.107 22.0516 33.1131 22.0262 33.1207 21.9993C33.2089 21.6795 33.2987 21.3642 33.39 21.0489C33.4129 20.9712 33.4357 20.892 33.4585 20.8142C33.5392 20.5378 33.6229 20.2643 33.7066 19.9923C33.7172 19.9609 33.7264 19.9281 33.7355 19.8952C33.7538 19.9012 33.772 19.9056 33.7903 19.9116C34.2149 20.0357 34.6425 20.1642 35.0702 20.2972C35.0809 20.3002 35.0915 20.3032 35.1022 20.3061C35.5268 20.4377 35.9529 20.5736 36.3821 20.7141C36.4232 20.7276 36.4658 20.741 36.5069 20.7545C36.9178 20.889 37.3302 21.0294 37.7442 21.1714C37.802 21.1908 37.8598 21.2103 37.9161 21.2312C38.3225 21.3717 38.7303 21.5166 39.1382 21.6646C39.2021 21.687 39.266 21.7109 39.33 21.7333C39.7378 21.8813 40.1457 22.0337 40.5551 22.1891C40.6175 22.213 40.6799 22.2369 40.7438 22.2608C41.1577 22.4192 41.5717 22.5806 41.9872 22.745C42.042 22.766 42.0952 22.7884 42.15 22.8108C42.5761 22.9811 43.0038 23.1545 43.433 23.3323C43.468 23.3473 43.5014 23.3607 43.5364 23.3757C43.9854 23.5625 44.4344 23.7523 44.8848 23.9465C47.3975 25.0285 49.9512 26.2465 52.476 27.566L52.4714 27.5675ZM33.3626 26.2285C33.3916 26.2375 33.4205 26.2479 33.4494 26.2569C33.8253 26.3809 34.2042 26.5095 34.5832 26.641C34.6532 26.6649 34.7232 26.6888 34.7932 26.7142C35.0382 26.7994 35.2833 26.8876 35.5283 26.9742C34.848 27.3434 34.1662 27.7199 33.4905 28.1025C32.8102 28.4881 32.139 28.8781 31.4785 29.2697C31.5242 29.0171 31.5683 28.7645 31.617 28.5135C31.6307 28.4447 31.6429 28.376 31.6566 28.3058C31.7312 27.9172 31.8073 27.5317 31.8849 27.1491C31.8925 27.1147 31.8986 27.0818 31.9062 27.0475C31.9823 26.6813 32.0599 26.3182 32.139 25.958C32.1482 25.9192 32.1558 25.8818 32.1649 25.843C32.1923 25.8519 32.2197 25.8609 32.2471 25.8684C32.6184 25.9849 32.9898 26.1045 33.3642 26.227L33.3626 26.2285ZM34.3397 29.5446C35.4294 28.9274 36.5327 28.3237 37.6254 27.7483C37.7305 27.7887 37.8355 27.829 37.9405 27.8694C38.079 27.9232 38.219 27.977 38.3575 28.0323C38.5279 28.0995 38.6984 28.1668 38.8703 28.2355C39.0073 28.2908 39.1443 28.3446 39.2828 28.3999C39.4563 28.4701 39.6313 28.5419 39.8048 28.6121C39.9402 28.6674 40.0742 28.7227 40.2096 28.778C40.3877 28.8512 40.5657 28.9259 40.7438 29.0022C40.8747 29.0575 41.0071 29.1127 41.138 29.168C41.3206 29.2457 41.5032 29.325 41.6858 29.4042C41.8137 29.4594 41.94 29.5132 42.0678 29.5685C42.2581 29.6507 42.4468 29.7359 42.637 29.8196C42.7572 29.8734 42.8775 29.9257 42.9977 29.9795C43.0829 30.0169 43.1682 30.0572 43.2534 30.0946C41.0512 31.1691 38.8521 32.3272 36.6941 33.5512C34.5345 34.7751 32.4145 36.0663 30.3676 37.4008C30.3767 37.3126 30.3843 37.2229 30.3919 37.1348C30.4056 36.9883 30.4224 36.8434 30.4361 36.6984C30.4543 36.5131 30.4741 36.3263 30.4939 36.141C30.5106 35.9886 30.5274 35.8376 30.5441 35.6867C30.5639 35.5089 30.5837 35.331 30.605 35.1532C30.6232 34.9993 30.6415 34.8453 30.6613 34.6914C30.6826 34.5166 30.7039 34.3417 30.7267 34.1669C30.7465 34.0159 30.7663 33.8635 30.7861 33.7126C30.8089 33.5362 30.8333 33.3599 30.8561 33.185C30.8759 33.0371 30.8972 32.8906 30.9185 32.7427C30.9444 32.5634 30.9687 32.3855 30.9961 32.2077C31.0174 32.0672 31.0387 31.9267 31.06 31.7863C31.0768 31.6712 31.095 31.5576 31.1133 31.444C32.1543 30.8089 33.2378 30.1723 34.3397 29.5476V29.5446ZM37.5433 34.9933C40.0665 33.5631 42.6461 32.2211 45.2181 31.0017C45.3323 31.0555 45.4464 31.1108 45.5621 31.1646C45.7143 31.2378 45.8665 31.311 46.0202 31.3843C46.1997 31.4709 46.3793 31.5591 46.5604 31.6473C46.7096 31.7205 46.8587 31.7937 47.0079 31.867C47.192 31.9581 47.3762 32.0508 47.5603 32.1419C47.7049 32.2152 47.851 32.2869 47.9956 32.3601C48.1843 32.4558 48.3715 32.5529 48.5602 32.6485C48.7017 32.7203 48.8417 32.7935 48.9833 32.8652C49.1766 32.9654 49.3683 33.067 49.5616 33.1686C49.697 33.2403 49.8325 33.3106 49.9679 33.3823C50.1688 33.4884 50.3682 33.596 50.5691 33.7051C50.6954 33.7738 50.8232 33.8411 50.9495 33.9098C51.1717 34.0309 51.3939 34.1534 51.6161 34.2745C51.7196 34.3313 51.8231 34.388 51.9266 34.4448C52.2523 34.6257 52.5764 34.8065 52.8991 34.9903C53.2232 35.1741 53.5474 35.3594 53.87 35.5477C53.9659 35.603 54.0603 35.6598 54.1546 35.7151C54.3814 35.8466 54.6082 35.9796 54.8319 36.1126C54.9506 36.1828 55.0693 36.2546 55.1895 36.3263C55.3889 36.4459 55.5883 36.5639 55.7876 36.685C55.9185 36.7642 56.0494 36.8449 56.1818 36.9256C56.3659 37.0376 56.5501 37.1497 56.7342 37.2633C56.8743 37.35 57.0127 37.4366 57.1528 37.5233C57.3263 37.6309 57.4997 37.7385 57.6717 37.8476C57.8163 37.9388 57.9609 38.0314 58.1055 38.1226C58.2698 38.2272 58.4342 38.3318 58.5985 38.4379C58.7477 38.5335 58.8953 38.6307 59.0445 38.7263C59.2012 38.828 59.358 38.9296 59.5147 39.0327C59.6669 39.1328 59.8176 39.2329 59.9682 39.3331C60.0656 39.3973 60.163 39.4631 60.2604 39.5273C60.2696 39.6424 60.2772 39.7575 60.2863 39.8711C60.2985 40.0489 60.3122 40.2282 60.3244 40.4076C60.3365 40.5884 60.3487 40.7707 60.3594 40.953C60.37 41.1294 60.3822 41.3072 60.3913 41.485C60.402 41.6703 60.4111 41.8571 60.4218 42.0439C60.4309 42.2188 60.44 42.3936 60.4492 42.5685C60.4583 42.7598 60.4659 42.9525 60.475 43.1438C60.4826 43.3142 60.4903 43.4846 60.4963 43.6564C60.5039 43.8567 60.51 44.0584 60.5176 44.2602C60.5237 44.4231 60.5283 44.5859 60.5344 44.7488C60.5405 44.9625 60.545 45.1762 60.5496 45.3899C60.5526 45.5424 60.5572 45.6933 60.5603 45.8457C60.5648 46.0878 60.5679 46.3314 60.5709 46.575C60.5724 46.699 60.5755 46.8216 60.5755 46.9456C60.5785 47.3133 60.5816 47.6809 60.5816 48.05C60.5816 48.4191 60.58 48.7868 60.5755 49.1544C60.5755 49.2784 60.5724 49.4024 60.5709 49.5265C60.5679 49.7686 60.5648 50.0122 60.5603 50.2543C60.5572 50.4067 60.5526 50.5591 60.5496 50.7116C60.545 50.9253 60.5405 51.139 60.5344 51.3527C60.5298 51.517 60.5237 51.6799 60.5176 51.8428C60.5116 52.0431 60.5039 52.2448 60.4963 52.4451C60.4903 52.6169 60.4826 52.7873 60.475 52.9577C60.4674 53.149 60.4583 53.3417 60.4492 53.533C60.4416 53.7079 60.4309 53.8827 60.4218 54.0576C60.4126 54.2444 60.402 54.4312 60.3913 54.6165C60.3807 54.7928 60.37 54.9692 60.3594 55.1455C60.3472 55.3278 60.3365 55.5116 60.3244 55.6939C60.3122 55.8718 60.3 56.0496 60.2863 56.226C60.2787 56.341 60.2696 56.4576 60.2604 56.5727C60.157 56.6414 60.0519 56.7116 59.9485 56.7804C59.8069 56.8745 59.6669 56.9672 59.5254 57.0613C59.361 57.1689 59.1966 57.2765 59.0323 57.3826C58.8907 57.4753 58.7492 57.5665 58.6077 57.6576C58.4403 57.7652 58.2713 57.8728 58.1024 57.9804C57.9609 58.0701 57.8193 58.1612 57.6778 58.2494C57.5058 58.3585 57.3323 58.4661 57.1604 58.5737C57.0203 58.6604 56.8803 58.7485 56.7388 58.8352C56.5607 58.9443 56.3827 59.0534 56.2031 59.1625C56.0661 59.2462 55.9292 59.3299 55.7907 59.4136C55.6035 59.5271 55.4132 59.6392 55.2245 59.7528C55.0952 59.8305 54.9658 59.9082 54.8349 59.9844C54.6219 60.11 54.4088 60.234 54.1957 60.3595C54.0877 60.4223 53.9811 60.4865 53.8731 60.5478C53.5505 60.7346 53.2278 60.9199 52.9037 61.1037C52.5795 61.2876 52.2553 61.4699 51.9296 61.6492C51.8307 61.7045 51.7318 61.7583 51.6314 61.8121C51.4046 61.9361 51.1778 62.0617 50.9511 62.1842C50.8293 62.25 50.7076 62.3157 50.5843 62.3815C50.3788 62.492 50.1749 62.6026 49.9695 62.7117C49.8355 62.7835 49.7016 62.8522 49.5677 62.9239C49.3744 63.0256 49.1811 63.1272 48.9878 63.2273C48.8448 63.302 48.7017 63.3753 48.5587 63.4485C48.373 63.5441 48.1889 63.6383 48.0032 63.7324C47.854 63.8086 47.7049 63.8834 47.5542 63.9581C47.4462 64.0119 47.3381 64.0657 47.2301 64.1195C47.1585 64.1553 47.087 64.1912 47.017 64.2256C46.8648 64.3018 46.7111 64.375 46.5589 64.4512C46.3824 64.5379 46.2043 64.6246 46.0278 64.7098C45.8741 64.7845 45.7219 64.8562 45.5682 64.9294C45.454 64.9847 45.3399 65.0385 45.2242 65.0923C42.6522 63.8729 40.0711 62.5309 37.5493 61.1007C35.023 59.6691 32.5515 58.1448 30.1941 56.5697C30.1849 56.4412 30.1743 56.3126 30.1652 56.1856C30.153 56.0272 30.1423 55.8673 30.1317 55.7074C30.118 55.5056 30.1058 55.3039 30.0936 55.1022C30.0845 54.9437 30.0739 54.7853 30.0647 54.6269C30.0525 54.4222 30.0419 54.2175 30.0312 54.0127C30.0236 53.8558 30.0145 53.6974 30.0069 53.5405C29.9962 53.3328 29.9886 53.1235 29.9795 52.9143C29.9734 52.7589 29.9658 52.6035 29.9597 52.4481C29.9521 52.2329 29.9445 52.0192 29.9369 51.804C29.9323 51.653 29.9262 51.5036 29.9217 51.3527C29.9156 51.1285 29.911 50.9028 29.9049 50.6787C29.9019 50.5367 29.8973 50.3947 29.8943 50.2528C29.8897 50.0047 29.8867 49.7581 29.8836 49.51C29.8836 49.3905 29.879 49.2709 29.879 49.1499C29.876 48.7823 29.873 48.4146 29.873 48.0455C29.873 47.6764 29.8745 47.3088 29.879 46.9411C29.879 46.8216 29.8821 46.702 29.8836 46.5825C29.8867 46.3344 29.8897 46.0863 29.8943 45.8383C29.8973 45.6978 29.9004 45.5558 29.9034 45.4153C29.908 45.1897 29.9141 44.9625 29.9201 44.7369C29.9247 44.5889 29.9293 44.441 29.9354 44.293C29.943 44.0749 29.9491 43.8567 29.9582 43.64C29.9643 43.4875 29.9704 43.3366 29.978 43.1842C29.9871 42.972 29.9962 42.7583 30.0069 42.5461C30.0145 42.3936 30.0221 42.2412 30.0312 42.0873C30.0419 41.8766 30.0525 41.6659 30.0647 41.4566C30.0739 41.3042 30.083 41.1518 30.0921 40.9993C30.1058 40.7901 30.118 40.5824 30.1317 40.3747C30.1423 40.2222 30.153 40.0713 30.1636 39.9189C30.1728 39.7859 30.1834 39.6529 30.1941 39.5199C32.553 37.9433 35.0245 36.4204 37.5493 34.9888L37.5433 34.9933ZM36.6956 62.5488C38.8536 63.7728 41.0527 64.9309 43.2549 66.0054C43.1697 66.0443 43.0829 66.0831 42.9977 66.122C42.882 66.1728 42.7679 66.2236 42.6522 66.2744C42.4574 66.3611 42.2626 66.4478 42.0694 66.5315C41.943 66.5868 41.8182 66.6406 41.6919 66.6944C41.5078 66.7736 41.3236 66.8528 41.1395 66.932C41.0071 66.9873 40.8762 67.0425 40.7438 67.0978C40.5657 67.1726 40.3892 67.2473 40.2111 67.3205C40.0757 67.3773 39.9387 67.4326 39.8033 67.4879C39.6298 67.5581 39.4578 67.6299 39.2843 67.6986C39.1458 67.7539 39.0073 67.8092 38.8688 67.8645C38.6999 67.9317 38.5294 67.999 38.3605 68.0662C38.219 68.1215 38.0774 68.1768 37.9374 68.2306C37.8339 68.271 37.7305 68.3098 37.627 68.3502C36.5358 67.7763 35.4324 67.1726 34.3412 66.5539C33.2394 65.9292 32.1558 65.2926 31.1148 64.6575C31.0981 64.5499 31.0813 64.4408 31.0646 64.3317C31.0418 64.1822 31.0189 64.0343 30.9976 63.8834C30.9718 63.7115 30.9474 63.5396 30.9231 63.3678C30.9018 63.2153 30.8789 63.0614 30.8591 62.909C30.8363 62.7386 30.8135 62.5668 30.7907 62.3949C30.7709 62.2395 30.7496 62.0856 30.7298 61.9301C30.7085 61.7583 30.6872 61.5849 30.6659 61.4131C30.6476 61.2577 30.6278 61.1022 30.6096 60.9453C30.5882 60.7705 30.57 60.5941 30.5502 60.4178C30.5335 60.2639 30.5152 60.11 30.4985 59.956C30.4787 59.7722 30.4604 59.5884 30.4421 59.4046C30.4269 59.2581 30.4117 59.1102 30.3965 58.9637C30.3874 58.8756 30.3797 58.7859 30.3721 58.6977C32.4176 60.0307 34.5391 61.3219 36.6986 62.5473L36.6956 62.5488ZM33.492 67.999C34.1677 68.3815 34.8495 68.7581 35.5283 69.1273C35.2802 69.2154 35.0337 69.3051 34.7871 69.3903C34.7141 69.4157 34.6425 69.4396 34.5695 69.465C34.1936 69.595 33.8177 69.722 33.4448 69.8446C33.4129 69.855 33.3794 69.8655 33.3474 69.876C32.9852 69.9955 32.6261 70.1106 32.2699 70.2227C32.2349 70.2331 32.1999 70.2451 32.1649 70.2555C32.1558 70.2167 32.1482 70.1793 32.139 70.1405C32.0599 69.7833 31.9838 69.4232 31.9077 69.06C31.9001 69.0227 31.8925 68.9853 31.8834 68.9464C31.8058 68.5654 31.7297 68.1828 31.6566 67.7972C31.6429 67.7255 31.6292 67.6553 31.6155 67.5835C31.5683 67.334 31.5242 67.0814 31.4785 66.8303C32.139 67.2219 32.8117 67.6119 33.492 67.9975V67.999ZM68.6719 46.9531C68.6719 46.835 68.6689 46.7155 68.6673 46.5974C68.6643 46.3479 68.6613 46.0983 68.6567 45.8502C68.6567 45.8173 68.6567 45.7845 68.6567 45.7531C69.5774 46.5137 70.4738 47.2804 71.3352 48.05C71.3185 48.0649 71.3032 48.0784 71.2865 48.0933C71.2454 48.1307 71.2043 48.1666 71.1617 48.2039C71.1221 48.2383 71.0826 48.2742 71.043 48.3085C70.8619 48.4699 70.6793 48.6298 70.4936 48.7897C70.4053 48.866 70.3171 48.9422 70.2288 49.0184C70.0492 49.1738 69.8681 49.3277 69.687 49.4817C69.6185 49.5399 69.55 49.5982 69.4816 49.655C69.4542 49.6774 69.4268 49.7013 69.3994 49.7237C69.1909 49.8986 68.9824 50.0734 68.7724 50.2483C68.7328 50.2812 68.6932 50.314 68.6536 50.3469C68.6536 50.314 68.6536 50.2827 68.6536 50.2498C68.6582 50.0017 68.6613 49.7536 68.6643 49.5041C68.6643 49.3845 68.6673 49.2665 68.6689 49.1469C68.6719 48.7808 68.6734 48.4146 68.6734 48.0485C68.6734 47.6824 68.6719 47.3162 68.6689 46.9501L68.6719 46.9531ZM68.5897 43.5399C68.576 43.1812 68.5608 42.8225 68.5425 42.4639C68.5365 42.3473 68.5319 42.2292 68.5258 42.1127C68.5015 41.6345 68.4741 41.1577 68.4436 40.6825C68.4406 40.6302 68.436 40.5779 68.433 40.5256C68.4041 40.0877 68.3736 39.6529 68.3401 39.218C68.331 39.1074 68.3234 38.9968 68.3143 38.8862C68.2762 38.4155 68.2366 37.9462 68.1925 37.4785C68.191 37.4591 68.1895 37.4381 68.1879 37.4187C70.9319 39.472 73.4826 41.5926 75.7943 43.7431C75.6452 43.9 75.496 44.0554 75.3439 44.2123C75.3225 44.2333 75.3028 44.2542 75.2815 44.2766C75.1384 44.423 74.9953 44.5695 74.8492 44.7175C74.7929 44.7742 74.7366 44.831 74.6803 44.8863C74.5692 44.9984 74.4566 45.1105 74.344 45.2226C74.2785 45.2868 74.2146 45.3511 74.1492 45.4153C74.0426 45.5214 73.9346 45.6261 73.8265 45.7322C73.7596 45.7979 73.6911 45.8637 73.6241 45.9294C73.5145 46.0355 73.4034 46.1416 73.2923 46.2477C73.2269 46.3105 73.1599 46.3733 73.093 46.4375C72.9712 46.5526 72.8495 46.6662 72.7277 46.7812C72.6806 46.8261 72.6319 46.8709 72.5847 46.9157C71.3185 45.7815 69.9792 44.6502 68.5928 43.5413L68.5897 43.5399ZM85.5009 25.2736C85.507 25.3453 85.5116 25.4185 85.5161 25.4903C85.5207 25.5695 85.5268 25.6487 85.5298 25.7279C85.5329 25.8011 85.5329 25.8773 85.5344 25.9521C85.5344 26.0328 85.5374 26.112 85.5359 26.1927C85.5359 26.2689 85.5329 26.3451 85.5298 26.4213C85.5268 26.502 85.5253 26.5842 85.5207 26.6649C85.5161 26.7426 85.51 26.8218 85.5055 26.901C85.4994 26.9832 85.4933 27.0654 85.4857 27.1476C85.4781 27.2283 85.4689 27.309 85.4583 27.3897C85.4492 27.4734 85.4385 27.5556 85.4263 27.6392C85.4157 27.7214 85.402 27.8036 85.3883 27.8858C85.3746 27.9695 85.3609 28.0547 85.3457 28.1384C85.3305 28.2221 85.3137 28.3058 85.297 28.3909C85.2802 28.4761 85.2635 28.5613 85.2437 28.6465C85.2255 28.7317 85.2057 28.8169 85.1844 28.9035C85.1646 28.9902 85.1433 29.0769 85.1204 29.1636C85.0976 29.2502 85.0748 29.3369 85.0504 29.4251C85.0261 29.5132 85.0017 29.5999 84.9759 29.6881C84.95 29.7763 84.9226 29.8644 84.8952 29.9541C84.8678 30.0423 84.8404 30.1319 84.81 30.2201C84.7811 30.3098 84.7506 30.3994 84.7187 30.4906C84.6882 30.5803 84.6563 30.6699 84.6243 30.7596C84.5908 30.8508 84.5573 30.9419 84.5223 31.0346C84.4873 31.1257 84.4523 31.2169 84.4173 31.308C84.3808 31.4007 84.3443 31.4934 84.3062 31.586C84.2682 31.6772 84.2301 31.7698 84.1906 31.8625C84.151 31.9566 84.1099 32.0493 84.0688 32.1434C84.046 32.1957 84.0216 32.2495 83.9973 32.3018C83.979 32.3422 83.9608 32.3825 83.9425 32.4229C83.8999 32.517 83.8557 32.6127 83.8101 32.7083C83.766 32.8025 83.7188 32.8981 83.6731 32.9923C83.6259 33.0879 83.5788 33.1835 83.5316 33.2792C83.4829 33.3748 83.4342 33.4705 83.384 33.5676C83.3337 33.6632 83.2835 33.7604 83.2318 33.8575C83.18 33.9547 83.1268 34.0533 83.072 34.1504C83.0187 34.2476 82.9655 34.3432 82.9122 34.4403C82.8559 34.539 82.7996 34.6391 82.7417 34.7392C82.6854 34.8364 82.6291 34.9335 82.5728 35.0306C82.5135 35.1308 82.4526 35.2324 82.3917 35.3325C82.3323 35.4296 82.273 35.5283 82.2121 35.6254C82.1497 35.727 82.0843 35.8302 82.0188 35.9318C81.9564 36.0304 81.8956 36.1275 81.8316 36.2262C81.7647 36.3293 81.6962 36.4339 81.6262 36.5385C81.5607 36.6371 81.4968 36.7343 81.4314 36.8329C81.3599 36.939 81.2868 37.0451 81.2138 37.1512C81.1468 37.2484 81.0798 37.3455 81.0114 37.4441C80.9353 37.5517 80.8576 37.6608 80.78 37.7684C80.71 37.8655 80.6415 37.9627 80.5715 38.0598C80.4909 38.1704 80.4087 38.281 80.3265 38.3916C80.255 38.4887 80.185 38.5844 80.1119 38.6815C80.0267 38.7951 79.9384 38.9086 79.8517 39.0222C79.7786 39.1179 79.7071 39.212 79.6325 39.3077C79.5427 39.4242 79.4499 39.5408 79.3571 39.6574C79.2825 39.7515 79.2094 39.8442 79.1333 39.9383C79.0375 40.0579 78.9385 40.1774 78.8396 40.297C78.765 40.3881 78.6905 40.4808 78.6144 40.5719C78.5109 40.6975 78.4044 40.823 78.2978 40.947C78.2248 41.0337 78.1517 41.1219 78.0772 41.2086C77.9615 41.3431 77.8443 41.479 77.7256 41.6135C77.6571 41.6927 77.5902 41.7705 77.5202 41.8497C77.3801 42.0081 77.2371 42.168 77.094 42.3264C77.0438 42.3817 76.9951 42.4385 76.9449 42.4938C76.9403 42.4997 76.9342 42.5042 76.9297 42.5102C74.2268 39.9981 71.2089 37.5293 67.9429 35.1592C67.8957 34.7512 67.8486 34.3432 67.7968 33.9397C67.774 33.7619 67.7496 33.587 67.7253 33.4092C67.6796 33.0625 67.634 32.7158 67.5838 32.3721C67.5533 32.1614 67.5214 31.9536 67.4894 31.7459C67.4437 31.4381 67.3966 31.1302 67.3479 30.8239C67.3129 30.6027 67.2748 30.3845 67.2383 30.1648C67.1896 29.8734 67.1409 29.5835 67.0907 29.2951C67.0511 29.0709 67.01 28.8482 66.9689 28.6256C66.9172 28.3446 66.8654 28.0637 66.8106 27.7857C66.768 27.5615 66.7224 27.3404 66.6782 27.1177C66.6234 26.8427 66.5671 26.5692 66.5093 26.2973C66.4621 26.0761 66.415 25.8564 66.3663 25.6367C66.3069 25.3677 66.246 25.0987 66.1851 24.8312C66.1349 24.6145 66.0847 24.3994 66.0345 24.1842C66.0071 24.0706 65.9812 23.954 65.9538 23.8419C74.7686 22.0621 81.6612 22.5448 85.4857 25.2123C85.4872 25.2317 85.4903 25.2497 85.4918 25.2691L85.5009 25.2736ZM84.5269 22.1353C84.6821 22.3998 84.8191 22.6763 84.9378 22.9617C80.5685 20.8202 73.8204 20.5527 65.549 22.2295C65.5353 22.1772 65.5216 22.1263 65.5064 22.0755C65.4638 21.9171 65.4212 21.7572 65.377 21.6003C65.3527 21.5136 65.3283 21.427 65.304 21.3403C65.2629 21.1923 65.2218 21.0459 65.1792 20.8994C65.1548 20.8128 65.129 20.7261 65.1046 20.6394C65.0605 20.487 65.0163 20.336 64.9707 20.1836C64.9479 20.1074 64.925 20.0312 64.9037 19.9564C64.8398 19.7457 64.7759 19.5365 64.712 19.3288C64.7074 19.3153 64.7028 19.3004 64.6998 19.2869C64.6313 19.0673 64.5613 18.8491 64.4913 18.6324C64.4685 18.5607 64.4456 18.4904 64.4213 18.4202C64.3878 18.3156 64.3528 18.211 64.3193 18.1079C74.6103 16.3011 81.9473 17.7552 84.5254 22.1383L84.5269 22.1353ZM48.4232 1.66628C53.7361 1.66628 58.8329 7.5214 62.4033 17.7313C63.0227 19.4992 63.5949 21.4105 64.1063 23.41C64.3498 24.3695 64.5796 25.3468 64.7941 26.3406C65.4364 29.325 65.9432 32.4632 66.3054 35.7076C66.5687 38.0553 66.7559 40.4778 66.867 42.9256C66.8822 43.2753 66.8974 43.625 66.9096 43.9762C66.9567 45.3122 66.9811 46.6826 66.9811 48.05C66.9811 48.3758 66.9796 48.7031 66.9765 49.0288C66.9765 49.1409 66.9735 49.2515 66.972 49.3636C66.9689 49.5773 66.9674 49.791 66.9628 50.0047C66.9613 50.1377 66.9583 50.2692 66.9552 50.4022C66.9507 50.5935 66.9476 50.7863 66.943 50.9776C66.94 51.1165 66.9354 51.254 66.9309 51.3915C66.9278 51.5096 66.9233 51.6261 66.9202 51.7427C66.8685 51.7831 66.8167 51.8234 66.765 51.8638C66.4682 52.0969 66.1684 52.3285 65.8655 52.5602C65.8092 52.6035 65.7545 52.6468 65.6981 52.6887C65.3481 52.9547 64.995 53.2207 64.6374 53.4852C64.5491 53.551 64.4593 53.6167 64.3695 53.6825C64.0621 53.9081 63.7532 54.1338 63.4427 54.3579C63.3757 54.4058 63.3088 54.4551 63.2418 54.5029C62.8781 54.7644 62.5098 55.023 62.1415 55.2815C62.108 55.3054 62.0745 55.3278 62.0411 55.3517C62.0441 55.2979 62.0471 55.2426 62.0502 55.1888C62.0821 54.6673 62.1126 54.1427 62.1369 53.6167C62.1415 53.536 62.1445 53.4538 62.1476 53.3716C62.1704 52.8829 62.1887 52.3943 62.2054 51.9026C62.2085 51.8129 62.2115 51.7218 62.2145 51.6321C62.2313 51.1016 62.2435 50.5681 62.2526 50.0346C62.2541 49.9195 62.2556 49.8059 62.2572 49.6909C62.2648 49.1439 62.2693 48.5955 62.2693 48.047C62.2693 47.2834 62.2617 46.5212 62.2465 45.7591C62.213 44.0659 62.143 42.3832 62.0365 40.7229L62.0517 40.7333L61.9147 38.9968C61.9147 38.9879 61.9147 38.9804 61.9132 38.9714L61.8828 38.5993H61.8813C61.8341 38.0329 61.7839 37.4695 61.7291 36.9091C61.5845 35.4506 61.4125 34.0085 61.2116 32.5917L61.2314 32.6037L60.9438 30.8029C60.9438 30.8029 60.9407 30.788 60.9407 30.7805L60.8844 30.4263H60.8829C60.8159 30.0199 60.749 29.6149 60.6774 29.2129C60.3974 27.6318 60.0809 26.0821 59.7308 24.5862L59.5269 23.7134H59.5223C59.0886 21.947 58.6062 20.2359 58.0811 18.6145L57.8315 17.8433H57.8269C57.8193 17.8239 57.8133 17.8045 57.8056 17.7836C57.7752 17.6939 57.7448 17.6057 57.7143 17.5176C57.6504 17.3337 57.588 17.1499 57.5241 16.9691C57.4876 16.866 57.4495 16.7629 57.413 16.6598C57.3536 16.4939 57.2928 16.3295 57.2334 16.1651C57.1938 16.0605 57.1558 15.9559 57.1162 15.8513C57.0554 15.6914 56.9945 15.5315 56.9336 15.3731C56.894 15.2715 56.8545 15.1698 56.8149 15.0682C56.751 14.9053 56.6855 14.7439 56.6201 14.5825C56.5836 14.4914 56.5455 14.3987 56.509 14.3076C56.4329 14.1222 56.3553 13.9384 56.2777 13.7561C56.2503 13.6933 56.2244 13.6291 56.1985 13.5663C56.0935 13.3227 55.987 13.0806 55.8805 12.8415C55.8592 12.7937 55.8363 12.7459 55.815 12.6981C55.7298 12.5098 55.643 12.323 55.5563 12.1377C55.5183 12.057 55.4802 11.9778 55.4422 11.8986C55.3706 11.7476 55.2976 11.5967 55.2245 11.4487C55.1819 11.3621 55.1393 11.2769 55.0967 11.1917C55.0267 11.0512 54.9567 10.9122 54.8851 10.7747C54.841 10.6896 54.7969 10.6044 54.7527 10.5192C54.6812 10.3817 54.6082 10.2457 54.5351 10.1112C54.4925 10.032 54.4499 9.95132 54.4058 9.87212C54.3266 9.72716 54.2475 9.58519 54.1668 9.44472C54.1303 9.37896 54.0922 9.31171 54.0557 9.24745C53.9477 9.05916 53.8381 8.87236 53.7285 8.68854C53.7194 8.6736 53.7103 8.65716 53.7011 8.64072C53.5809 8.44047 53.4591 8.24321 53.3374 8.04893C53.3039 7.99663 53.2704 7.94582 53.2385 7.89351C53.1502 7.75453 53.0604 7.61705 52.9706 7.48105C52.9265 7.4153 52.8823 7.34954 52.8382 7.28528C52.7575 7.16573 52.6769 7.04767 52.5962 6.93111C52.5491 6.86236 52.5019 6.79512 52.4547 6.72936C52.3756 6.61728 52.2949 6.5052 52.2158 6.39611C52.1686 6.33035 52.1199 6.26609 52.0727 6.20183C51.989 6.08975 51.9068 5.98066 51.8231 5.87157C51.7775 5.81328 51.7333 5.755 51.6877 5.69672C51.5933 5.57567 51.4974 5.45612 51.4015 5.33955C51.3681 5.29771 51.3346 5.25587 51.2996 5.21402C51.1687 5.05561 51.0363 4.90019 50.9039 4.74776C50.8902 4.73282 50.8765 4.71788 50.8628 4.70144C50.7441 4.56694 50.6254 4.43543 50.5067 4.30691C50.4641 4.26058 50.4215 4.21725 50.3788 4.17241C50.2875 4.07528 50.1962 3.97963 50.1049 3.88698C50.0547 3.83617 50.006 3.78685 49.9558 3.73754C49.8705 3.65236 49.7838 3.56717 49.697 3.48498C49.6453 3.43567 49.592 3.38486 49.5403 3.33703C49.4535 3.25634 49.3683 3.17713 49.2816 3.10092C49.2298 3.05459 49.1781 3.00826 49.1263 2.96343C49.035 2.88273 48.9422 2.80502 48.8493 2.72881C48.8022 2.68995 48.7565 2.6496 48.7093 2.61224C48.5952 2.51959 48.4795 2.42992 48.3654 2.34026C48.341 2.32083 48.3152 2.3014 48.2908 2.28198C48.1508 2.17587 48.0093 2.07276 47.8677 1.97413C47.8312 1.94872 47.7932 1.92332 47.7551 1.89791C47.6684 1.83963 47.5831 1.77985 47.4964 1.72306C47.8069 1.68271 48.1188 1.66329 48.4293 1.66329L48.4232 1.66628ZM43.1408 3.63442C43.2138 3.57913 43.2869 3.52533 43.3599 3.47303C43.4208 3.42969 43.4801 3.38635 43.541 3.34451C43.6141 3.2937 43.6886 3.24289 43.7617 3.19506C43.8226 3.15471 43.8819 3.11586 43.9428 3.07701C44.0174 3.02918 44.0919 2.98435 44.1665 2.93952C44.2274 2.90365 44.2867 2.86629 44.3476 2.83192C44.4237 2.78858 44.4998 2.74674 44.5759 2.7049C44.6353 2.67202 44.6961 2.63914 44.7555 2.60925C44.8331 2.5689 44.9107 2.53154 44.9898 2.49418C45.0492 2.46579 45.107 2.43739 45.1664 2.409C45.1846 2.40153 45.2029 2.39406 45.2197 2.38509C45.2364 2.39256 45.2531 2.40003 45.2699 2.40751C45.3368 2.43739 45.4038 2.47177 45.4708 2.50315C45.5423 2.53752 45.6153 2.57339 45.6869 2.60925C45.7538 2.64362 45.8193 2.68098 45.8862 2.71685C45.9578 2.75571 46.0293 2.79456 46.1008 2.8364C46.1663 2.87376 46.2332 2.91411 46.2987 2.95446C46.3702 2.9978 46.4417 3.04114 46.5117 3.08597C46.5772 3.12782 46.6426 3.17115 46.7081 3.21449C46.7781 3.26231 46.8496 3.30864 46.9196 3.35796C46.985 3.40279 47.049 3.45061 47.1144 3.49843C47.1844 3.54924 47.2544 3.60155 47.3244 3.65385C47.3883 3.70317 47.4538 3.75398 47.5177 3.80479C47.5877 3.86008 47.6562 3.91537 47.7262 3.97216C47.7901 4.02447 47.854 4.07976 47.918 4.13356C47.9864 4.19184 48.0564 4.25162 48.1249 4.31289C48.1888 4.36968 48.2512 4.42646 48.3152 4.48475C48.3837 4.54751 48.4521 4.61177 48.5206 4.67603C48.583 4.73581 48.6454 4.79708 48.7093 4.85835C48.7778 4.9256 48.8448 4.99285 48.9117 5.06159C48.9741 5.12436 49.0365 5.19011 49.0989 5.25437C49.1659 5.32461 49.2329 5.39634 49.2998 5.46957C49.3607 5.53682 49.4231 5.60406 49.484 5.67281C49.5509 5.74753 49.6164 5.82225 49.6833 5.89847C49.7442 5.9687 49.8051 6.04044 49.866 6.11217C49.9314 6.18988 49.9969 6.26908 50.0638 6.34978C50.1247 6.42301 50.184 6.49773 50.2449 6.57245C50.3104 6.65464 50.3758 6.73683 50.4397 6.82052C50.4991 6.89674 50.5584 6.97445 50.6178 7.05365C50.6817 7.13883 50.7471 7.227 50.8111 7.31368C50.8704 7.39438 50.9282 7.47358 50.9876 7.55577C51.0515 7.64544 51.1154 7.7351 51.1778 7.82776C51.2357 7.91145 51.2935 7.99513 51.3513 8.08031C51.4137 8.17297 51.4776 8.26861 51.54 8.36276C51.5979 8.44944 51.6542 8.53611 51.7105 8.62428C51.7729 8.72142 51.8353 8.82005 51.8977 8.91868C51.954 9.00835 52.0103 9.09801 52.0666 9.18917C52.1275 9.2893 52.1899 9.39092 52.2508 9.49403C52.3071 9.58669 52.3619 9.67934 52.4166 9.77498C52.4775 9.87959 52.5384 9.9842 52.5978 10.0903C52.6525 10.1859 52.7073 10.2816 52.7621 10.3787C52.823 10.4863 52.8823 10.5969 52.9417 10.7075C52.995 10.8061 53.0482 10.9033 53.1015 11.0034C53.1609 11.1155 53.2202 11.2291 53.2796 11.3426C53.3328 11.4442 53.3846 11.5444 53.4378 11.6475C53.4972 11.7626 53.555 11.8806 53.6128 11.9972C53.6646 12.1018 53.7163 12.2049 53.7681 12.3095C53.8259 12.4291 53.8837 12.5516 53.9416 12.6727C53.9918 12.7788 54.042 12.8849 54.0922 12.991C54.1501 13.115 54.2064 13.242 54.2642 13.3676C54.3129 13.4767 54.3631 13.5828 54.4118 13.6933C54.4681 13.8219 54.5245 13.9534 54.5808 14.0834C54.6279 14.194 54.6766 14.3031 54.7238 14.4137C54.7801 14.5467 54.8364 14.6827 54.8912 14.8171C54.9369 14.9292 54.9841 15.0398 55.0297 15.1534C55.086 15.2924 55.1423 15.4343 55.1971 15.5763C55.2413 15.6884 55.2854 15.799 55.3295 15.9111C55.3858 16.0575 55.4422 16.207 55.4985 16.3564C55.5396 16.467 55.5822 16.5761 55.6233 16.6882C55.6811 16.8451 55.7389 17.005 55.7968 17.1649C55.8348 17.271 55.8744 17.3756 55.9109 17.4817C55.9748 17.664 56.0387 17.8478 56.1027 18.0331C56.1331 18.1198 56.1635 18.2065 56.1924 18.2932C56.194 18.2991 56.197 18.3066 56.1985 18.3126C52.6312 19.3527 48.9452 20.6857 45.2242 22.2788C44.8848 22.1338 44.5455 21.9904 44.2076 21.8499C44.168 21.8334 44.1285 21.817 44.0889 21.8006C43.6582 21.6227 43.229 21.4479 42.7999 21.276C42.7405 21.2521 42.6811 21.2282 42.6218 21.2058C42.2033 21.0399 41.7863 20.877 41.3708 20.7186C41.3038 20.6932 41.2354 20.6663 41.1684 20.6409C40.756 20.484 40.3435 20.3315 39.9326 20.1806C39.8657 20.1567 39.7987 20.1313 39.7317 20.1074C39.3178 19.9579 38.9069 19.8115 38.4944 19.6695C38.4351 19.6486 38.3773 19.6292 38.3179 19.6083C37.8979 19.4633 37.4778 19.3213 37.0593 19.1838C37.0197 19.1704 36.9802 19.1584 36.9406 19.145C36.5038 19.003 36.0701 18.8625 35.6363 18.7295C35.6318 18.7295 35.6272 18.7265 35.6242 18.725C35.1935 18.592 34.7643 18.4635 34.3366 18.338C34.3077 18.329 34.2788 18.3201 34.2499 18.3111C34.2514 18.3066 34.2529 18.3021 34.2545 18.2976C34.2803 18.2199 34.3077 18.1422 34.3351 18.0645C34.4006 17.8747 34.4645 17.6849 34.5315 17.4981C34.568 17.3935 34.606 17.2904 34.6441 17.1858C34.7004 17.0289 34.7567 16.8705 34.8145 16.7151C34.8556 16.603 34.8982 16.4939 34.9393 16.3833C34.9941 16.2383 35.0489 16.0934 35.1037 15.9514C35.1478 15.8363 35.1935 15.7243 35.2376 15.6107C35.2909 15.4747 35.3457 15.3387 35.3989 15.2042C35.4446 15.0891 35.4918 14.9771 35.5389 14.8635C35.5922 14.7335 35.647 14.6034 35.7003 14.4749C35.7474 14.3614 35.7961 14.2508 35.8448 14.1387C35.8996 14.0132 35.9529 13.8876 36.0077 13.7636C36.0564 13.653 36.1066 13.5424 36.1553 13.4318C36.2101 13.3108 36.2649 13.1897 36.3197 13.0702C36.3699 12.9611 36.4201 12.8535 36.4719 12.7459C36.5266 12.6278 36.583 12.5113 36.6393 12.3962C36.691 12.2901 36.7427 12.184 36.7945 12.0794C36.8508 11.9658 36.9071 11.8522 36.9634 11.7401C37.0152 11.637 37.0684 11.5339 37.1202 11.4323C37.178 11.3217 37.2343 11.2111 37.2922 11.102C37.3454 11.0019 37.3987 10.9018 37.4519 10.8031C37.5098 10.6955 37.5691 10.5894 37.627 10.4833C37.6802 10.3862 37.7335 10.2891 37.7883 10.1934C37.8476 10.0888 37.907 9.9857 37.9679 9.88258C38.0227 9.78993 38.0759 9.69578 38.1307 9.60462C38.1916 9.5015 38.254 9.40138 38.3149 9.29976C38.3681 9.21159 38.4229 9.12192 38.4762 9.03375C38.5401 8.93213 38.6025 8.8335 38.6664 8.73337C38.7197 8.64969 38.7729 8.566 38.8262 8.48231C38.8932 8.38069 38.9601 8.28057 39.0271 8.18044C39.0788 8.10423 39.1291 8.02652 39.1808 7.9503C39.2554 7.84121 39.33 7.7366 39.4061 7.6305C39.4517 7.56624 39.4958 7.50197 39.5415 7.43921C39.6572 7.27931 39.7743 7.12239 39.89 6.96847C39.9189 6.93111 39.9478 6.89524 39.9768 6.85788C40.0742 6.73086 40.1731 6.60383 40.272 6.48129C40.3192 6.42301 40.3664 6.36771 40.4135 6.31092C40.4912 6.21678 40.5672 6.12263 40.6449 6.03147C40.6966 5.9702 40.7499 5.91042 40.8031 5.85064C40.8762 5.76696 40.9492 5.68327 41.0223 5.60257C41.0771 5.5413 41.1334 5.48302 41.1882 5.42324C41.2597 5.34553 41.3312 5.26932 41.4028 5.19459C41.4591 5.13631 41.5169 5.07952 41.5732 5.02124C41.6447 4.94951 41.7163 4.87778 41.7878 4.80754C41.8456 4.75075 41.9035 4.69695 41.9628 4.64166C42.0343 4.57441 42.1044 4.50716 42.1759 4.4429C42.2352 4.3891 42.2946 4.3368 42.3524 4.28449C42.4239 4.22173 42.4955 4.15896 42.567 4.09769C42.6264 4.04688 42.6857 3.99757 42.7451 3.94975C42.8166 3.89146 42.8896 3.83318 42.9612 3.77639C43.0205 3.73007 43.0814 3.68374 43.1408 3.63741V3.63442ZM5.91392 22.1338C7.76605 18.9821 12.0791 17.3457 18.1818 17.3457C20.5666 17.3457 23.2269 17.5968 26.12 18.1034C26.1063 18.1437 26.0941 18.1856 26.0804 18.2259C25.9663 18.5726 25.8521 18.9223 25.7426 19.2765C25.741 19.2825 25.7395 19.2884 25.7365 19.2944C25.6239 19.6531 25.5158 20.0177 25.4077 20.3839C25.388 20.4526 25.3667 20.5198 25.3469 20.5886C25.2434 20.9443 25.1429 21.3014 25.044 21.6616C25.0258 21.7303 25.006 21.8006 24.9877 21.8693C24.9557 21.9889 24.9223 22.1069 24.8903 22.228C16.6204 20.5512 9.87234 20.8172 5.50301 22.9602C5.62324 22.6748 5.75869 22.3998 5.91392 22.1338ZM4.946 25.2198C7.25622 23.6058 10.6835 22.7884 14.9828 22.7884C17.7998 22.7884 20.9897 23.1381 24.4794 23.8434C24.4535 23.9495 24.4292 24.0586 24.4033 24.1662C24.379 24.2649 24.3546 24.362 24.3318 24.4621C24.3059 24.5712 24.2816 24.6833 24.2572 24.7939C24.1978 25.0524 24.1385 25.3124 24.0807 25.574C24.0533 25.698 24.0244 25.8205 23.997 25.9461C23.9757 26.0432 23.9559 26.1433 23.9361 26.242C23.8813 26.496 23.8296 26.7516 23.7778 27.0086C23.7474 27.158 23.7154 27.306 23.6865 27.4569C23.6698 27.5406 23.6545 27.6258 23.6378 27.7095C23.5891 27.962 23.5419 28.2176 23.4932 28.4716C23.4613 28.645 23.4278 28.8168 23.3958 28.9917C23.3836 29.0604 23.3715 29.1292 23.3593 29.1964C23.3136 29.452 23.271 29.709 23.2269 29.9661C23.1934 30.1603 23.1599 30.3546 23.128 30.5504C23.1188 30.6027 23.1112 30.6535 23.1021 30.7043C23.0595 30.9688 23.0199 31.2348 22.9788 31.5008C22.9484 31.6996 22.9164 31.8983 22.8875 32.0986C22.8799 32.1464 22.8723 32.1942 22.8662 32.2421C22.8586 32.2988 22.851 32.3556 22.8434 32.4124C22.8099 32.6455 22.7779 32.8817 22.746 33.1163C22.7231 33.2837 22.6988 33.451 22.6775 33.6199C22.6699 33.6767 22.6623 33.735 22.6562 33.7918C22.6349 33.9621 22.6136 34.134 22.5938 34.3058C22.5588 34.5898 22.5223 34.8737 22.4888 35.1607C22.4203 35.21 22.3518 35.2608 22.2833 35.3101C22.1829 35.3833 22.0809 35.458 21.9805 35.5313C21.8587 35.6209 21.7385 35.7091 21.6183 35.7988C21.5224 35.869 21.4265 35.9407 21.3321 36.011C21.3032 36.0334 21.2728 36.0543 21.2439 36.0767C21.148 36.1485 21.0536 36.2202 20.9593 36.2904C20.8604 36.3652 20.7614 36.4399 20.6625 36.5146C20.5438 36.6043 20.4266 36.6939 20.3094 36.7851C20.2394 36.8389 20.1679 36.8927 20.0979 36.9465C20.0811 36.9599 20.0659 36.9719 20.0492 36.9853C20.037 36.9943 20.0264 37.0033 20.0142 37.0122C19.8985 37.1019 19.7829 37.1916 19.6672 37.2812C19.5698 37.3574 19.4724 37.4337 19.375 37.5099C19.2609 37.5995 19.1467 37.6907 19.0326 37.7804C19.0234 37.7878 19.0128 37.7953 19.0037 37.8028C18.9656 37.8327 18.9276 37.8626 18.8895 37.8939C18.8408 37.9328 18.7921 37.9717 18.7434 38.0105C18.6308 38.1002 18.5182 38.1913 18.4056 38.281C18.3097 38.3587 18.2123 38.4364 18.1164 38.5141C18.0296 38.5844 17.9444 38.6546 17.8592 38.7233C17.812 38.7622 17.7648 38.8011 17.7177 38.8399C17.6446 38.8997 17.5731 38.958 17.5016 39.0177C17.392 39.1089 17.2824 39.1986 17.1743 39.2897C17.0815 39.3674 16.9872 39.4451 16.8943 39.5229C16.838 39.5692 16.7832 39.617 16.7269 39.6633C16.6813 39.7022 16.6371 39.7395 16.5915 39.7784C16.5854 39.7844 16.5778 39.7889 16.5717 39.7948C16.4788 39.874 16.386 39.9518 16.2932 40.031C16.1866 40.1221 16.0801 40.2133 15.9751 40.3044C15.8838 40.3821 15.7925 40.4613 15.7027 40.5391C15.6738 40.5645 15.6449 40.5899 15.6159 40.6138C15.5885 40.6377 15.5627 40.6616 15.5353 40.6855C15.4851 40.7289 15.4348 40.7737 15.3846 40.817C15.2963 40.8947 15.2065 40.9724 15.1183 41.0502C15.0117 41.1443 14.9067 41.2384 14.8002 41.3326C14.7165 41.4073 14.6313 41.4835 14.5476 41.5583C14.5415 41.5642 14.5354 41.5687 14.5293 41.5747C14.4243 41.6688 14.3208 41.7645 14.2158 41.8586C14.1367 41.9304 14.056 42.0021 13.9784 42.0753C13.8597 42.1844 13.7425 42.2935 13.6253 42.4011C13.6086 42.4175 13.5903 42.4325 13.5736 42.4489C13.5523 42.4684 13.5294 42.4878 13.5081 42.5087C7.53016 35.9034 4.51226 29.8032 4.95056 25.2153L4.946 25.2198ZM21.7659 49.0886C21.7659 49.108 21.7659 49.1275 21.7659 49.1469C21.7659 49.2665 21.7689 49.386 21.7704 49.5056C21.7735 49.7536 21.7765 50.0017 21.7811 50.2483C21.7811 50.2812 21.7811 50.314 21.7811 50.3469C20.8573 49.5848 19.9609 48.8166 19.1011 48.0485C19.1163 48.0351 19.1315 48.0216 19.1467 48.0067C19.1878 47.9708 19.2274 47.9349 19.2685 47.8991C19.3111 47.8617 19.3537 47.8243 19.3963 47.787C19.5744 47.6286 19.7539 47.4717 19.9366 47.3133C20.0264 47.2355 20.1162 47.1563 20.2075 47.0786C20.384 46.9262 20.5636 46.7738 20.7416 46.6213C20.8071 46.5646 20.8741 46.5093 20.9395 46.4525C20.9745 46.4226 21.0095 46.3942 21.0445 46.3643C21.2469 46.1939 21.4493 46.0251 21.6533 45.8562C21.6959 45.8218 21.737 45.786 21.7796 45.7516C21.7796 45.7845 21.7796 45.8173 21.7796 45.8502C21.775 46.0983 21.772 46.3464 21.7689 46.5944C21.7689 46.714 21.7659 46.8335 21.7644 46.9531C21.7613 47.3192 21.7598 47.6854 21.7598 48.0515C21.7598 48.3982 21.7598 48.7449 21.7644 49.0916L21.7659 49.0886ZM21.8496 52.5602C21.8633 52.9188 21.88 53.279 21.8968 53.6361C21.9028 53.7527 21.9074 53.8693 21.9135 53.9858C21.9378 54.464 21.9652 54.9408 21.9957 55.416C21.9987 55.4683 22.0033 55.5191 22.0063 55.5714C22.0352 56.0078 22.0657 56.4426 22.0992 56.8775C22.1083 56.9896 22.1159 57.1017 22.125 57.2138C22.1631 57.6815 22.2027 58.1478 22.2453 58.611C22.2468 58.6335 22.2483 58.6559 22.2514 58.6783C19.5059 56.6235 16.9552 54.5029 14.645 52.3524C14.7956 52.1955 14.9463 52.0371 15.0985 51.8802C15.1244 51.8533 15.1518 51.8264 15.1776 51.7995C15.3146 51.6575 15.4546 51.517 15.5931 51.3751C15.6509 51.3168 15.7088 51.2585 15.7666 51.2017C15.8777 51.0911 15.9888 50.9791 16.0999 50.8685C16.1653 50.8042 16.2308 50.74 16.2962 50.6757C16.4028 50.5711 16.5108 50.465 16.6189 50.3604C16.6858 50.2946 16.7528 50.2304 16.8197 50.1646C16.9308 50.057 17.0419 49.9509 17.1546 49.8433C17.2185 49.782 17.2824 49.7208 17.3463 49.6595C17.4726 49.5399 17.6005 49.4189 17.7298 49.2993C17.7709 49.2605 17.812 49.2231 17.8531 49.1843C19.1163 50.3155 20.4571 51.4483 21.8465 52.5587L21.8496 52.5602ZM2.71035 27.5825C2.86558 27.318 3.0406 27.0639 3.23236 26.8203C3.52912 31.6069 6.66877 37.4785 12.2815 43.6714C12.245 43.7072 12.21 43.7416 12.1734 43.7775C12.0517 43.8955 11.9315 44.0136 11.8127 44.1316C11.7503 44.1929 11.688 44.2542 11.6271 44.3169C11.516 44.4275 11.4049 44.5381 11.2938 44.6502C11.2314 44.713 11.169 44.7757 11.1066 44.8385C10.9924 44.9536 10.8798 45.0686 10.7672 45.1852C10.7124 45.2405 10.6576 45.2973 10.6044 45.3526C10.4522 45.5095 10.3015 45.6679 10.1508 45.8248C10.1387 45.8383 10.1265 45.8502 10.1143 45.8637C9.953 46.0325 9.79473 46.2029 9.63797 46.3718C9.58775 46.4256 9.53905 46.4779 9.49035 46.5317C9.41273 46.6154 9.33512 46.699 9.2575 46.7827C2.52011 38.9341 0.133797 31.9671 2.71035 27.5825ZM4.72685 63.5187C4.69641 63.589 4.66597 63.6592 4.63553 63.7294C4.5777 63.8654 4.52444 64.0014 4.46965 64.1359C4.44834 64.1912 4.42551 64.2465 4.40421 64.3003C4.33116 64.4886 4.25963 64.6769 4.19419 64.8637C4.18353 64.8951 4.17288 64.9265 4.16223 64.9578C4.10744 65.1118 4.0557 65.2657 4.00547 65.4196C3.98417 65.4854 3.96438 65.5511 3.94308 65.6184C3.90655 65.7364 3.87003 65.8545 3.83502 65.9711C3.81372 66.0443 3.79393 66.1175 3.77262 66.1907C3.74219 66.2998 3.71327 66.4089 3.68436 66.5165C3.66457 66.5912 3.64631 66.666 3.62805 66.7407C3.60217 66.8468 3.57782 66.9529 3.55347 67.059C3.53673 67.1322 3.51999 67.2054 3.50477 67.2787C3.48194 67.3878 3.46064 67.4969 3.44085 67.6045C3.42868 67.6717 3.41498 67.739 3.40281 67.8062C3.37998 67.9347 3.36172 68.0632 3.34345 68.1903C3.33737 68.2351 3.32823 68.2814 3.32367 68.3263C3.30084 68.4951 3.28106 68.664 3.26584 68.8314C3.25975 68.8867 3.25671 68.942 3.25214 68.9973C3.24453 69.0914 3.2354 69.1841 3.22931 69.2767C3.03908 69.0331 2.86558 68.7776 2.71035 68.5146C0.0546585 63.9954 2.66926 56.7341 9.88604 48.594C11.1446 47.1743 12.5448 45.7322 14.0454 44.305C14.3254 44.039 14.6115 43.773 14.8991 43.5085C14.9448 43.4666 14.9904 43.4233 15.0376 43.3814C15.3146 43.1274 15.5946 42.8733 15.8792 42.6193C15.9325 42.573 15.9842 42.5251 16.0375 42.4788C16.3267 42.2218 16.6189 41.9647 16.9156 41.7077C16.9445 41.6823 16.9735 41.6569 17.0039 41.633C17.2931 41.3834 17.5853 41.1338 17.882 40.8858C17.9185 40.8559 17.9536 40.8245 17.9901 40.7946C18.2914 40.542 18.5958 40.291 18.9032 40.0384C18.9626 39.9906 19.0219 39.9413 19.0813 39.8935C19.3856 39.6454 19.6931 39.3988 20.002 39.1537C20.0553 39.1119 20.1085 39.07 20.1618 39.0267C20.4723 38.7801 20.7873 38.535 21.1039 38.2915C21.1221 38.278 21.1389 38.2646 21.1571 38.2511C21.4798 38.003 21.807 37.755 22.1357 37.5084C22.1753 37.4785 22.2133 37.4501 22.2529 37.4202C22.2514 37.4426 22.2483 37.4665 22.2468 37.489C22.2057 37.9268 22.1677 38.3677 22.1327 38.81C22.1235 38.9236 22.1144 39.0387 22.1053 39.1522C22.0779 39.5124 22.0505 39.874 22.0261 40.2372C22.0185 40.3478 22.0109 40.4569 22.0033 40.5675C21.9744 41.0128 21.9485 41.4611 21.9242 41.9079C21.9196 42.0066 21.915 42.1037 21.9089 42.2023C21.8907 42.573 21.8739 42.9436 21.8587 43.3142C21.8557 43.3889 21.8511 43.4621 21.8481 43.5369C21.7841 43.5877 21.7202 43.64 21.6563 43.6908C21.6076 43.7296 21.5574 43.77 21.5087 43.8088C21.4691 43.8402 21.4311 43.8716 21.393 43.903C21.2758 43.9986 21.1586 44.0943 21.0415 44.1899C20.9532 44.2617 20.8649 44.3334 20.7782 44.4066C20.661 44.5023 20.5453 44.5979 20.4297 44.695C20.3429 44.7668 20.2562 44.8385 20.1709 44.9102C20.0538 45.0089 19.9381 45.106 19.8224 45.2046C19.7402 45.2749 19.6565 45.3451 19.5744 45.4139C19.4557 45.5155 19.3369 45.6171 19.2182 45.7187C19.1558 45.771 19.0934 45.8248 19.0326 45.8771C19.0204 45.8876 19.0082 45.8995 18.9945 45.91C18.9915 45.913 18.9884 45.916 18.9854 45.919C18.8606 46.0266 18.7388 46.1342 18.6156 46.2418C18.5456 46.303 18.4756 46.3643 18.4071 46.4241C18.2716 46.5436 18.1377 46.6632 18.0038 46.7827C17.949 46.832 17.8927 46.8814 17.8364 46.9307C17.6477 47.0996 17.4605 47.2684 17.2763 47.4373C17.2763 47.4373 17.2748 47.4373 17.2733 47.4388L16.6067 48.047L16.6097 48.05C16.4408 48.2084 16.2719 48.3653 16.1045 48.5237C14.9524 49.6162 13.8551 50.7235 12.8309 51.8249L12.2754 52.4227L12.2784 52.4257C12.2632 52.4421 12.2495 52.4585 12.2343 52.475C12.1719 52.5452 12.1095 52.614 12.0471 52.6827C11.9147 52.8291 11.7838 52.9771 11.6545 53.1235C11.5829 53.2057 11.5129 53.2864 11.4414 53.3671C11.3242 53.5016 11.207 53.6376 11.0914 53.7721C11.0198 53.8573 10.9468 53.941 10.8768 54.0262C10.7642 54.1592 10.6531 54.2922 10.542 54.4252C10.5009 54.4745 10.4598 54.5238 10.4187 54.5716C10.3913 54.6045 10.3654 54.6389 10.338 54.6718C10.2239 54.8107 10.1113 54.9497 10.0002 55.0872C9.9393 55.1619 9.87995 55.2367 9.8206 55.3114C9.69124 55.4743 9.56492 55.6357 9.44013 55.7971C9.40208 55.8464 9.36099 55.8972 9.32294 55.9465C9.15858 56.1587 8.99878 56.3709 8.8405 56.5831C8.81159 56.622 8.78419 56.6593 8.7568 56.6982C8.63048 56.8701 8.50417 57.0419 8.38089 57.2123C8.33067 57.281 8.28349 57.3498 8.23327 57.42C8.13435 57.5605 8.03543 57.6995 7.93803 57.8399C7.88476 57.9161 7.83302 57.9939 7.77975 58.0701C7.68996 58.2031 7.60017 58.3346 7.5119 58.4661C7.46015 58.5438 7.40841 58.6215 7.35819 58.6992C7.27144 58.8322 7.18621 58.9637 7.10099 59.0952C7.05381 59.17 7.00511 59.2447 6.95945 59.3179C6.86966 59.4599 6.78291 59.6004 6.69769 59.7408C6.65964 59.8036 6.62007 59.8664 6.58203 59.9291C6.46636 60.1204 6.35526 60.3102 6.24569 60.5C6.2396 60.5119 6.23199 60.5239 6.2259 60.5344C6.10872 60.7376 5.9961 60.9393 5.88652 61.1396C5.85609 61.1949 5.82717 61.2487 5.79825 61.304C5.72064 61.4475 5.64302 61.5924 5.56997 61.7344C5.53345 61.8061 5.49692 61.8763 5.46192 61.9466C5.398 62.0736 5.33408 62.2006 5.27168 62.3262C5.23516 62.4024 5.19863 62.4771 5.16211 62.5518C5.10427 62.6744 5.04644 62.7954 4.99013 62.9165C4.95513 62.9912 4.92165 63.0674 4.88665 63.1421C4.83186 63.2662 4.77707 63.3887 4.72532 63.5112L4.72685 63.5187ZM4.93991 70.8294C4.93382 70.7562 4.92926 70.68 4.92469 70.6052C4.92013 70.529 4.91404 70.4513 4.911 70.3736C4.90795 70.2974 4.90643 70.2212 4.90643 70.145C4.90643 70.0673 4.90339 69.988 4.90491 69.9103C4.90491 69.8326 4.90795 69.7534 4.911 69.6757C4.91404 69.5965 4.91556 69.5173 4.92013 69.4366C4.92469 69.3574 4.93078 69.2767 4.93687 69.1975C4.94295 69.1168 4.94904 69.0361 4.95665 68.9539C4.96426 68.8732 4.97339 68.791 4.98405 68.7103C4.99318 68.6281 5.00383 68.5459 5.01448 68.4622C5.02514 68.3801 5.03883 68.2964 5.05253 68.2142C5.06623 68.1305 5.07992 68.0468 5.09362 67.9631C5.10884 67.8794 5.12558 67.7942 5.14232 67.7106C5.15906 67.6254 5.1758 67.5402 5.19559 67.455C5.21385 67.3698 5.23363 67.2832 5.25494 67.1965C5.27473 67.1098 5.29603 67.0246 5.31886 66.9379C5.34169 66.8513 5.36452 66.7631 5.38887 66.6764C5.41322 66.5882 5.43757 66.5016 5.46344 66.4134C5.48931 66.3252 5.51518 66.2371 5.54258 66.1474C5.56997 66.0592 5.59889 65.9696 5.6278 65.8799C5.65672 65.7902 5.68716 65.7006 5.71759 65.6109C5.74803 65.5212 5.77999 65.4301 5.81347 65.3404C5.84695 65.2493 5.88044 65.1581 5.91392 65.0669C5.94892 64.9758 5.98392 64.8846 6.02045 64.7935C6.05698 64.7008 6.0935 64.6096 6.13155 64.517C6.16959 64.4243 6.20916 64.3317 6.24873 64.239C6.2883 64.1464 6.32939 64.0522 6.37048 63.9596C6.41157 63.8669 6.45419 63.7728 6.4968 63.6786C6.53941 63.5845 6.58355 63.4903 6.6292 63.3947C6.67334 63.3005 6.72052 63.2049 6.76617 63.1107C6.81335 63.0151 6.85901 62.9195 6.90771 62.8238C6.95641 62.7282 7.00511 62.631 7.05533 62.5354C7.10555 62.4397 7.15578 62.3426 7.20752 62.2455C7.25926 62.1483 7.31253 62.0512 7.3658 61.9541C7.41906 61.8569 7.47233 61.7598 7.52712 61.6612C7.5819 61.5625 7.63974 61.4639 7.69605 61.3668C7.75236 61.2681 7.80867 61.171 7.86802 61.0724C7.92737 60.9722 7.98673 60.8736 8.0476 60.7735C8.10695 60.6748 8.16631 60.5762 8.22871 60.4761C8.2911 60.376 8.35502 60.2743 8.41894 60.1742C8.48134 60.0741 8.54526 59.9755 8.60918 59.8753C8.67462 59.7737 8.7431 59.6721 8.81007 59.569C8.87551 59.4688 8.94247 59.3687 9.00943 59.2686C9.07792 59.1655 9.14945 59.0624 9.22097 58.9592C9.29098 58.8576 9.35947 58.7575 9.431 58.6559C9.50405 58.5528 9.57862 58.4482 9.65319 58.3435C9.72472 58.2419 9.79777 58.1418 9.87082 58.0402C9.94843 57.9341 10.0276 57.828 10.1067 57.7219C10.1813 57.6217 10.2543 57.5201 10.3304 57.42C10.4111 57.3124 10.4948 57.2033 10.5785 57.0957C10.6561 56.9956 10.7307 56.8955 10.8098 56.7938C10.895 56.6833 10.9833 56.5727 11.0716 56.4636C11.1507 56.3634 11.2283 56.2648 11.309 56.1647C11.4003 56.0526 11.4931 55.939 11.586 55.8255C11.6666 55.7268 11.7458 55.6297 11.828 55.5311C11.9238 55.4145 12.0243 55.2979 12.1217 55.1814C12.2023 55.0857 12.283 54.9886 12.3652 54.8929C12.4702 54.7704 12.5783 54.6479 12.6848 54.5238C12.7639 54.4327 12.8415 54.343 12.9222 54.2518C13.0424 54.1143 13.1672 53.9769 13.2905 53.8394C13.3605 53.7617 13.4275 53.6854 13.4975 53.6077C13.502 53.6033 13.5066 53.5988 13.5112 53.5928C16.2125 56.1034 19.2304 58.5722 22.4979 60.9453C22.5451 61.3548 22.5938 61.7643 22.6455 62.1693C22.6684 62.3486 22.6942 62.5249 22.7171 62.7028C22.7627 63.0495 22.8084 63.3962 22.8586 63.7399C22.889 63.9491 22.921 64.1568 22.9529 64.3646C22.9986 64.6739 23.0458 64.9832 23.0945 65.2896C23.1295 65.5093 23.166 65.726 23.2025 65.9442C23.2512 66.2371 23.2999 66.53 23.3517 66.8199C23.3913 67.0426 23.4323 67.2622 23.4719 67.4834C23.5237 67.7658 23.5769 68.0483 23.6302 68.3292C23.6728 68.5504 23.7169 68.7716 23.7626 68.9913C23.8189 69.2677 23.8752 69.5427 23.933 69.8147C23.9802 70.0344 24.0274 70.2526 24.0746 70.4692C24.1339 70.7397 24.1948 71.0087 24.2572 71.2777C24.3074 71.4929 24.3561 71.7066 24.4079 71.9188C24.4353 72.0324 24.4611 72.1475 24.4885 72.2611C15.6753 74.0424 8.78267 73.5597 4.95665 70.8922C4.95513 70.8742 4.95209 70.8548 4.95056 70.8369L4.93991 70.8294ZM5.91392 73.9647C5.75716 73.6987 5.62172 73.4222 5.50149 73.1368C7.97151 74.3488 11.1979 74.963 15.0331 74.963C17.984 74.963 21.2941 74.5998 24.8903 73.8705C24.904 73.9228 24.9192 73.9752 24.9329 74.0275C24.974 74.1814 25.0151 74.3353 25.0577 74.4892C25.0821 74.5789 25.1079 74.6701 25.1323 74.7597C25.1719 74.9032 25.2129 75.0467 25.254 75.1886C25.2799 75.2783 25.3058 75.368 25.3301 75.4561C25.3743 75.6071 25.4184 75.7565 25.4625 75.9059C25.4854 75.9822 25.5082 76.0599 25.531 76.1361C25.5949 76.3483 25.6589 76.5575 25.7243 76.7667C25.7289 76.7787 25.7319 76.7921 25.7365 76.8041C25.8065 77.0268 25.8765 77.2494 25.948 77.4691C25.9678 77.5319 25.9891 77.5946 26.0089 77.6574C26.0454 77.771 26.0819 77.8845 26.12 77.9966C15.829 79.8019 8.49199 78.3493 5.91392 73.9647ZM42.0161 94.4322C36.7032 94.4322 31.6079 88.5771 28.036 78.3687C27.4121 76.5859 26.8383 74.6745 26.3331 72.687C25.359 68.8672 24.6194 64.7292 24.1324 60.3909C23.8326 57.7084 23.6287 54.9258 23.5297 52.1238C23.4826 50.7878 23.4582 49.4174 23.4582 48.05C23.4582 46.6826 23.4826 45.3122 23.5297 43.9762C23.6302 41.1727 23.8326 38.3916 24.1324 35.7091C24.2542 34.6242 24.3911 33.5527 24.5448 32.4946C24.6407 31.8326 24.7442 31.1795 24.8523 30.5295C25.2616 28.0622 25.7547 25.6801 26.3331 23.41C26.4091 23.1097 26.4883 22.8123 26.5674 22.5149C27.0133 20.8516 27.5049 19.2451 28.036 17.7298C31.6079 7.51991 36.7032 1.66478 42.0161 1.66478C42.3265 1.66478 42.6385 1.6857 42.949 1.72605C42.8638 1.78135 42.7801 1.83963 42.6948 1.89791C42.6553 1.92481 42.6157 1.95021 42.5761 1.97711C42.4346 2.07575 42.2946 2.17737 42.1546 2.28347C42.1272 2.30439 42.0998 2.32681 42.0724 2.34773C41.9598 2.43441 41.8487 2.52108 41.7361 2.61224C41.6874 2.6511 41.6387 2.69294 41.59 2.73329C41.5002 2.80801 41.4088 2.88423 41.3191 2.96343C41.2658 3.00976 41.2125 3.05758 41.1593 3.1054C41.074 3.18161 40.9903 3.25783 40.9051 3.33703C40.8503 3.38784 40.7971 3.43865 40.7438 3.48946C40.6601 3.57016 40.5749 3.65236 40.4912 3.73604C40.4394 3.78835 40.3877 3.83916 40.3359 3.89146C40.2461 3.98262 40.1579 4.07528 40.0696 4.16793C40.0239 4.21575 39.9783 4.26357 39.9341 4.31139C39.82 4.43394 39.7074 4.55947 39.5948 4.68799C39.5765 4.70891 39.5567 4.72983 39.5385 4.75075C39.4061 4.90169 39.2752 5.05561 39.1458 5.21253C39.1093 5.25736 39.0728 5.30369 39.0347 5.34852C38.9419 5.4621 38.849 5.57717 38.7577 5.69373C38.7105 5.75351 38.6634 5.81627 38.6162 5.87605C38.534 5.98215 38.4534 6.08826 38.3727 6.19735C38.3225 6.2646 38.2738 6.33185 38.2235 6.3991C38.1459 6.50669 38.0683 6.61429 37.9907 6.72338C37.942 6.79362 37.8918 6.86236 37.8431 6.9326C37.7639 7.04618 37.6863 7.16125 37.6072 7.27781C37.5615 7.34656 37.5159 7.4138 37.4687 7.48255C37.3819 7.61406 37.2952 7.74706 37.21 7.88156C37.1734 7.93835 37.1384 7.99214 37.1019 8.04893C36.9802 8.24171 36.8599 8.43748 36.7397 8.63624C36.7275 8.65716 36.7138 8.67958 36.7017 8.7005C36.5951 8.87833 36.4901 9.05766 36.3851 9.24148C36.3455 9.31022 36.3075 9.38046 36.2679 9.4492C36.1903 9.58669 36.1127 9.72567 36.0351 9.86764C35.9909 9.94834 35.9468 10.0305 35.9027 10.1127C35.8311 10.2457 35.7596 10.3802 35.6881 10.5147C35.6424 10.6014 35.5983 10.6881 35.5526 10.7747C35.4826 10.9107 35.4126 11.0482 35.3441 11.1872C35.3 11.2739 35.2574 11.3606 35.2133 11.4487C35.1417 11.5952 35.0702 11.7431 34.9987 11.8926C34.9591 11.9748 34.9211 12.0555 34.8815 12.1377C34.7963 12.3185 34.7126 12.5023 34.6289 12.6861C34.6045 12.7384 34.5817 12.7892 34.5573 12.8415C34.4508 13.0791 34.3443 13.3197 34.2392 13.5633C34.2119 13.6291 34.1845 13.6948 34.1555 13.7606C34.0795 13.9399 34.0034 14.1207 33.9273 14.3046C33.8892 14.3972 33.8512 14.4899 33.8146 14.5825C33.7507 14.7424 33.6853 14.9023 33.6229 15.0637C33.5833 15.1653 33.5422 15.2685 33.5027 15.3716C33.4418 15.5285 33.3824 15.6854 33.3216 15.8438C33.282 15.9499 33.2424 16.056 33.2028 16.1636C33.1435 16.325 33.0841 16.4879 33.0248 16.6508C32.9867 16.7554 32.9487 16.8615 32.9106 16.9676C32.8482 17.144 32.7858 17.3233 32.725 17.5026C32.693 17.5968 32.6595 17.6894 32.6276 17.7851C32.6215 17.8045 32.6139 17.8239 32.6078 17.8433H32.6032L32.3567 18.6055C32.3567 18.6085 32.3552 18.6115 32.3536 18.613L32.0888 19.4304H32.0949C31.6688 20.8068 31.2731 22.2414 30.9124 23.7134H30.9078L30.7039 24.5832C30.7039 24.5832 30.7039 24.5847 30.7039 24.5862L30.5289 25.3408H30.5319C30.1636 26.9892 29.8364 28.6943 29.5518 30.4263H29.5503L29.491 30.797C29.491 30.7984 29.491 30.7999 29.491 30.8029C29.4377 31.1347 29.386 31.4679 29.3357 31.8042C29.0861 33.4794 28.8746 35.189 28.7042 36.9166C28.6494 37.4755 28.5991 38.0359 28.5535 38.5978H28.552L28.52 38.9953C28.2841 41.9468 28.1654 44.9924 28.1654 48.0455C28.1654 48.4266 28.1669 48.8092 28.1715 49.1902C28.1761 49.5907 28.1821 49.9913 28.1898 50.3918C28.2354 52.6543 28.345 54.9019 28.52 57.0957C28.52 57.1017 28.52 57.1092 28.5215 57.1151L28.552 57.4932C28.7407 59.7916 29.0024 62.0706 29.3342 64.2868C29.3844 64.6216 29.4362 64.9549 29.4894 65.2881C29.4894 65.2956 29.4925 65.3031 29.4925 65.312L29.5488 65.6647H29.5503C29.5731 65.8052 29.596 65.9456 29.6188 66.0861C29.8867 67.6747 30.191 69.2378 30.5289 70.7502H30.5258L30.7009 71.5049C30.7009 71.5049 30.7009 71.5064 30.7009 71.5079L30.9048 72.3791H30.9094C31.2685 73.8451 31.6642 75.2783 32.0919 76.6606H32.0858L32.3506 77.4796L32.6002 78.2507H32.6047C32.6124 78.2701 32.6184 78.2895 32.626 78.3105C32.6565 78.4001 32.6884 78.4898 32.7189 78.5795C32.7813 78.7633 32.8452 78.9456 32.9091 79.1264C32.9456 79.231 32.9837 79.3341 33.0202 79.4372C33.0796 79.6016 33.1389 79.766 33.1998 79.9289C33.2394 80.035 33.2789 80.1411 33.3185 80.2457C33.3779 80.4056 33.4387 80.5625 33.4996 80.7195C33.5392 80.8226 33.5787 80.9242 33.6198 81.0258C33.6838 81.1872 33.7477 81.3471 33.8116 81.5055C33.8496 81.5997 33.8877 81.6923 33.9257 81.785C34.0018 81.9673 34.0779 82.1481 34.154 82.3289C34.1814 82.3947 34.2088 82.4605 34.2377 82.5247C34.3427 82.7683 34.4477 83.0089 34.5558 83.2465C34.5802 83.2988 34.603 83.3511 34.6273 83.4034C34.711 83.5872 34.7947 83.7711 34.88 83.9519C34.918 84.0341 34.9576 84.1148 34.9956 84.1955C35.0672 84.3449 35.1387 84.4944 35.2102 84.6408C35.2528 84.729 35.297 84.8142 35.3396 84.9008C35.4096 85.0398 35.4796 85.1788 35.5496 85.3148C35.5937 85.4015 35.6379 85.4866 35.682 85.5718C35.7535 85.7093 35.8266 85.8453 35.8981 85.9798C35.9407 86.0605 35.9849 86.1397 36.0275 86.2189C36.1066 86.3624 36.1857 86.5043 36.2649 86.6463C36.3029 86.7121 36.3395 86.7793 36.3775 86.8451C36.4871 87.0364 36.5966 87.2247 36.7077 87.41C36.7154 87.4234 36.723 87.4369 36.7321 87.4503C36.8523 87.6506 36.9741 87.8478 37.0958 88.0421C37.1293 88.0944 37.1613 88.1452 37.1948 88.196C37.283 88.335 37.3728 88.474 37.4626 88.61C37.5052 88.6757 37.5493 88.74 37.5935 88.8043C37.6741 88.9238 37.7548 89.0434 37.837 89.1614C37.8842 89.2287 37.9298 89.2959 37.977 89.3617C38.0577 89.4752 38.1383 89.5873 38.219 89.6979C38.2662 89.7622 38.3133 89.8264 38.3605 89.8907C38.4442 90.0028 38.5279 90.1134 38.6131 90.2225C38.6573 90.2792 38.7014 90.3375 38.7456 90.3943C38.8414 90.5169 38.9388 90.6379 39.0362 90.7575C39.0682 90.7978 39.1002 90.8382 39.1336 90.877C39.2645 91.0354 39.3969 91.1923 39.5308 91.3448C39.543 91.3597 39.5567 91.3732 39.5689 91.3866C39.6876 91.5226 39.8078 91.6541 39.9281 91.7841C39.9691 91.829 40.0118 91.8723 40.0544 91.9171C40.1457 92.0143 40.2385 92.1114 40.3314 92.2055C40.3801 92.2564 40.4303 92.3042 40.479 92.3535C40.5657 92.4402 40.6525 92.5254 40.7392 92.6075C40.791 92.6569 40.8427 92.7062 40.8945 92.754C40.9812 92.8347 41.068 92.9139 41.1562 92.9931C41.208 93.0394 41.2582 93.0843 41.3099 93.1291C41.4028 93.2098 41.4956 93.289 41.5884 93.3652C41.6341 93.4041 41.6797 93.4429 41.7269 93.4803C41.8426 93.5744 41.9598 93.6656 42.077 93.7553C42.0998 93.7732 42.1226 93.7911 42.1454 93.8091C42.2855 93.9152 42.427 94.0183 42.57 94.1169C42.6081 94.1438 42.6461 94.1677 42.6842 94.1931C42.7694 94.2514 42.8546 94.3112 42.9414 94.3665C42.6309 94.4068 42.3189 94.4263 42.0085 94.4263L42.0161 94.4322ZM47.1159 92.6016C47.0505 92.6494 46.9866 92.6957 46.9211 92.742C46.8511 92.7914 46.7796 92.8377 46.7096 92.8855C46.6441 92.9288 46.5787 92.9737 46.5133 93.0155C46.4432 93.0604 46.3717 93.1037 46.3002 93.147C46.2347 93.1874 46.1678 93.2277 46.1023 93.2651C46.0308 93.3054 45.9593 93.3443 45.8878 93.3832C45.8208 93.419 45.7538 93.4564 45.6884 93.4907C45.6169 93.5281 45.5453 93.5625 45.4738 93.5969C45.4068 93.6297 45.3399 93.6626 45.2729 93.6925C45.2562 93.7 45.2394 93.7074 45.2227 93.7149C45.2044 93.7074 45.1877 93.7 45.1694 93.691C45.1101 93.6641 45.0507 93.6342 44.9914 93.6058C44.9138 93.5685 44.8361 93.5311 44.7585 93.4907C44.6976 93.4594 44.6383 93.4265 44.5774 93.3936C44.5013 93.3518 44.4252 93.3114 44.3507 93.2681C44.2898 93.2337 44.2289 93.1964 44.168 93.1605C44.0935 93.1157 44.0189 93.0708 43.9443 93.023C43.8834 92.9841 43.8226 92.9438 43.7617 92.9049C43.6886 92.8556 43.6141 92.8063 43.541 92.7555C43.4801 92.7137 43.4193 92.6703 43.3599 92.627C43.2869 92.5747 43.2138 92.5209 43.1423 92.4656C43.0814 92.4193 43.0205 92.3729 42.9612 92.3266C42.8896 92.2698 42.8181 92.213 42.7466 92.1532C42.6857 92.1039 42.6264 92.0546 42.567 92.0038C42.4955 91.944 42.424 91.8813 42.3539 91.8185C42.2946 91.7662 42.2352 91.7139 42.1759 91.6601C42.1044 91.5958 42.0343 91.5286 41.9628 91.4628C41.9035 91.4075 41.8456 91.3522 41.7863 91.2954C41.7147 91.2267 41.6447 91.155 41.5747 91.0832C41.5169 91.025 41.4591 90.9682 41.4028 90.9084C41.3312 90.8337 41.2597 90.7575 41.1882 90.6812C41.1319 90.6215 41.0771 90.5617 41.0208 90.5004C40.9477 90.4197 40.8747 90.336 40.8016 90.2523C40.7484 90.1926 40.6951 90.1328 40.6433 90.0715C40.5657 89.9804 40.4881 89.8862 40.4105 89.7921C40.3633 89.7353 40.3161 89.68 40.2705 89.6217C40.17 89.4962 40.0696 89.3677 39.9707 89.2391C39.9478 89.2092 39.925 89.1808 39.9022 89.151C39.7804 88.9926 39.6602 88.8297 39.5415 88.6638C39.4974 88.6025 39.4517 88.5368 39.4076 88.474C39.3315 88.3679 39.2569 88.2618 39.1808 88.1527C39.1291 88.078 39.0788 88.0018 39.0286 87.9255C38.9601 87.8254 38.8932 87.7253 38.8262 87.6222C38.7729 87.5415 38.7197 87.4578 38.6679 87.3741C38.604 87.274 38.5401 87.1738 38.4762 87.0707C38.4229 86.9841 38.3696 86.8959 38.3149 86.8077C38.2525 86.7061 38.1901 86.6045 38.1292 86.4999C38.0759 86.4087 38.0227 86.3175 37.9694 86.2249C37.9085 86.1203 37.8476 86.0157 37.7883 85.9096C37.735 85.8154 37.6818 85.7198 37.63 85.6241C37.5707 85.5165 37.5113 85.4089 37.4519 85.2998C37.3987 85.2012 37.3469 85.1026 37.2937 85.004C37.2358 84.8934 37.178 84.7828 37.1202 84.6722C37.0684 84.5706 37.0167 84.4689 36.9649 84.3658C36.9071 84.2523 36.8508 84.1387 36.7945 84.0236C36.7427 83.919 36.6925 83.8159 36.6408 83.7098C36.5845 83.5932 36.5282 83.4752 36.4719 83.3556C36.4216 83.2495 36.3714 83.1419 36.3212 83.0343C36.2649 82.9133 36.2101 82.7907 36.1553 82.6682C36.1066 82.5591 36.0579 82.4515 36.0092 82.3409C35.9544 82.2154 35.8996 82.0883 35.8448 81.9613C35.7977 81.8507 35.7505 81.7416 35.7033 81.6296C35.6485 81.4995 35.5937 81.3665 35.5389 81.235C35.4933 81.1244 35.4476 81.0139 35.402 80.9003C35.3472 80.7643 35.2924 80.6253 35.2376 80.4863C35.1935 80.3757 35.1493 80.2652 35.1067 80.1531C35.0504 80.0081 34.9956 79.8617 34.9408 79.7152C34.8997 79.6061 34.8587 79.497 34.8176 79.3879C34.7597 79.231 34.7019 79.0711 34.6456 78.9127C34.6091 78.8096 34.571 78.708 34.5345 78.6049C34.4691 78.4181 34.4036 78.2283 34.3382 78.0385C34.3108 77.9608 34.2834 77.8846 34.2575 77.8053C34.256 77.8009 34.2545 77.7964 34.2529 77.7919C34.2773 77.7844 34.3032 77.777 34.3275 77.7695C34.7613 77.6425 35.195 77.5124 35.6318 77.3764C35.6333 77.3764 35.6348 77.3764 35.6363 77.375C36.0716 77.2405 36.5069 77.1 36.9452 76.9565C36.9863 76.9431 37.0258 76.9296 37.0669 76.9162C37.4839 76.7787 37.9024 76.6382 38.3209 76.4932C38.3818 76.4723 38.4427 76.4514 38.5051 76.4305C38.9145 76.2885 39.3239 76.1436 39.7348 75.9941C39.8048 75.9687 39.8733 75.9433 39.9433 75.9179C40.3527 75.7685 40.762 75.616 41.173 75.4606C41.2414 75.4337 41.3114 75.4083 41.3815 75.3814C41.7954 75.223 42.2109 75.0616 42.6279 74.8957C42.6888 74.8718 42.7481 74.8479 42.809 74.824C43.2366 74.6536 43.6658 74.4803 44.095 74.3024C44.1345 74.286 44.1756 74.2681 44.2152 74.2516C44.5531 74.1111 44.8909 73.9692 45.2288 73.8242C48.9574 75.4203 52.6434 76.7518 56.2031 77.7904C56.2016 77.7964 56.1985 77.8038 56.197 77.8098C56.1681 77.8935 56.1392 77.9757 56.1103 78.0579C56.0448 78.2462 55.9809 78.436 55.9155 78.6213C55.8789 78.7244 55.8409 78.8245 55.8044 78.9277C55.745 79.0905 55.6872 79.2549 55.6278 79.4163C55.5867 79.5254 55.5456 79.6315 55.5061 79.7406C55.4482 79.8916 55.3919 80.044 55.3341 80.1934C55.2915 80.304 55.2474 80.4131 55.2047 80.5222C55.1484 80.6657 55.0921 80.8106 55.0343 80.9511C54.9902 81.0617 54.9445 81.1693 54.8988 81.2784C54.8425 81.4159 54.7847 81.5548 54.7269 81.6908C54.6812 81.7999 54.634 81.906 54.5869 82.0136C54.529 82.1466 54.4712 82.2811 54.4134 82.4111C54.3662 82.5172 54.3175 82.6233 54.2703 82.728C54.2125 82.8565 54.1546 82.9865 54.0953 83.1135C54.0466 83.2181 53.9979 83.3212 53.9477 83.4244C53.8883 83.5484 53.8305 83.6724 53.7711 83.795C53.7209 83.8981 53.6707 83.9997 53.6205 84.1013C53.5611 84.2209 53.5018 84.3404 53.4424 84.4585C53.3907 84.5601 53.3389 84.6587 53.2872 84.7589C53.2278 84.8739 53.1669 84.989 53.1076 85.1026C53.0543 85.2012 53.0026 85.2984 52.9493 85.3955C52.8884 85.5061 52.8276 85.6182 52.7667 85.7273C52.7134 85.8229 52.6601 85.917 52.6054 86.0112C52.5445 86.1188 52.4821 86.2264 52.4212 86.3325C52.3664 86.4251 52.3116 86.5163 52.2569 86.6075C52.1945 86.7106 52.1336 86.8152 52.0712 86.9168C52.0164 87.0065 51.9601 87.0961 51.9038 87.1843C51.8414 87.2844 51.779 87.3831 51.7151 87.4817C51.6587 87.5684 51.6024 87.655 51.5461 87.7402C51.4822 87.8359 51.4198 87.9315 51.3559 88.0257C51.2981 88.1094 51.2418 88.193 51.1839 88.2752C51.12 88.3679 51.0561 88.459 50.9922 88.5487C50.9343 88.6294 50.8765 88.7101 50.8171 88.7893C50.7532 88.8775 50.6878 88.9642 50.6223 89.0508C50.563 89.1285 50.5036 89.2063 50.4458 89.2825C50.3804 89.3662 50.3149 89.4498 50.2495 89.532C50.1901 89.6068 50.1308 89.68 50.0699 89.7532C50.0045 89.8339 49.9375 89.9131 49.8721 89.9923C49.8112 90.0641 49.7518 90.1343 49.691 90.2045C49.624 90.2807 49.5585 90.357 49.4916 90.4317C49.4307 90.5004 49.3698 90.5677 49.3074 90.6334C49.2405 90.7066 49.1735 90.7769 49.1065 90.8486C49.0442 90.9129 48.9833 90.9771 48.9209 91.0414C48.8539 91.1101 48.7854 91.1774 48.7169 91.2446C48.6545 91.3059 48.5921 91.3672 48.5298 91.427C48.4613 91.4912 48.3928 91.5555 48.3243 91.6182C48.2604 91.6765 48.198 91.7333 48.1341 91.7901C48.0656 91.8514 47.9971 91.9097 47.9271 91.9694C47.8632 92.0247 47.7992 92.0785 47.7353 92.1308C47.6668 92.1876 47.5968 92.2429 47.5268 92.2982C47.4629 92.349 47.3975 92.3998 47.3336 92.4491C47.2635 92.5014 47.1935 92.5537 47.1235 92.6046L47.1159 92.6016ZM63.9145 73.4282C63.8247 73.7689 63.7303 74.1052 63.6375 74.4399C63.2555 75.7998 62.8431 77.1164 62.4063 78.3687L62.4033 78.3762C58.8314 88.5801 53.7376 94.4307 48.4263 94.4307C48.1158 94.4307 47.8053 94.4098 47.4933 94.371C47.5786 94.3157 47.6623 94.2574 47.7475 94.1991C47.7871 94.1722 47.8266 94.1468 47.8647 94.1199C48.0062 94.0213 48.1462 93.9182 48.2878 93.8135C48.3136 93.7941 48.3395 93.7732 48.3654 93.7538C48.4795 93.6656 48.5937 93.5774 48.7078 93.4848C48.755 93.4459 48.8022 93.4056 48.8493 93.3667C48.9407 93.2905 49.0335 93.2128 49.1248 93.1321C49.1766 93.0873 49.2283 93.0409 49.28 92.9946C49.3668 92.9169 49.4535 92.8377 49.5403 92.757C49.592 92.7077 49.6453 92.6584 49.697 92.609C49.7838 92.5269 49.8705 92.4417 49.9558 92.3565C50.006 92.3072 50.0547 92.2579 50.1049 92.207C50.1977 92.1129 50.2891 92.0173 50.3804 91.9186C50.423 91.8738 50.4641 91.8305 50.5067 91.7856C50.6284 91.6556 50.7487 91.5211 50.8689 91.3851C50.8811 91.3717 50.8932 91.3597 50.9039 91.3463C51.0378 91.1938 51.1702 91.0384 51.3011 90.8785C51.3331 90.8397 51.365 90.7993 51.3985 90.759C51.4959 90.6394 51.5933 90.5184 51.6907 90.3943C51.7348 90.339 51.7775 90.2807 51.8216 90.224C51.9068 90.1134 51.992 90.0028 52.0757 89.8892C52.1229 89.8264 52.1686 89.7622 52.2158 89.6994C52.2964 89.5873 52.3786 89.4752 52.4593 89.3617C52.5049 89.2959 52.5521 89.2302 52.5978 89.1644C52.6799 89.0449 52.7621 88.9253 52.8443 88.8028C52.8869 88.74 52.9295 88.6772 52.9721 88.613C53.0634 88.474 53.1548 88.3335 53.2446 88.1915C53.2765 88.1422 53.307 88.0944 53.3389 88.0451C53.4622 87.8493 53.5839 87.6521 53.7042 87.4503C53.7087 87.4413 53.7148 87.4324 53.7194 87.4249C53.8335 87.2351 53.9461 87.0408 54.0588 86.8451C54.0938 86.7823 54.1303 86.7195 54.1653 86.6553C54.2475 86.5103 54.3281 86.3654 54.4088 86.2174C54.4499 86.1412 54.4925 86.0635 54.5336 85.9873C54.6082 85.8498 54.6827 85.7108 54.7558 85.5703C54.7984 85.4881 54.841 85.406 54.8836 85.3223C54.9552 85.1818 55.0282 85.0398 55.0982 84.8978C55.1393 84.8142 55.1819 84.732 55.223 84.6468C55.2976 84.4958 55.3706 84.3419 55.4437 84.1895C55.4802 84.1118 55.5183 84.0356 55.5548 83.9579C55.643 83.7696 55.7313 83.5783 55.8181 83.387C55.8378 83.3422 55.8592 83.2988 55.8789 83.2525C55.987 83.0134 56.0935 82.7713 56.1985 82.5262C56.2244 82.4679 56.2488 82.4081 56.2731 82.3484C56.3522 82.1616 56.4314 81.9748 56.509 81.7865C56.5455 81.6968 56.582 81.6071 56.6186 81.516C56.684 81.3531 56.7495 81.1902 56.8149 81.0258C56.8545 80.9257 56.8925 80.8256 56.9321 80.7254C56.9945 80.5655 57.0554 80.4056 57.1162 80.2442C57.1558 80.1411 57.1938 80.0365 57.2319 79.9334C57.2928 79.769 57.3536 79.6016 57.413 79.4343C57.4495 79.3326 57.486 79.2325 57.5226 79.1309C57.588 78.9486 57.6504 78.7633 57.7143 78.578C57.7448 78.4898 57.7752 78.4031 57.8056 78.3149C57.8133 78.294 57.8193 78.2746 57.8269 78.2537H57.8315L58.0811 77.484C58.6046 75.8641 59.0886 74.1515 59.5223 72.3821H59.5269L59.7308 71.5109C59.7871 71.2688 59.8435 71.0252 59.8982 70.7801C59.9165 70.6964 59.9348 70.6112 59.953 70.5275C59.988 70.3661 60.0246 70.2047 60.0596 70.0418C60.0809 69.9402 60.1022 69.8371 60.1235 69.7355C60.1539 69.589 60.1844 69.4441 60.2148 69.2961C60.2376 69.1855 60.2589 69.075 60.2818 68.9629C60.3091 68.8239 60.3381 68.6834 60.3655 68.5444C60.3883 68.4294 60.4111 68.3128 60.4324 68.1962C60.4583 68.0602 60.4857 67.9228 60.51 67.7853C60.5329 67.6672 60.5542 67.5477 60.5755 67.4296C60.5998 67.2936 60.6257 67.1576 60.65 67.0201C60.6714 66.9006 60.6927 66.7795 60.714 66.66C60.7383 66.5225 60.7611 66.3865 60.7855 66.249C60.8053 66.1295 60.8251 66.0114 60.8464 65.8919C60.8585 65.8171 60.8722 65.7439 60.8844 65.6692C60.9483 65.6288 61.0123 65.5885 61.0762 65.5481C61.3958 65.3494 61.7138 65.1506 62.0304 64.9504C62.1141 64.8981 62.1978 64.8458 62.28 64.792C62.665 64.5469 63.0485 64.2988 63.429 64.0492C63.5173 63.9924 63.604 63.9342 63.6908 63.8774C64.0088 63.6682 64.3254 63.4574 64.6389 63.2467C64.7257 63.1884 64.8124 63.1302 64.8992 63.0719C65.2796 62.8148 65.6555 62.5578 66.0299 62.2978C66.0451 62.2873 66.0604 62.2769 66.0756 62.2664C66.0238 62.6594 65.9721 63.051 65.9158 63.4395C65.9066 63.4993 65.899 63.5591 65.8914 63.6188C65.8199 64.1105 65.7453 64.5977 65.6677 65.0834C65.6418 65.2403 65.616 65.3957 65.5901 65.5511C65.5353 65.8814 65.4805 66.2117 65.4227 66.5389C65.3907 66.7227 65.3572 66.9036 65.3238 67.0859C65.269 67.3848 65.2127 67.6837 65.1564 67.981C65.1198 68.1678 65.0833 68.3546 65.0468 68.5415C64.9874 68.8359 64.9281 69.1288 64.8657 69.4187C64.8276 69.598 64.7911 69.7758 64.7515 69.9537C64.683 70.266 64.613 70.5754 64.5415 70.8847C64.5065 71.0341 64.473 71.1866 64.438 71.3345C64.33 71.7888 64.2204 72.2401 64.1078 72.687C64.0439 72.935 63.9799 73.1831 63.9145 73.4282ZM84.5269 73.9647C81.9504 78.3493 74.6133 79.8034 64.3208 77.9966C64.333 77.9578 64.3452 77.9189 64.3589 77.8801C64.4745 77.5289 64.5902 77.1747 64.7013 76.8145C64.7013 76.8131 64.7013 76.8101 64.7028 76.8086C64.8155 76.4469 64.925 76.0808 65.0331 75.7132C65.0529 75.6459 65.0726 75.5802 65.0924 75.5129C65.1959 75.1572 65.2979 74.7971 65.3968 74.4354C65.4151 74.3667 65.4349 74.2979 65.4531 74.2292C65.4851 74.1096 65.5186 73.9901 65.5505 73.869C69.1483 74.5983 72.4568 74.9615 75.4093 74.9615C79.2444 74.9615 82.4708 74.3473 84.9409 73.1353C84.8206 73.4207 84.6837 73.6987 84.5284 73.9632L84.5269 73.9647ZM85.4948 70.8817C81.6688 73.5507 74.7762 74.0334 65.9614 72.2521C65.9873 72.146 66.0116 72.0384 66.036 71.9323C66.0603 71.8322 66.0847 71.7335 66.1091 71.6334C66.1349 71.5213 66.1593 71.4077 66.1851 71.2942C66.2445 71.0386 66.3023 70.7831 66.3586 70.526C66.386 70.4005 66.415 70.2765 66.4423 70.1509C66.4637 70.0508 66.485 69.9477 66.5063 69.8461C66.5595 69.5965 66.6113 69.3454 66.6615 69.0944C66.6919 68.9435 66.7239 68.7925 66.7543 68.6401C66.7711 68.5534 66.7878 68.4652 66.8046 68.3786C66.8533 68.132 66.8989 67.8824 66.9446 67.6343C66.978 67.458 67.0115 67.2832 67.0435 67.1053C67.0557 67.0336 67.0694 66.9619 67.0815 66.8901C67.1257 66.642 67.1668 66.3925 67.2094 66.1429C67.2429 65.9442 67.2779 65.7469 67.3098 65.5466C67.3189 65.4913 67.3281 65.4375 67.3372 65.3823C67.3783 65.1267 67.4164 64.8697 67.4559 64.6126C67.4879 64.4049 67.5198 64.1987 67.5503 63.991C67.5564 63.9461 67.564 63.9028 67.5701 63.8579C67.5822 63.7698 67.5944 63.6816 67.6066 63.5934C67.634 63.3962 67.6614 63.1989 67.6872 63.0016C67.7116 62.8238 67.7375 62.649 67.7603 62.4711C67.7679 62.4173 67.774 62.3635 67.7816 62.3097C67.806 62.1259 67.8273 61.9391 67.8501 61.7553C67.8836 61.4818 67.9186 61.2098 67.9505 60.9349C68.0099 60.8915 68.0692 60.8482 68.1286 60.8049C68.2443 60.7197 68.3599 60.636 68.4756 60.5508C68.5836 60.4716 68.6917 60.3909 68.7997 60.3117C68.9048 60.234 69.0098 60.1563 69.1133 60.0786C69.1406 60.0591 69.168 60.0382 69.1939 60.0188C69.2837 59.9515 69.3735 59.8843 69.4618 59.817C69.5683 59.7363 69.6763 59.6556 69.7829 59.5749C69.8955 59.4898 70.0066 59.4046 70.1177 59.3194C70.1923 59.2626 70.2684 59.2043 70.3429 59.1475C70.3551 59.1386 70.3673 59.1281 70.3795 59.1192C70.3947 59.1072 70.4114 59.0952 70.4266 59.0818C70.5408 58.9936 70.6534 58.9054 70.7675 58.8173C70.8665 58.7396 70.9654 58.6634 71.0643 58.5856C71.18 58.496 71.2941 58.4048 71.4083 58.3152C71.4189 58.3062 71.4311 58.2972 71.4417 58.2883C71.4767 58.2599 71.5133 58.2315 71.5483 58.2031C71.597 58.1642 71.6457 58.1254 71.6944 58.0865C71.81 57.9939 71.9257 57.9012 72.0398 57.81C72.1327 57.7353 72.2255 57.6606 72.3168 57.5859C72.4051 57.5141 72.4934 57.4409 72.5832 57.3692C72.6288 57.3318 72.6745 57.2945 72.7216 57.2571C72.7932 57.1988 72.8632 57.1405 72.9332 57.0838C73.0504 56.9866 73.166 56.891 73.2832 56.7938C73.37 56.7221 73.4567 56.6504 73.5419 56.5786C73.6013 56.5293 73.6591 56.48 73.7185 56.4307C73.7611 56.3948 73.8022 56.3605 73.8433 56.3246C73.86 56.3111 73.8752 56.2977 73.8905 56.2842C73.9742 56.2125 74.0579 56.1423 74.1416 56.0705C74.2587 55.9704 74.3744 55.8718 74.4901 55.7717C74.5723 55.7014 74.6544 55.6312 74.7351 55.5609C74.7671 55.534 74.7975 55.5071 74.8295 55.4787C74.8523 55.4578 74.8766 55.4384 74.8995 55.4175C74.9634 55.3622 75.0258 55.3069 75.0897 55.2516C75.1658 55.1843 75.2434 55.1171 75.318 55.0513C75.4397 54.9437 75.5584 54.8376 75.6787 54.73C75.7502 54.6658 75.8232 54.6015 75.8933 54.5373C75.8933 54.5373 75.8963 54.5358 75.8963 54.5343C75.8993 54.5313 75.9039 54.5268 75.9085 54.5238C76.0272 54.4162 76.1459 54.3086 76.2631 54.2025C76.3285 54.1427 76.3955 54.083 76.4594 54.0232C76.5933 53.9006 76.7242 53.7796 76.8566 53.6571L76.8718 53.6436C76.8916 53.6242 76.9129 53.6062 76.9342 53.5868C82.9137 60.1936 85.9331 66.2953 85.4918 70.8832L85.4948 70.8817ZM87.7305 68.516C87.5752 68.7806 87.3987 69.0346 87.2085 69.2782C86.9117 64.4916 83.7721 58.62 78.1578 52.4272C78.1989 52.3883 78.2385 52.3479 78.2796 52.3091C78.3922 52.1985 78.5063 52.0894 78.6174 51.9788C78.6859 51.9116 78.7544 51.8443 78.8229 51.7756C78.9279 51.6725 79.0314 51.5679 79.1349 51.4632C79.2033 51.3945 79.2703 51.3273 79.3373 51.2585C79.4438 51.1494 79.5503 51.0418 79.6569 50.9327C79.7177 50.87 79.7786 50.8087 79.838 50.7459C79.9749 50.604 80.1119 50.462 80.2474 50.32C80.2732 50.2916 80.3006 50.2647 80.328 50.2363C80.4863 50.0705 80.6415 49.9031 80.7968 49.7372C80.8546 49.6744 80.9124 49.6117 80.9703 49.5504C81.0418 49.4727 81.1148 49.395 81.1864 49.3173C87.9237 57.1645 90.3101 64.1314 87.7335 68.516H87.7305Z" fill="url(#paint0_linear_139_33)"/>
<path d="M131.138 51.4535H119.837L134.886 32.3685V31.7343L119.837 12.8223H131.138L141.978 26.6027H142.612L153.048 12.8223H164.349L149.358 31.9073V32.5415L164.349 51.4535H153.048L142.266 37.5002H141.632L131.138 51.4535Z" fill="black"/>
<path d="M175 51.4535H166.351V12.8223H186.532C195.469 12.8223 201.235 17.8962 201.235 26.7756C201.235 35.6551 195.469 40.7867 186.532 40.7867H175V51.4535ZM185.609 20.6062H175V33.0028H185.609C190.395 33.0028 192.644 31.619 192.644 26.7756C192.644 22.0476 190.395 20.6062 185.609 20.6062Z" fill="black"/>
<path d="M212.951 51.4535H204.302V12.8223H225.636C235.15 12.8223 240.57 17.0313 240.57 24.4116C240.57 30.6964 236.937 34.4442 229.672 35.1361V35.5974C233.132 36.52 234.458 38.365 235.899 41.075L241.492 51.4535H231.459L226.155 41.4209C224.598 38.4227 223.157 37.4425 218.659 37.4425H212.951V51.4535ZM212.951 20.6062V30.9271H225.578C229.672 30.9271 231.517 29.7739 231.517 25.7378C231.517 21.9323 229.672 20.6062 225.578 20.6062H212.951Z" fill="black"/>
<path d="M263.062 52.0542H256.835V13.4229H263.523L280.821 36.0251L285.837 43.2324H286.299L286.01 36.2557V13.4229H292.237V52.0542H285.549L268.136 29.5097L263.293 22.706H262.831L263.062 29.3943V52.0542Z" fill="black"/>
<path d="M312.41 52.6308C303.012 52.6308 296.842 47.3262 296.842 37.7548C296.842 28.8178 302.954 22.8213 312.295 22.8213C321.174 22.8213 327.228 27.7222 327.228 36.4287C327.228 37.4666 327.171 38.2738 326.998 39.1387H302.666C302.897 44.6739 305.606 47.6145 312.237 47.6145C318.234 47.6145 320.713 45.6541 320.713 42.2522V41.791H326.94V42.3099C326.94 48.4217 320.944 52.6308 312.41 52.6308ZM312.18 27.7222C305.837 27.7222 303.07 30.5475 302.724 35.6791H321.347V35.5638C321.347 30.2592 318.291 27.7222 312.18 27.7222Z" fill="black"/>
<path d="M350.689 52.0542H344.116C337.947 52.0542 334.141 49.3442 334.141 42.3675V28.5871H329.298V23.3979H334.141V17.1131H340.311V23.3979H350.689V28.5871H340.311V42.0216C340.311 45.5388 341.925 46.4613 345.5 46.4613H350.689V52.0542Z" fill="black"/>
<path d="M368.307 52.0542H360.581L351.99 23.3979H358.447L363.233 39.6576L364.559 47.0379H365.021L367.154 39.081L373.15 23.3979H381.107L387.161 39.081L389.295 47.0379H389.756L391.082 39.6576L395.868 23.3979H402.21L393.504 52.0542H385.778L379.493 35.5638L377.302 28.5295H376.841L374.65 35.5638L368.307 52.0542Z" fill="black"/>
<path d="M420.019 52.6308C410.505 52.6308 404.105 46.5766 404.105 37.7548C404.105 28.8178 410.505 22.8213 420.019 22.8213C429.59 22.8213 435.99 28.8178 435.99 37.7548C435.99 46.5766 429.59 52.6308 420.019 52.6308ZM420.019 47.0955C426.995 47.0955 429.878 43.809 429.878 37.7548C429.878 31.643 426.995 28.2988 420.019 28.2988C413.1 28.2988 410.217 31.643 410.217 37.7548C410.217 43.809 413.1 47.0955 420.019 47.0955Z" fill="black"/>
<path d="M446.736 52.0542H440.509V23.3979H446.217V31.1241H446.621C447.486 26.5114 450.599 22.8213 456.481 22.8213C462.996 22.8213 465.821 27.4916 465.821 32.9115V36.6593H459.652V34.1224C459.652 30.0286 457.922 28.1259 453.655 28.1259C448.754 28.1259 446.736 30.8358 446.736 35.9674V52.0542Z" fill="black"/>
<path d="M475.96 52.0542H469.733V13.4229H475.96V34.7566H484.147L492.738 23.3979H500.003L489.221 37.1783L499.946 52.0542H492.623L484.147 40.3495H475.96V52.0542Z" fill="black"/>
<path d="M128.95 83.5277C124.025 83.5277 120.75 80.1277 120.75 74.9027C120.75 69.6777 124.275 66.2777 129.625 66.2777C134.375 66.2777 137.675 68.6777 137.675 72.5527V72.7527H134.7V72.5527C134.7 70.1527 133.025 68.8527 129.55 68.8527C125.525 68.8527 123.6 70.7277 123.6 74.9027C123.6 79.0777 125.5 80.9277 129.425 80.9277C133.425 80.9277 135 79.8277 135 77.0027V76.7777H128.8V74.7277H137.675V83.2777H135.225V79.6527H135.05C134.35 82.1027 132.225 83.5277 128.95 83.5277ZM149.426 83.5277C144.176 83.5277 140.701 80.1277 140.701 74.9027C140.701 69.6777 144.176 66.2777 149.426 66.2777C154.726 66.2777 158.176 69.6777 158.176 74.9027C158.176 80.1277 154.726 83.5277 149.426 83.5277ZM149.426 80.9277C153.401 80.9277 155.326 79.0777 155.326 74.9027C155.326 70.7277 153.401 68.8527 149.426 68.8527C145.451 68.8527 143.551 70.7277 143.551 74.9027C143.551 79.0777 145.451 80.9277 149.426 80.9277ZM171.021 83.2777H167.196L160.046 66.5277H163.246L169.046 80.5527H169.246L174.996 66.5277H178.171L171.021 83.2777ZM193.966 83.2777H180.566V66.5277H193.966V68.9527H183.266V73.6527H193.591V76.0527H183.266V80.8527H193.966V83.2777ZM200.019 83.2777H197.319V66.5277H206.019C209.819 66.5277 212.169 68.3277 212.169 71.4527C212.169 74.2277 210.344 75.9277 207.194 76.1027V76.2777C208.494 76.6277 209.094 77.3777 209.694 78.4277L212.494 83.2777H209.394L206.719 78.6527C205.969 77.3277 205.194 76.7777 203.094 76.7777H200.019V83.2777ZM200.019 68.9527V74.7027H205.994C208.244 74.7027 209.369 73.9277 209.369 71.8277C209.369 69.7777 208.244 68.9527 205.994 68.9527H200.019ZM218.066 83.2777H215.366V66.5277H218.266L225.766 76.3277L227.941 79.4527H228.141L228.016 76.4277V66.5277H230.716V83.2777H227.816L220.266 73.5027L218.166 70.5527H217.966L218.066 73.4527V83.2777ZM236.213 83.2777H233.213L240.688 66.5277H244.488L251.963 83.2777H248.913L246.988 78.9277H238.138L236.213 83.2777ZM241.488 71.4027L239.213 76.5027H245.913L243.638 71.4027L242.663 69.0277H242.463L241.488 71.4027ZM257.163 83.2777H254.463V66.5277H257.363L264.863 76.3277L267.038 79.4527H267.238L267.113 76.4277V66.5277H269.813V83.2777H266.913L259.363 73.5027L257.263 70.5527H257.063L257.163 73.4527V83.2777ZM281.71 83.5277C276.51 83.5277 273.06 80.1277 273.06 74.9027C273.06 69.6777 276.51 66.2777 281.71 66.2777C286.435 66.2777 289.735 68.7777 289.735 72.7777V73.1277H286.76V72.7777C286.76 70.2277 285.135 68.8527 281.735 68.8527C277.81 68.8527 275.91 70.7277 275.91 74.9027C275.91 79.0777 277.81 80.9277 281.735 80.9277C285.135 80.9277 286.76 79.5777 286.76 77.0027V76.6777H289.735V77.0027C289.735 81.0277 286.46 83.5277 281.71 83.5277ZM306.374 83.2777H292.974V66.5277H306.374V68.9527H295.674V73.6527H305.999V76.0527H295.674V80.8527H306.374V83.2777Z" fill="#6A00D4"/>
<defs>
<linearGradient id="paint0_linear_139_33" x1="11.7456" y1="96.1" x2="89.6933" y2="4.2054e-06" gradientUnits="userSpaceOnUse">
<stop stop-color="#6A00D4"/>
<stop offset="1" stop-color="#001FFF"/>
</linearGradient>
</defs>
</svg>
