<svg width="128" height="128" viewBox="0 0 128 128" fill="none" xmlns="http://www.w3.org/2000/svg">
<path d="M113.63 63.998C118.239 58.6755 121.434 53.6077 123.121 48.9241C125.012 43.6752 124.906 39.2026 122.806 35.6296C122.091 34.4135 121.148 33.3286 120.001 32.3971V32.3832L119.987 32.3752C119.737 30.9341 119.253 29.5905 118.539 28.3723C116.439 24.7994 112.547 22.4726 106.971 21.4574C101.996 20.5517 95.9294 20.7329 88.93 21.9928C86.5401 15.4103 83.6677 10.1594 80.3798 6.38149C76.6966 2.14574 72.6992 0 68.4971 0C67.0701 0 65.643 0.260753 64.2463 0.768326L64.2322 0.762355L64.218 0.768326C62.8193 0.260753 61.3902 0 59.9652 0C55.7631 0 51.7657 2.14574 48.0825 6.3795C44.7946 10.1574 41.9222 15.4083 39.5323 21.9909C32.5308 20.7309 26.4638 20.5497 21.4914 21.4554C15.9149 22.4706 12.023 24.7974 9.92292 28.3704C9.20534 29.5905 8.72087 30.9421 8.47357 32.3871C7.32219 33.3207 6.37555 34.4075 5.65797 35.6296C3.55793 39.2026 3.45252 43.6752 5.34377 48.9241C7.0303 53.6077 10.225 58.6755 14.8345 63.998C10.225 69.3206 7.0303 74.3903 5.34377 79.0739C3.45252 84.3228 3.55793 88.7974 5.65797 92.3704C6.37353 93.5845 7.31611 94.6694 8.46343 95.6029V95.6188L8.47762 95.6268C8.72695 97.0679 9.21142 98.4115 9.92495 99.6277C12.025 103.201 15.917 105.527 21.4934 106.545C23.5732 106.923 25.8435 107.114 28.2922 107.114C31.7018 107.114 35.462 106.742 39.5344 106.009C41.9243 112.592 44.7966 117.843 48.0845 121.621C51.7697 125.854 55.7671 128 59.9672 128C61.3943 128 62.8213 127.739 64.22 127.232L64.2342 127.238L64.2484 127.232C65.645 127.739 67.0741 128 68.4991 128C72.7013 128 76.6986 125.854 80.3818 121.621C83.6697 117.845 86.5421 112.592 88.932 106.009C93.0044 106.742 96.7646 107.114 100.174 107.114C102.623 107.114 104.893 106.925 106.973 106.545C112.549 105.527 116.441 103.201 118.541 99.6296C119.259 98.4115 119.743 97.0619 119.993 95.6148C121.144 94.6793 122.091 93.5925 122.808 92.3743C124.908 88.8014 125.014 84.3268 123.123 79.0779C121.436 74.3943 118.241 69.3245 113.632 64.002L113.63 63.998ZM120.159 35.7252C120.412 36.0496 120.641 36.388 120.848 36.7383C124.385 42.7576 120.901 52.4273 111.291 63.2695C109.606 65.1704 107.741 67.0932 105.749 68.9842C105.027 69.6689 104.289 70.3516 103.531 71.0324C103.026 71.4862 102.513 71.938 101.994 72.3879C101.735 72.6128 101.473 72.8377 101.208 73.0627C98.5707 75.3079 95.747 77.5174 92.7692 79.6631L92.7449 79.681C92.3841 79.9418 92.0192 80.2005 91.6523 80.4593C91.0766 80.8654 90.4928 81.2694 89.907 81.6715C89.4002 82.0178 88.8915 82.3642 88.3766 82.7066C87.9347 83.0012 87.4887 83.2957 87.0407 83.5883C85.863 84.3567 84.667 85.1131 83.4589 85.8535C82.4028 86.5004 81.3285 87.1414 80.2521 87.7664C79.7413 88.0629 79.2325 88.3575 78.7217 88.6462C77.1142 89.5578 75.4885 90.4416 73.8871 91.2796C73.4675 91.4985 73.0479 91.7155 72.6263 91.9305C69.6809 93.4353 66.7092 94.8346 63.774 96.1025C63.1761 96.3613 62.5801 96.6121 61.9862 96.8589C61.9375 96.8788 61.8889 96.8987 61.8422 96.9186C61.2726 97.1535 60.7051 97.3844 60.1395 97.6113C60.0665 97.6412 59.9936 97.669 59.9206 97.6989C59.3692 97.9178 58.8179 98.1328 58.2665 98.3418C58.1814 98.3736 58.0982 98.4055 58.0131 98.4373C57.4678 98.6444 56.9246 98.8454 56.3833 99.0424C56.2982 99.0743 56.2131 99.1042 56.1279 99.136C55.5847 99.3331 55.0414 99.5261 54.5002 99.7132C54.4232 99.7391 54.3461 99.767 54.2671 99.7929C53.7178 99.982 53.1684 100.167 52.6211 100.346C52.5623 100.366 52.5035 100.384 52.4448 100.404C51.8792 100.589 51.3136 100.77 50.7501 100.943C50.7278 100.949 50.7055 100.957 50.6853 100.963C50.1258 101.136 49.5704 101.304 49.017 101.465C48.9845 101.475 48.9541 101.483 48.9217 101.493C48.9055 101.437 48.8872 101.381 48.871 101.328C48.7656 100.983 48.6602 100.635 48.5568 100.285C48.5224 100.167 48.4879 100.052 48.4535 99.9342C48.3339 99.5241 48.2163 99.1101 48.1007 98.6941C48.0866 98.6444 48.0744 98.5946 48.0602 98.5448C47.9568 98.1646 47.8534 97.7825 47.7541 97.3963C47.7237 97.2809 47.6933 97.1634 47.6629 97.048C47.5514 96.6161 47.4419 96.1821 47.3365 95.7462C47.3406 95.7462 47.3467 95.7422 47.3528 95.7422C47.8757 95.579 48.4028 95.4098 48.9318 95.2366C49.0109 95.2108 49.09 95.1849 49.169 95.159C49.6758 94.9918 50.1866 94.8186 50.6994 94.6435C50.8028 94.6077 50.9062 94.5718 51.0096 94.536C51.5204 94.3588 52.0353 94.1777 52.5502 93.9906C52.6373 93.9588 52.7225 93.9269 52.8096 93.8971C53.1927 93.7577 53.5759 93.6164 53.959 93.4731H53.961L54.4414 93.2919C57.6746 92.0678 60.9625 90.6784 64.22 89.1617H64.222L64.7085 88.9348C68.3491 87.225 72.006 85.332 75.5756 83.3077C78.4642 81.6695 81.296 79.9458 84.0224 78.1683V78.1941L85.9704 76.8804L86.4164 76.5799V76.5759C87.0509 76.1459 87.6793 75.714 88.3016 75.2761C89.9192 74.1415 91.4962 72.985 93.0246 71.8186V71.8485L94.9483 70.3218C94.9483 70.3218 94.9524 70.3198 94.9544 70.3178L95.3497 70.0033C95.4997 69.8819 95.6497 69.7624 95.7977 69.643C96.2842 69.2509 96.7646 68.8568 97.241 68.4607C98.6944 67.2524 100.101 66.0303 101.441 64.8061C101.441 64.8061 101.443 64.8061 101.445 64.8042L102.333 63.994L102.329 63.99C102.388 63.9343 102.448 63.8786 102.507 63.8228C103.174 63.1978 103.829 62.5688 104.465 61.9418C104.484 61.9239 104.502 61.906 104.52 61.8881C105.509 60.9108 106.458 59.9334 107.362 58.9601L108.1 58.1639L108.096 58.1599C108.13 58.1221 108.165 58.0843 108.199 58.0485C108.201 58.0465 108.203 58.0425 108.205 58.0405C108.238 58.0047 108.27 57.9668 108.303 57.931C108.307 57.927 108.311 57.9231 108.315 57.9171C108.552 57.6543 108.787 57.3916 109.016 57.1289C109.034 57.107 109.053 57.0871 109.071 57.0652C112.675 52.9508 115.456 48.946 117.349 45.1402C119.042 41.7384 119.979 38.5835 120.153 35.7212L120.159 35.7252ZM77.1365 92.0738C77.177 92.0519 77.2176 92.03 77.2561 92.0081C77.5439 91.8508 77.8338 91.6916 78.1216 91.5343C78.2676 91.4547 78.4135 91.3751 78.5575 91.2935C78.9892 91.0546 79.419 90.8138 79.8487 90.569C80.2764 90.3261 80.7021 90.0813 81.1298 89.8345C81.2656 89.7549 81.4014 89.6752 81.5372 89.5956C81.8271 89.4264 82.117 89.2572 82.4069 89.0861C82.4474 89.0622 82.49 89.0383 82.5305 89.0124C82.5183 89.0821 82.5042 89.1537 82.492 89.2234C82.4292 89.5697 82.3643 89.9161 82.2994 90.2585C82.2873 90.3182 82.2771 90.3759 82.265 90.4356C82.2447 90.5391 82.2244 90.6406 82.2042 90.7441C82.1413 91.0626 82.0785 91.3791 82.0156 91.6936C81.9873 91.8369 81.9568 91.9802 81.9285 92.1215C81.8616 92.448 81.7906 92.7724 81.7217 93.0969C81.7116 93.1407 81.7035 93.1865 81.6933 93.2302C81.6731 93.3198 81.6548 93.4094 81.6345 93.499C81.6285 93.5248 81.6224 93.5507 81.6163 93.5766C80.1467 93.1168 78.6487 92.6132 77.1324 92.0718L77.1365 92.0738ZM81.1156 95.7482C81.0974 95.8238 81.0791 95.8995 81.0589 95.9751C81.0041 96.202 80.9474 96.427 80.8906 96.6519C80.8643 96.7574 80.8359 96.8629 80.8095 96.9684C80.7548 97.1774 80.7021 97.3864 80.6474 97.5954C80.619 97.7048 80.5906 97.8123 80.5602 97.9218C80.5055 98.1308 80.4487 98.3378 80.392 98.5448C80.3636 98.6463 80.3372 98.7479 80.3088 98.8494C80.246 99.0723 80.1852 99.2933 80.1203 99.5162C80.096 99.5978 80.0737 99.6814 80.0494 99.763C79.8811 100.348 79.7088 100.925 79.5304 101.497C75.4702 100.314 71.2823 98.8374 67.0356 97.0938C67.0619 97.0818 67.0903 97.0679 67.1167 97.056C67.6903 96.7952 68.264 96.5305 68.8397 96.2617C68.9796 96.1961 69.1194 96.1304 69.2573 96.0647C69.7843 95.8159 70.3113 95.5651 70.8384 95.3083C70.9073 95.2745 70.9742 95.2426 71.0431 95.2108C71.6188 94.9301 72.1945 94.6435 72.7702 94.3549C72.9141 94.2832 73.056 94.2096 73.1999 94.1379C73.6317 93.9189 74.0614 93.7 74.4912 93.4771C76.7331 94.3151 78.9548 95.0794 81.1136 95.7522L81.1156 95.7482ZM74.4932 34.5229C74.0614 34.298 73.6276 34.0771 73.1938 33.8561C73.054 33.7865 72.9161 33.7148 72.7763 33.6451C72.1965 33.3525 71.6168 33.0639 71.035 32.7813C70.9762 32.7534 70.9174 32.7255 70.8586 32.6957C70.5972 32.5683 70.3336 32.4409 70.0721 32.3155C69.7965 32.1841 69.5208 32.0527 69.2451 31.9234C69.1133 31.8617 68.9796 31.798 68.8478 31.7363C68.2681 31.4636 67.6883 31.1968 67.1086 30.9341C67.0842 30.9241 67.0619 30.9122 67.0376 30.9022C71.2762 29.1606 75.4642 27.6856 79.5325 26.4993C79.6176 26.774 79.7007 27.0487 79.7838 27.3273C79.794 27.3612 79.8041 27.395 79.8142 27.4269C79.8933 27.6896 79.9703 27.9543 80.0473 28.2191C80.0778 28.3246 80.1082 28.4301 80.1365 28.5356C80.1933 28.7306 80.248 28.9277 80.3028 29.1247C80.3372 29.2462 80.3697 29.3696 80.4041 29.491C80.4548 29.6761 80.5055 29.8612 80.5541 30.0463C80.5886 30.1737 80.621 30.2991 80.6555 30.4265C80.7041 30.6136 80.7528 30.8007 80.8014 30.9878C80.8339 31.1132 80.8663 31.2366 80.8967 31.362C80.9474 31.5651 80.998 31.7701 81.0487 31.9751C81.071 32.0647 81.0933 32.1543 81.1156 32.2438C78.9345 32.9226 76.7128 33.6869 74.4932 34.519V34.5229ZM81.6204 34.4194C81.6264 34.4453 81.6325 34.4712 81.6386 34.4971C81.6548 34.5707 81.671 34.6444 81.6872 34.716C81.7035 34.7877 81.7177 34.8593 81.7339 34.931C81.8008 35.2395 81.8677 35.55 81.9325 35.8625C81.9629 36.0118 81.9954 36.1611 82.0258 36.3124C82.0886 36.6229 82.1514 36.9354 82.2123 37.2479C82.2346 37.3594 82.2569 37.4708 82.2771 37.5823C82.2852 37.6261 82.2933 37.6699 82.3035 37.7157C82.3724 38.0759 82.4393 38.4362 82.5062 38.7985C82.5183 38.8602 82.5285 38.9219 82.5406 38.9836C82.5001 38.9597 82.4616 38.9378 82.4211 38.9139C82.1312 38.7428 81.8413 38.5736 81.5514 38.4044C81.4136 38.3228 81.2737 38.2412 81.1359 38.1615C80.771 37.9505 80.4082 37.7415 80.0433 37.5345C79.9825 37.4987 79.9196 37.4629 79.8588 37.429C79.4291 37.1862 78.9994 36.9454 78.5676 36.7045C78.4156 36.6209 78.2635 36.5373 78.1095 36.4537C77.8318 36.3004 77.5541 36.1472 77.2763 35.9959C77.2318 35.972 77.1872 35.9461 77.1426 35.9222C78.6466 35.3848 80.1467 34.8832 81.6264 34.4194H81.6204ZM73.8891 36.7184C74.3939 36.9832 74.9006 37.2519 75.4094 37.5246C76.5162 38.1177 77.625 38.7288 78.7237 39.3518C79.1027 39.5668 79.4818 39.7838 79.8609 40.0027C79.9906 40.0764 80.1183 40.154 80.248 40.2277C80.4994 40.373 80.7487 40.5203 81.0001 40.6676C81.1481 40.7551 81.296 40.8427 81.444 40.9303C81.6731 41.0676 81.9041 41.203 82.1332 41.3403C82.2893 41.4339 82.4454 41.5274 82.6015 41.623C82.7413 41.7086 82.8832 41.7942 83.0231 41.8778C83.0352 41.9554 83.0474 42.035 83.0596 42.1126C83.1386 42.6202 83.2136 43.1318 83.2866 43.6473C83.2988 43.7269 83.3089 43.8065 83.3211 43.8862C83.4021 44.4674 83.4792 45.0526 83.5542 45.6398C83.5704 45.7751 83.5866 45.9105 83.6049 46.0458C83.6677 46.5574 83.7285 47.0729 83.7853 47.5885C83.7954 47.684 83.8076 47.7815 83.8177 47.8771C83.8826 48.4703 83.9434 49.0654 84.0022 49.6625C84.0062 49.7123 84.0123 49.7621 84.0164 49.8118C83.9576 49.772 83.8968 49.7342 83.8359 49.6964C83.242 49.3102 82.644 48.9261 82.04 48.5459C81.9467 48.4882 81.8535 48.4284 81.7602 48.3707C81.2028 48.0204 80.6413 47.6741 80.0778 47.3297C79.9723 47.264 79.8669 47.2003 79.7595 47.1346C79.1473 46.7624 78.5311 46.3942 77.9108 46.0299C77.777 45.9523 77.6453 45.8747 77.5115 45.795C77.3169 45.6816 77.1243 45.5661 76.9277 45.4527C76.4838 45.1939 76.0358 44.9391 75.5898 44.6844C75.1439 44.4316 74.6959 44.1808 74.2479 43.932C73.4249 43.4761 72.5999 43.0283 71.7708 42.5884C70.3377 41.826 68.8964 41.0856 67.4552 40.375C67.4329 40.363 67.4106 40.3531 67.3863 40.3411C66.6971 40.0007 66.0079 39.6683 65.3187 39.3419C65.12 39.2483 64.9214 39.1528 64.7227 39.0592L64.2362 38.8303H64.2342C63.543 38.5099 62.8497 38.1914 62.1564 37.8809C61.7267 37.6898 61.299 37.5007 60.8693 37.3136C58.7246 36.3801 56.5779 35.5062 54.4556 34.7021C54.4495 34.7021 54.4455 34.6981 54.4394 34.6961L53.9732 34.519H53.9711C53.584 34.3756 53.1968 34.2323 52.8096 34.093C52.7346 34.0651 52.6596 34.0373 52.5846 34.0114C52.0616 33.8223 51.5387 33.6372 51.0177 33.456C50.9265 33.4242 50.8353 33.3923 50.744 33.3625C50.2231 33.1833 49.7021 33.0082 49.1852 32.837C49.1122 32.8131 49.0393 32.7892 48.9663 32.7653C48.7595 32.6977 48.5508 32.628 48.344 32.5623C48.0176 32.4568 47.6913 32.3553 47.3669 32.2538C47.3609 32.2538 47.3548 32.2498 47.3507 32.2478C47.4582 31.8039 47.5697 31.364 47.6832 30.9281C47.7115 30.8206 47.7379 30.7151 47.7663 30.6077C47.8717 30.2036 47.9791 29.8035 48.0866 29.4054C48.0967 29.3716 48.1048 29.3377 48.1149 29.3019C48.2325 28.8759 48.3521 28.4559 48.4737 28.036C48.5041 27.9324 48.5345 27.827 48.5649 27.7234C48.6724 27.3552 48.7839 26.9909 48.8954 26.6287C48.9095 26.5869 48.9217 26.5431 48.9339 26.4993C48.9582 26.5073 48.9825 26.5132 49.0068 26.5212C49.5724 26.6864 50.142 26.8576 50.7116 27.0347C50.7258 27.0387 50.74 27.0427 50.7542 27.0467C51.3197 27.2218 51.8873 27.403 52.4589 27.5901C52.5137 27.608 52.5704 27.6259 52.6252 27.6438C53.1725 27.823 53.7218 28.0101 54.2732 28.1992C54.3502 28.225 54.4272 28.2509 54.5022 28.2788C55.0435 28.4659 55.5867 28.659 56.13 28.856C56.2151 28.8859 56.3002 28.9177 56.3854 28.9476C56.9286 29.1446 57.4719 29.3477 58.0172 29.5547C58.1003 29.5865 58.1834 29.6184 58.2685 29.6502C58.8199 29.8612 59.3712 30.0762 59.9246 30.2951C59.9976 30.323 60.0686 30.3529 60.1415 30.3827C60.7091 30.6096 61.2787 30.8405 61.8504 31.0774C61.897 31.0973 61.9416 31.1152 61.9882 31.1351C62.5862 31.3839 63.1842 31.6367 63.7842 31.8955C67.1309 33.3366 70.5323 34.9589 73.8952 36.7164L73.8891 36.7184ZM48.4372 34.935C48.4758 34.9469 48.5143 34.9608 48.5528 34.9728C49.0535 35.138 49.5582 35.3092 50.0629 35.4843C50.1562 35.5162 50.2494 35.548 50.3427 35.5819C50.669 35.6953 50.9954 35.8128 51.3218 35.9282C50.4157 36.4199 49.5075 36.9215 48.6075 37.431C47.7014 37.9446 46.8075 38.4641 45.9277 38.9856C45.9885 38.6492 46.0473 38.3128 46.1122 37.9784C46.1304 37.8869 46.1466 37.7953 46.1649 37.7017C46.2642 37.1842 46.3656 36.6707 46.469 36.1611C46.4791 36.1153 46.4872 36.0715 46.4973 36.0258C46.5987 35.5381 46.7021 35.0544 46.8075 34.5747C46.8196 34.5229 46.8298 34.4732 46.8419 34.4214C46.8784 34.4334 46.9149 34.4453 46.9514 34.4553C47.446 34.6105 47.9406 34.7698 48.4393 34.933L48.4372 34.935ZM49.7386 39.3518C51.19 38.5298 52.6596 37.7256 54.1151 36.9593C54.2549 37.013 54.3948 37.0668 54.5347 37.1205C54.7191 37.1922 54.9056 37.2638 55.0901 37.3375C55.3171 37.4271 55.5441 37.5166 55.7732 37.6082C55.9556 37.6818 56.1381 37.7535 56.3225 37.8271C56.5536 37.9207 56.7867 38.0162 57.0178 38.1098C57.1982 38.1834 57.3766 38.2571 57.557 38.3307C57.7942 38.4283 58.0314 38.5278 58.2685 38.6293C58.4428 38.703 58.6192 38.7766 58.7935 38.8502C59.0368 38.9537 59.28 39.0592 59.5233 39.1647C59.6935 39.2384 59.8618 39.31 60.0321 39.3837C60.2855 39.4932 60.5368 39.6066 60.7902 39.7181C60.9503 39.7898 61.1105 39.8594 61.2706 39.9311C61.3841 39.9808 61.4976 40.0346 61.6112 40.0843C58.678 41.5155 55.7489 43.0581 52.8745 44.6883C49.9981 46.3185 47.1744 48.0383 44.448 49.8158C44.4601 49.6984 44.4703 49.579 44.4804 49.4615C44.4986 49.2664 44.5209 49.0734 44.5392 48.8803C44.5635 48.6335 44.5899 48.3847 44.6162 48.1378C44.6385 47.9348 44.6608 47.7338 44.6831 47.5327C44.7095 47.2959 44.7358 47.059 44.7642 46.8221C44.7885 46.6171 44.8128 46.4121 44.8392 46.2071C44.8676 45.9742 44.8959 45.7413 44.9264 45.5084C44.9527 45.3074 44.9791 45.1043 45.0054 44.9033C45.0358 44.6684 45.0682 44.4336 45.0987 44.2007C45.125 44.0036 45.1534 43.8085 45.1818 43.6115C45.2162 43.3726 45.2487 43.1358 45.2851 42.8989C45.3135 42.7118 45.3419 42.5247 45.3703 42.3376C45.3926 42.1843 45.4169 42.033 45.4412 41.8818C46.8277 41.0358 48.271 40.1879 49.7386 39.3558V39.3518ZM54.0056 46.6091C57.3665 44.7043 60.8024 42.9168 64.2281 41.2926C64.3801 41.3642 64.5322 41.4379 64.6862 41.5095C64.8889 41.6071 65.0916 41.7046 65.2964 41.8021C65.5356 41.9176 65.7748 42.035 66.016 42.1525C66.2146 42.25 66.4133 42.3475 66.6119 42.4451C66.8572 42.5665 67.1025 42.6899 67.3478 42.8113C67.5403 42.9088 67.7349 43.0044 67.9275 43.1019C68.1789 43.2293 68.4282 43.3587 68.6795 43.4861C68.8681 43.5816 69.0546 43.6792 69.2431 43.7747C69.5005 43.9081 69.7559 44.0434 70.0134 44.1788C70.1938 44.2743 70.3742 44.3679 70.5546 44.4634C70.8222 44.6047 71.0877 44.748 71.3553 44.8934C71.5235 44.9849 71.6938 45.0745 71.862 45.166C72.158 45.3273 72.4539 45.4905 72.7499 45.6517C72.8877 45.7274 73.0256 45.803 73.1634 45.8786C73.5972 46.1195 74.029 46.3603 74.4587 46.6052C74.8905 46.85 75.3223 47.0968 75.752 47.3476C75.8797 47.4213 76.0054 47.4969 76.1311 47.5706C76.4331 47.7457 76.7351 47.9229 77.0331 48.1C77.1912 48.1936 77.3493 48.2891 77.5095 48.3847C77.775 48.5439 78.0406 48.7011 78.3061 48.8624C78.4804 48.9679 78.6548 49.0754 78.8311 49.1828C79.0764 49.3321 79.3217 49.4814 79.5669 49.6327C79.7534 49.7481 79.9379 49.8636 80.1244 49.979C80.3555 50.1224 80.5866 50.2657 80.8156 50.411C81.0082 50.5324 81.2008 50.6558 81.3933 50.7772C81.6122 50.9166 81.8312 51.0559 82.0501 51.1972C82.2487 51.3246 82.4454 51.454 82.644 51.5814C82.8528 51.7167 83.0616 51.8521 83.2704 51.9894C83.4731 52.1228 83.6738 52.2562 83.8745 52.3895C84.0042 52.4751 84.1339 52.5627 84.2637 52.6483C84.2758 52.8015 84.286 52.9548 84.2981 53.1061C84.3143 53.343 84.3326 53.5818 84.3488 53.8207C84.365 54.0615 84.3812 54.3044 84.3954 54.5472C84.4096 54.7821 84.4258 55.0189 84.438 55.2558C84.4522 55.5026 84.4643 55.7514 84.4785 56.0002C84.4907 56.2331 84.5028 56.466 84.515 56.6989C84.5272 56.9537 84.5373 57.2105 84.5495 57.4652C84.5596 57.6922 84.5697 57.9191 84.5778 58.148C84.588 58.4147 84.5961 58.6834 84.6062 58.9521C84.6143 59.1691 84.6204 59.3861 84.6285 59.603C84.6366 59.8877 84.6427 60.1723 84.6488 60.4569C84.6529 60.66 84.6589 60.861 84.663 61.064C84.6691 61.3865 84.6731 61.7109 84.6772 62.0354C84.6792 62.2006 84.6833 62.3638 84.6833 62.529C84.6873 63.0187 84.6914 63.5083 84.6914 64C84.6914 64.4916 84.6893 64.9813 84.6833 65.471C84.6833 65.6362 84.6792 65.8014 84.6772 65.9666C84.6731 66.2891 84.6691 66.6135 84.663 66.936C84.6589 67.139 84.6529 67.342 84.6488 67.545C84.6427 67.8297 84.6366 68.1143 84.6285 68.399C84.6224 68.6179 84.6143 68.8349 84.6062 69.0518C84.5981 69.3186 84.588 69.5873 84.5778 69.854C84.5697 70.0829 84.5596 70.3098 84.5495 70.5367C84.5393 70.7915 84.5272 71.0483 84.515 71.3031C84.5049 71.536 84.4907 71.7689 84.4785 72.0017C84.4664 72.2506 84.4522 72.4994 84.438 72.7462C84.4238 72.9811 84.4096 73.2159 84.3954 73.4508C84.3792 73.6937 84.365 73.9385 84.3488 74.1813C84.3326 74.4182 84.3164 74.6551 84.2981 74.8899C84.288 75.0432 84.2758 75.1985 84.2637 75.3517C84.1258 75.4433 83.9859 75.5368 83.8481 75.6284C83.6596 75.7538 83.4731 75.8772 83.2846 76.0026C83.0657 76.1459 82.8467 76.2892 82.6278 76.4306C82.4393 76.554 82.2508 76.6754 82.0623 76.7968C81.8393 76.9401 81.6143 77.0834 81.3893 77.2268C81.2008 77.3462 81.0122 77.4676 80.8237 77.585C80.5947 77.7303 80.3636 77.8737 80.1345 78.017C79.948 78.1324 79.7615 78.2499 79.573 78.3653C79.3358 78.5106 79.0987 78.6559 78.8595 78.8012C78.6771 78.9127 78.4946 79.0242 78.3101 79.1356C78.0608 79.2869 77.8074 79.4362 77.5561 79.5875C77.3838 79.691 77.2115 79.7945 77.0372 79.896C76.7534 80.0632 76.4696 80.2284 76.1858 80.3956C76.0419 80.4792 75.9 80.5648 75.756 80.6464C75.3263 80.8952 74.8966 81.142 74.4648 81.3869C74.033 81.6317 73.6013 81.8745 73.1675 82.1134C73.0357 82.187 72.904 82.2587 72.7702 82.3304C72.4681 82.4956 72.1661 82.6628 71.8641 82.826C71.7019 82.9136 71.5397 83.0011 71.3755 83.0887C71.1019 83.236 70.8303 83.3833 70.5566 83.5286C70.3782 83.6242 70.1998 83.7157 70.0215 83.8113C69.764 83.9466 69.5066 84.082 69.2492 84.2153C69.0586 84.3149 68.8681 84.4124 68.6775 84.5099C68.4302 84.6373 68.1849 84.7627 67.9376 84.8881C67.739 84.9896 67.5403 85.0892 67.3397 85.1887C67.1957 85.2603 67.0518 85.332 66.9079 85.4037C66.8126 85.4514 66.7173 85.4992 66.6241 85.545C66.4214 85.6465 66.2167 85.744 66.014 85.8455C65.7788 85.961 65.5416 86.0764 65.3065 86.1899C65.1018 86.2894 64.8991 86.385 64.6943 86.4825C64.5423 86.5562 64.3903 86.6278 64.2362 86.6995C60.8105 85.0752 57.3726 83.2878 54.0137 81.3829C50.6488 79.476 47.3568 77.4457 44.2169 75.3477C44.2047 75.1766 44.1905 75.0054 44.1784 74.8362C44.1621 74.6252 44.148 74.4122 44.1338 74.1992C44.1155 73.9305 44.0993 73.6618 44.0831 73.3931C44.0709 73.1821 44.0567 72.9711 44.0446 72.7601C44.0284 72.4874 44.0142 72.2147 44 71.942C43.9898 71.733 43.9777 71.522 43.9675 71.313C43.9534 71.0364 43.9432 70.7577 43.9311 70.479C43.923 70.272 43.9128 70.065 43.9047 69.858C43.8946 69.5714 43.8844 69.2867 43.8743 69.0001C43.8682 68.7991 43.8601 68.6 43.854 68.399C43.8459 68.1004 43.8398 67.7998 43.8317 67.5013C43.8277 67.3122 43.8216 67.1231 43.8175 66.934C43.8115 66.6035 43.8074 66.2751 43.8034 65.9447C43.8034 65.7855 43.7973 65.6262 43.7973 65.465C43.7932 64.9753 43.7892 64.4857 43.7892 63.994C43.7892 63.5024 43.7912 63.0127 43.7973 62.5231C43.7973 62.3638 43.8013 62.2046 43.8034 62.0453C43.8074 61.7149 43.8115 61.3845 43.8175 61.0541C43.8216 60.867 43.8257 60.6779 43.8297 60.4908C43.8358 60.1902 43.8439 59.8877 43.852 59.5871C43.8581 59.39 43.8642 59.193 43.8723 58.9959C43.8824 58.7053 43.8905 58.4147 43.9027 58.1261C43.9108 57.9231 43.9189 57.722 43.929 57.519C43.9412 57.2363 43.9534 56.9517 43.9675 56.6691C43.9777 56.466 43.9878 56.263 44 56.058C44.0142 55.7773 44.0284 55.4967 44.0446 55.218C44.0567 55.015 44.0689 54.8119 44.0811 54.6089C44.0993 54.3302 44.1155 54.0536 44.1338 53.7769C44.148 53.5739 44.1621 53.3728 44.1763 53.1698C44.1885 52.9926 44.2027 52.8155 44.2169 52.6383C47.3588 50.5384 50.6508 48.5101 54.0137 46.6032L54.0056 46.6091ZM52.8765 83.3117C55.7509 84.9419 58.68 86.4845 61.6132 87.9156C61.4997 87.9674 61.3841 88.0192 61.2706 88.0709C61.1166 88.1386 60.9645 88.2063 60.8105 88.2739C60.551 88.3894 60.2915 88.5048 60.0341 88.6163C59.8659 88.69 59.6996 88.7616 59.5314 88.8333C59.2861 88.9388 59.0408 89.0443 58.7956 89.1498C58.6192 89.2234 58.4449 89.297 58.2685 89.3707C58.0314 89.4702 57.7962 89.5697 57.559 89.6673C57.3786 89.7429 57.1962 89.8166 57.0158 89.8902C56.7847 89.9838 56.5556 90.0793 56.3246 90.1709C56.1401 90.2445 55.9556 90.3182 55.7712 90.3918C55.5462 90.4814 55.3191 90.571 55.0941 90.6605C54.9056 90.7342 54.7171 90.8078 54.5306 90.8795C54.3928 90.9332 54.2549 90.985 54.1171 91.0387C52.6637 90.2744 51.194 89.4702 49.7406 88.6462C48.273 87.8141 46.8298 86.9662 45.4433 86.1202C45.421 85.9769 45.3987 85.8316 45.3764 85.6863C45.346 85.4873 45.3155 85.2902 45.2872 85.0892C45.2527 84.8603 45.2203 84.6314 45.1878 84.4024C45.1595 84.1994 45.1291 83.9944 45.1027 83.7914C45.0723 83.5645 45.0419 83.3355 45.0115 83.1066C44.9851 82.8996 44.9568 82.6946 44.9304 82.4876C44.902 82.2587 44.8736 82.0278 44.8453 81.7989C44.8209 81.5919 44.7946 81.3849 44.7703 81.1759C44.7419 80.943 44.7176 80.7081 44.6912 80.4732C44.6689 80.2682 44.6446 80.0632 44.6223 79.8582C44.5959 79.6133 44.5716 79.3685 44.5473 79.1237C44.527 78.9286 44.5067 78.7316 44.4865 78.5365C44.4743 78.4191 44.4642 78.2996 44.454 78.1822C47.1784 79.9577 50.0042 81.6775 52.8806 83.3097L52.8765 83.3117ZM48.6095 90.571C49.5096 91.0805 50.4177 91.5821 51.3218 92.0738C50.9913 92.1912 50.663 92.3106 50.3346 92.4241C50.2373 92.4579 50.142 92.4898 50.0447 92.5236C49.544 92.6968 49.0433 92.866 48.5467 93.0292C48.5041 93.0431 48.4595 93.0571 48.417 93.071C47.9345 93.2302 47.4561 93.3835 46.9818 93.5328C46.9352 93.5467 46.8886 93.5627 46.8419 93.5766C46.8298 93.5248 46.8196 93.4751 46.8075 93.4233C46.7021 92.9476 46.6007 92.4679 46.4994 91.9842C46.4892 91.9344 46.4791 91.8847 46.4669 91.8329C46.3635 91.3253 46.2622 90.8158 46.1649 90.3022C46.1466 90.2067 46.1284 90.1131 46.1102 90.0176C46.0473 89.6852 45.9885 89.3488 45.9277 89.0144C46.8075 89.5359 47.7034 90.0554 48.6095 90.569V90.571ZM95.4673 62.539C95.4673 62.3817 95.4632 62.2225 95.4612 62.0652C95.4571 61.7328 95.4531 61.4004 95.447 61.07C95.447 61.0262 95.447 60.9824 95.447 60.9406C96.6734 61.9538 97.8673 62.9749 99.0146 64C98.9923 64.0199 98.9721 64.0378 98.9498 64.0577C98.895 64.1075 98.8403 64.1553 98.7835 64.205C98.7308 64.2508 98.6781 64.2986 98.6254 64.3444C98.3842 64.5593 98.141 64.7723 97.8937 64.9853C97.7761 65.0868 97.6585 65.1883 97.541 65.2898C97.3018 65.4968 97.0605 65.7019 96.8193 65.9069C96.7281 65.9845 96.6369 66.0621 96.5457 66.1378C96.5092 66.1676 96.4727 66.1995 96.4362 66.2293C96.1585 66.4622 95.8808 66.6951 95.6011 66.928C95.5483 66.9718 95.4956 67.0156 95.4429 67.0594C95.4429 67.0156 95.4429 66.9738 95.4429 66.93C95.449 66.5996 95.4531 66.2692 95.4571 65.9367C95.4571 65.7775 95.4612 65.6203 95.4632 65.461C95.4673 64.9733 95.4693 64.4857 95.4693 63.998C95.4693 63.5103 95.4673 63.0227 95.4632 62.535L95.4673 62.539ZM95.3578 57.9927C95.3396 57.515 95.3193 57.0373 95.295 56.5596C95.2869 56.4043 95.2808 56.2471 95.2727 56.0918C95.2402 55.4549 95.2037 54.8199 95.1632 54.1869C95.1592 54.1173 95.1531 54.0476 95.149 53.9779C95.1105 53.3947 95.07 52.8155 95.0254 52.2362C95.0132 52.0889 95.0031 51.9417 94.9909 51.7944C94.9402 51.1674 94.8875 50.5423 94.8287 49.9193C94.8267 49.8934 94.8247 49.8656 94.8227 49.8397C98.4775 52.5746 101.875 55.3991 104.954 58.2634C104.755 58.4724 104.557 58.6794 104.354 58.8884C104.326 58.9163 104.299 58.9442 104.271 58.974C104.08 59.1691 103.89 59.3642 103.695 59.5612C103.62 59.6369 103.545 59.7125 103.47 59.7861C103.322 59.9354 103.172 60.0847 103.022 60.234C102.935 60.3196 102.85 60.4052 102.763 60.4908C102.621 60.6321 102.477 60.7714 102.333 60.9128C102.244 61.0003 102.153 61.0879 102.063 61.1755C101.917 61.3168 101.769 61.4582 101.621 61.5995C101.534 61.6831 101.445 61.7667 101.356 61.8523C101.194 62.0055 101.032 62.1568 100.869 62.3101C100.807 62.3698 100.742 62.4295 100.679 62.4892C98.9923 60.9784 97.2085 59.4716 95.3619 57.9947L95.3578 57.9927ZM117.883 33.663C117.891 33.7586 117.897 33.8561 117.903 33.9517C117.909 34.0572 117.917 34.1627 117.921 34.2682C117.925 34.3657 117.925 34.4672 117.927 34.5667C117.927 34.6742 117.931 34.7797 117.929 34.8872C117.929 34.9887 117.925 35.0902 117.921 35.1917C117.917 35.2992 117.915 35.4087 117.909 35.5162C117.903 35.6197 117.895 35.7252 117.889 35.8307C117.881 35.9402 117.872 36.0496 117.862 36.1591C117.852 36.2666 117.84 36.3741 117.826 36.4816C117.814 36.593 117.799 36.7025 117.783 36.814C117.769 36.9235 117.751 37.0329 117.733 37.1424C117.714 37.2539 117.696 37.3673 117.676 37.4788C117.656 37.5903 117.633 37.7017 117.611 37.8152C117.589 37.9287 117.566 38.0421 117.54 38.1556C117.516 38.269 117.489 38.3825 117.461 38.4979C117.435 38.6134 117.406 38.7288 117.376 38.8443C117.345 38.9597 117.315 39.0752 117.283 39.1926C117.25 39.31 117.218 39.4255 117.183 39.5429C117.149 39.6604 117.112 39.7778 117.076 39.8972C117.039 40.0147 117.003 40.1341 116.962 40.2515C116.924 40.371 116.883 40.4904 116.841 40.6118C116.8 40.7313 116.758 40.8507 116.715 40.9701C116.67 41.0915 116.626 41.2129 116.579 41.3364C116.533 41.4578 116.486 41.5792 116.439 41.7006C116.391 41.824 116.342 41.9474 116.291 42.0708C116.241 42.1923 116.19 42.3157 116.137 42.4391C116.085 42.5645 116.03 42.6879 115.975 42.8133C115.945 42.883 115.912 42.9546 115.88 43.0243C115.856 43.078 115.831 43.1318 115.807 43.1855C115.75 43.3109 115.691 43.4383 115.631 43.5657C115.572 43.6911 115.509 43.8185 115.448 43.9439C115.385 44.0713 115.322 44.1987 115.26 44.3261C115.195 44.4535 115.13 44.5808 115.063 44.7102C114.996 44.8376 114.929 44.967 114.86 45.0964C114.791 45.2258 114.72 45.3571 114.647 45.4865C114.576 45.6159 114.505 45.7433 114.435 45.8727C114.36 46.004 114.285 46.1374 114.208 46.2708C114.133 46.4001 114.058 46.5295 113.983 46.6589C113.903 46.7923 113.822 46.9276 113.741 47.061C113.662 47.1904 113.583 47.3217 113.502 47.4511C113.419 47.5865 113.332 47.7238 113.245 47.8592C113.162 47.9905 113.08 48.1199 112.995 48.2513C112.906 48.3886 112.815 48.528 112.722 48.6673C112.635 48.7987 112.549 48.9281 112.462 49.0594C112.367 49.2008 112.27 49.3421 112.172 49.4834C112.083 49.6128 111.994 49.7422 111.903 49.8735C111.801 50.0169 111.698 50.1622 111.595 50.3055C111.501 50.4349 111.41 50.5642 111.317 50.6936C111.209 50.8409 111.1 50.9882 110.991 51.1355C110.895 51.2649 110.802 51.3923 110.705 51.5217C110.591 51.6729 110.474 51.8242 110.358 51.9755C110.261 52.1029 110.166 52.2283 110.066 52.3557C109.947 52.5109 109.823 52.6662 109.699 52.8214C109.6 52.9468 109.503 53.0703 109.401 53.1957C109.274 53.3549 109.142 53.5141 109.01 53.6734C108.911 53.7948 108.811 53.9182 108.71 54.0396C108.572 54.2068 108.43 54.374 108.288 54.5392C108.191 54.6547 108.094 54.7721 107.995 54.8876C107.84 55.0667 107.684 55.2478 107.526 55.427C107.435 55.5325 107.346 55.636 107.253 55.7415C107.066 55.9525 106.876 56.1655 106.685 56.3765C106.618 56.4501 106.553 56.5257 106.486 56.5994C106.48 56.6073 106.472 56.6133 106.466 56.6213C102.866 53.2753 98.8464 49.987 94.4963 46.8301C94.4335 46.2867 94.3706 45.7433 94.3017 45.2059C94.2713 44.969 94.2389 44.7361 94.2064 44.4992C94.1456 44.0374 94.0848 43.5757 94.0179 43.1178C93.9774 42.8372 93.9348 42.5605 93.8922 42.2838C93.8314 41.8738 93.7686 41.4637 93.7037 41.0557C93.6571 40.7611 93.6064 40.4705 93.5578 40.1779C93.4929 39.7898 93.428 39.4036 93.3611 39.0194C93.3084 38.7209 93.2537 38.4243 93.199 38.1277C93.1301 37.7535 93.0611 37.3793 92.9882 37.009C92.9314 36.7105 92.8706 36.4159 92.8118 36.1193C92.7388 35.7531 92.6638 35.3888 92.5868 35.0265C92.524 34.7319 92.4611 34.4393 92.3963 34.1467C92.3172 33.7884 92.2361 33.4302 92.155 33.0739C92.0881 32.7852 92.0213 32.4986 91.9544 32.212C91.9179 32.0607 91.8834 31.9054 91.8469 31.7562C103.588 29.3855 112.768 30.0284 117.862 33.5814C117.864 33.6073 117.868 33.6312 117.87 33.6571L117.883 33.663ZM116.585 29.483C116.792 29.8353 116.974 30.2036 117.133 30.5838C111.313 27.7314 102.325 27.3751 91.3077 29.6084C91.2895 29.5388 91.2712 29.4711 91.251 29.4034C91.1942 29.1924 91.1374 28.9794 91.0787 28.7704C91.0462 28.655 91.0138 28.5395 90.9814 28.4241C90.9266 28.227 90.8719 28.032 90.8151 27.8369C90.7827 27.7215 90.7482 27.606 90.7158 27.4906C90.657 27.2875 90.5982 27.0865 90.5374 26.8835C90.507 26.7819 90.4766 26.6804 90.4482 26.5809C90.3631 26.3002 90.278 26.0216 90.1928 25.7449C90.1868 25.727 90.1807 25.7071 90.1766 25.6892C90.0854 25.3966 89.9922 25.106 89.8989 24.8173C89.8685 24.7218 89.8381 24.6282 89.8057 24.5347C89.7611 24.3954 89.7144 24.256 89.6698 24.1187C103.377 21.7122 113.149 23.6489 116.583 29.487L116.585 29.483ZM68.4971 2.21939C75.5736 2.21939 82.3623 10.0181 87.1178 23.6171C87.9428 25.9718 88.705 28.5176 89.3861 31.1809C89.7104 32.4588 90.0165 33.7606 90.3023 35.0843C91.1577 39.0592 91.8327 43.2393 92.3152 47.5606C92.6659 50.6876 92.9152 53.9142 93.0632 57.1746C93.0834 57.6404 93.1037 58.1062 93.1199 58.5739C93.1828 60.3534 93.2152 62.1787 93.2152 64C93.2152 64.4339 93.2132 64.8698 93.2091 65.3038C93.2091 65.453 93.2051 65.6003 93.203 65.7496C93.199 66.0343 93.1969 66.3189 93.1909 66.6035C93.1888 66.7807 93.1848 66.9559 93.1807 67.133C93.1747 67.3878 93.1706 67.6446 93.1645 67.8994C93.1605 68.0845 93.1544 68.2676 93.1483 68.4507C93.1442 68.608 93.1382 68.7632 93.1341 68.9185C93.0652 68.9722 92.9963 69.026 92.9273 69.0797C92.5321 69.3902 92.1327 69.6987 91.7293 70.0073C91.6543 70.065 91.5814 70.1227 91.5064 70.1785C91.0401 70.5328 90.5699 70.8871 90.0935 71.2394C89.9759 71.327 89.8563 71.4145 89.7367 71.5021C89.3273 71.8027 88.9158 72.1033 88.5023 72.4018C88.4131 72.4655 88.3239 72.5312 88.2347 72.5949C87.7502 72.9432 87.2597 73.2876 86.7691 73.6319C86.7245 73.6638 86.6799 73.6937 86.6353 73.7255C86.6394 73.6538 86.6434 73.5802 86.6475 73.5085C86.6901 72.8139 86.7306 72.1152 86.763 71.4145C86.7691 71.3071 86.7732 71.1976 86.7772 71.0881C86.8076 70.4372 86.832 69.7863 86.8543 69.1315C86.8583 69.012 86.8624 68.8906 86.8664 68.7712C86.8887 68.0646 86.9049 67.354 86.9171 66.6434C86.9191 66.4901 86.9211 66.3388 86.9232 66.1856C86.9333 65.457 86.9394 64.7265 86.9394 63.996C86.9394 62.9789 86.9292 61.9637 86.909 60.9486C86.8644 58.6934 86.7711 56.4521 86.6292 54.2407L86.6495 54.2546L86.4671 51.9417C86.4671 51.9297 86.4671 51.9198 86.4651 51.9078L86.4245 51.4122H86.4225C86.3596 50.6578 86.2928 49.9074 86.2198 49.1609C86.0272 47.2182 85.7981 45.2974 85.5306 43.4104L85.5569 43.4264L85.1738 41.0278C85.1738 41.0278 85.1698 41.0079 85.1698 40.998L85.0947 40.5262H85.0927C85.0035 39.9848 84.9143 39.4454 84.8191 38.91C84.4461 36.804 84.0245 34.7399 83.5582 32.7474L83.2866 31.585H83.2805C82.7028 29.2322 82.0602 26.9531 81.3609 24.7935L81.0285 23.7664H81.0224C81.0122 23.7405 81.0041 23.7146 80.994 23.6867C80.9535 23.5673 80.9129 23.4499 80.8724 23.3324C80.7872 23.0876 80.7041 22.8428 80.619 22.6019C80.5703 22.4646 80.5197 22.3272 80.471 22.1899C80.392 21.969 80.3109 21.75 80.2318 21.5311C80.1791 21.3917 80.1284 21.2524 80.0757 21.1131C79.9946 20.9001 79.9136 20.6871 79.8325 20.4761C79.7798 20.3407 79.7271 20.2054 79.6744 20.07C79.5892 19.8531 79.5021 19.6381 79.4149 19.4231C79.3663 19.3017 79.3156 19.1783 79.2669 19.0569C79.1656 18.8101 79.0622 18.5652 78.9588 18.3224C78.9223 18.2388 78.8879 18.1532 78.8534 18.0696C78.7135 17.7452 78.5716 17.4227 78.4298 17.1042C78.4014 17.0405 78.371 16.9768 78.3426 16.9131C78.2291 16.6623 78.1135 16.4135 77.998 16.1667C77.9473 16.0592 77.8966 15.9537 77.846 15.8482C77.7507 15.6472 77.6534 15.4461 77.5561 15.2491C77.4993 15.1336 77.4426 15.0202 77.3858 14.9067C77.2926 14.7196 77.1993 14.5345 77.104 14.3514C77.0453 14.2379 76.9865 14.1245 76.9277 14.011C76.8324 13.8279 76.7351 13.6468 76.6378 13.4676C76.5811 13.3621 76.5243 13.2546 76.4655 13.1491C76.3601 12.9561 76.2547 12.767 76.1473 12.5799C76.0986 12.4923 76.0479 12.4027 75.9993 12.3171C75.8554 12.0663 75.7094 11.8175 75.5635 11.5727C75.5513 11.5528 75.5392 11.5309 75.527 11.509C75.3668 11.2422 75.2047 10.9795 75.0425 10.7207C74.9979 10.6511 74.9533 10.5834 74.9108 10.5137C74.7932 10.3286 74.6736 10.1455 74.554 9.96436C74.4952 9.87678 74.4364 9.7892 74.3776 9.7036C74.2702 9.54437 74.1628 9.38712 74.0553 9.23186C73.9925 9.1403 73.9297 9.05073 73.8668 8.96314C73.7614 8.81386 73.654 8.66457 73.5486 8.51927C73.4857 8.43169 73.4209 8.3461 73.358 8.2605C73.2465 8.11122 73.1371 7.96591 73.0256 7.82061C72.9648 7.74298 72.906 7.66535 72.8452 7.58772C72.7195 7.42649 72.5918 7.26725 72.4641 7.112C72.4195 7.05626 72.3749 7.00053 72.3283 6.94479C72.1539 6.7338 71.9776 6.52679 71.8012 6.32376C71.783 6.30386 71.7647 6.28395 71.7465 6.26206C71.5884 6.08292 71.4303 5.90775 71.2722 5.73657C71.2154 5.67487 71.1587 5.61714 71.1019 5.55743C70.9803 5.42805 70.8586 5.30066 70.737 5.17725C70.6701 5.10957 70.6053 5.04388 70.5384 4.9782C70.4249 4.86474 70.3093 4.75128 70.1938 4.64181C70.1248 4.57612 70.0539 4.50844 69.985 4.44475C69.8694 4.33726 69.7559 4.23177 69.6404 4.13025C69.5715 4.06855 69.5025 4.00684 69.4336 3.94713C69.312 3.83964 69.1883 3.73614 69.0647 3.63462C69.0019 3.58287 68.941 3.52913 68.8782 3.47936C68.7262 3.35595 68.5721 3.23653 68.4201 3.1171C68.3877 3.09122 68.3532 3.06534 68.3208 3.03947C68.1343 2.89814 67.9457 2.7608 67.7572 2.62943C67.7086 2.59559 67.6579 2.56175 67.6072 2.52791C67.4917 2.45028 67.3782 2.37067 67.2626 2.29503C67.6761 2.24128 68.0917 2.21541 68.5052 2.21541L68.4971 2.21939ZM61.4612 4.84085C61.5585 4.76721 61.6558 4.69555 61.7531 4.62588C61.8341 4.56816 61.9132 4.51043 61.9943 4.4547C62.0916 4.38702 62.1909 4.31935 62.2882 4.25565C62.3693 4.20191 62.4483 4.15016 62.5294 4.0984C62.6287 4.03471 62.7281 3.97499 62.8274 3.91528C62.9085 3.86751 62.9875 3.81775 63.0686 3.77197C63.17 3.71424 63.2713 3.65851 63.3727 3.60277C63.4517 3.55898 63.5328 3.51519 63.6119 3.47538C63.7153 3.42164 63.8186 3.37188 63.924 3.32212C64.0031 3.2843 64.0801 3.24648 64.1592 3.20866C64.1835 3.19871 64.2078 3.18875 64.2301 3.17681C64.2524 3.18676 64.2747 3.19672 64.297 3.20667C64.3862 3.24648 64.4754 3.29226 64.5646 3.33406C64.6599 3.37984 64.7572 3.42761 64.8524 3.47538C64.9416 3.52116 65.0288 3.57093 65.118 3.6187C65.2133 3.67045 65.3085 3.7222 65.4038 3.77794C65.491 3.8277 65.5802 3.88144 65.6673 3.93518C65.7626 3.99291 65.8579 4.05063 65.9511 4.11035C66.0383 4.16608 66.1254 4.2238 66.2126 4.28153C66.3058 4.34522 66.4011 4.40693 66.4944 4.47262C66.5815 4.53233 66.6667 4.59603 66.7538 4.65972C66.8471 4.7274 66.9403 4.79706 67.0336 4.86673C67.1187 4.93242 67.2059 5.00009 67.291 5.06777C67.3843 5.14142 67.4755 5.21507 67.5687 5.2907C67.6538 5.36037 67.739 5.43402 67.8241 5.50568C67.9153 5.5833 68.0086 5.66292 68.0998 5.74453C68.1849 5.82017 68.2681 5.89581 68.3532 5.97344C68.4444 6.05704 68.5356 6.14263 68.6268 6.22822C68.71 6.30784 68.7931 6.38945 68.8782 6.47106C68.9694 6.56063 69.0586 6.6502 69.1478 6.74177C69.2309 6.82537 69.314 6.91295 69.3971 6.99854C69.4863 7.09209 69.5755 7.18763 69.6647 7.28517C69.7458 7.37474 69.8289 7.46431 69.91 7.55587C69.9992 7.6554 70.0863 7.75492 70.1755 7.85644C70.2566 7.94999 70.3377 8.04553 70.4188 8.14108C70.5059 8.24458 70.5931 8.35008 70.6823 8.45756C70.7634 8.5551 70.8424 8.65462 70.9235 8.75414C71.0107 8.86362 71.0978 8.9731 71.183 9.08456C71.262 9.18608 71.3411 9.28958 71.4201 9.39508C71.5053 9.50854 71.5924 9.62598 71.6776 9.74142C71.7566 9.84891 71.8337 9.95441 71.9127 10.0639C71.9979 10.1833 72.083 10.3027 72.1661 10.4261C72.2431 10.5376 72.3202 10.6491 72.3972 10.7625C72.4803 10.886 72.5654 11.0133 72.6485 11.1387C72.7256 11.2542 72.8006 11.3696 72.8756 11.4871C72.9587 11.6165 73.0418 11.7478 73.1249 11.8792C73.1999 11.9986 73.2749 12.1181 73.3499 12.2395C73.431 12.3728 73.5141 12.5082 73.5952 12.6455C73.6702 12.7689 73.7432 12.8924 73.8161 13.0197C73.8972 13.1591 73.9783 13.2984 74.0574 13.4397C74.1303 13.5671 74.2033 13.6945 74.2763 13.8239C74.3574 13.9672 74.4364 14.1145 74.5155 14.2618C74.5864 14.3932 74.6574 14.5226 74.7283 14.6559C74.8074 14.8052 74.8864 14.9565 74.9655 15.1078C75.0364 15.2431 75.1054 15.3765 75.1763 15.5138C75.2554 15.6671 75.3324 15.8243 75.4094 15.9796C75.4783 16.1189 75.5473 16.2563 75.6162 16.3956C75.6932 16.5548 75.7702 16.7181 75.8473 16.8793C75.9142 17.0206 75.9811 17.1619 76.0479 17.3033C76.125 17.4685 76.2 17.6377 76.277 17.8049C76.3419 17.9502 76.4088 18.0915 76.4736 18.2388C76.5486 18.41 76.6236 18.5851 76.6986 18.7583C76.7615 18.9056 76.8263 19.0509 76.8892 19.1982C76.9642 19.3754 77.0392 19.5565 77.1122 19.7356C77.173 19.8849 77.2358 20.0322 77.2966 20.1835C77.3716 20.3686 77.4466 20.5577 77.5196 20.7468C77.5784 20.8961 77.6372 21.0434 77.6959 21.1927C77.7709 21.3877 77.846 21.5868 77.921 21.7858C77.9757 21.9331 78.0324 22.0784 78.0872 22.2277C78.1642 22.4367 78.2412 22.6497 78.3183 22.8627C78.3689 23.004 78.4216 23.1433 78.4703 23.2847C78.5554 23.5275 78.6406 23.7723 78.7257 24.0192C78.7662 24.1346 78.8068 24.2501 78.8453 24.3655C78.8473 24.3735 78.8514 24.3834 78.8534 24.3914C74.102 25.7768 69.1924 27.5523 64.2362 29.6741C63.7842 29.481 63.3321 29.29 62.8821 29.1029C62.8294 29.081 62.7767 29.0591 62.724 29.0372C62.1504 28.8003 61.5787 28.5674 61.0071 28.3385C60.928 28.3067 60.849 28.2748 60.7699 28.245C60.2125 28.024 59.6571 27.807 59.1037 27.5961C59.0145 27.5622 58.9233 27.5264 58.8341 27.4925C58.2847 27.2835 57.7354 27.0805 57.1881 26.8795C57.0989 26.8476 57.0097 26.8138 56.9205 26.7819C56.3692 26.5829 55.8219 26.3878 55.2725 26.1987C55.1935 26.1709 55.1164 26.145 55.0374 26.1171C54.4779 25.9241 53.9184 25.735 53.361 25.5518C53.3083 25.5339 53.2556 25.518 53.2029 25.5001C52.6211 25.311 52.0434 25.1239 51.4657 24.9467C51.4596 24.9467 51.4535 24.9427 51.4495 24.9408C50.8758 24.7636 50.3042 24.5924 49.7346 24.4252C49.696 24.4133 49.6575 24.4013 49.619 24.3894C49.621 24.3834 49.6231 24.3774 49.6251 24.3715C49.6596 24.268 49.696 24.1645 49.7325 24.061C49.8197 23.8082 49.9048 23.5554 49.994 23.3066C50.0427 23.1672 50.0934 23.0299 50.144 22.8906C50.219 22.6816 50.294 22.4706 50.3711 22.2636C50.4258 22.1143 50.4826 21.969 50.5373 21.8217C50.6103 21.6286 50.6832 21.4355 50.7562 21.2464C50.815 21.0931 50.8758 20.9439 50.9346 20.7926C51.0055 20.6115 51.0785 20.4303 51.1495 20.2512C51.2103 20.0979 51.2731 19.9486 51.3359 19.7973C51.4069 19.6242 51.4799 19.451 51.5508 19.2798C51.6137 19.1285 51.6785 18.9812 51.7434 18.832C51.8164 18.6648 51.8873 18.4976 51.9603 18.3323C52.0251 18.1851 52.092 18.0378 52.1569 17.8905C52.2299 17.7292 52.3029 17.568 52.3758 17.4088C52.4427 17.2635 52.5096 17.1201 52.5785 16.9768C52.6515 16.8196 52.7265 16.6643 52.8015 16.5111C52.8704 16.3697 52.9394 16.2284 53.0083 16.0891C53.0833 15.9378 53.1583 15.7865 53.2333 15.6372C53.3022 15.4999 53.3731 15.3625 53.4421 15.2272C53.5191 15.0799 53.5941 14.9326 53.6711 14.7873C53.7421 14.6539 53.813 14.5206 53.884 14.3892C53.961 14.2459 54.0401 14.1046 54.1171 13.9632C54.188 13.8339 54.259 13.7045 54.332 13.5771C54.411 13.4378 54.4901 13.3004 54.5711 13.1631C54.6441 13.0397 54.7151 12.9143 54.788 12.7928C54.8691 12.6555 54.9522 12.5221 55.0333 12.3868C55.1043 12.2693 55.1772 12.1499 55.2482 12.0325C55.3333 11.8971 55.4164 11.7657 55.5016 11.6324C55.5725 11.5209 55.6435 11.4094 55.7144 11.298C55.8036 11.1626 55.8928 11.0293 55.982 10.8959C56.0509 10.7944 56.1178 10.6909 56.1867 10.5894C56.286 10.4441 56.3854 10.3047 56.4867 10.1634C56.5475 10.0778 56.6063 9.99222 56.6671 9.90862C56.8212 9.69564 56.9773 9.48664 57.1313 9.28162C57.1699 9.23186 57.2084 9.18409 57.2469 9.13433C57.3766 8.96514 57.5084 8.79594 57.6401 8.63272C57.703 8.5551 57.7658 8.48145 57.8286 8.40581C57.932 8.28041 58.0334 8.15501 58.1368 8.03359C58.2057 7.95198 58.2766 7.87236 58.3476 7.79274C58.4449 7.68127 58.5422 7.56981 58.6395 7.46232C58.7125 7.38071 58.7875 7.30308 58.8604 7.22346C58.9557 7.11996 59.051 7.01844 59.1462 6.91892C59.2212 6.84129 59.2983 6.76565 59.3733 6.68802C59.4685 6.59248 59.5638 6.49694 59.6591 6.40338C59.7361 6.32774 59.8131 6.25609 59.8922 6.18244C59.9875 6.09287 60.0807 6.0033 60.176 5.91771C60.255 5.84605 60.3341 5.77638 60.4111 5.70671C60.5064 5.62311 60.6017 5.53951 60.697 5.4579C60.776 5.39023 60.8551 5.32454 60.9341 5.26085C61.0294 5.18322 61.1267 5.10559 61.222 5.02995C61.301 4.96825 61.3821 4.90654 61.4612 4.84484V4.84085ZM11.877 29.481C14.344 25.2831 20.0887 23.1035 28.2172 23.1035C31.3936 23.1035 34.937 23.4379 38.7904 24.1127C38.7722 24.1665 38.756 24.2222 38.7377 24.2759C38.5857 24.7377 38.4337 25.2035 38.2877 25.6752C38.2857 25.6832 38.2836 25.6912 38.2796 25.6991C38.1296 26.1768 37.9857 26.6625 37.8417 27.1502C37.8154 27.2417 37.787 27.3313 37.7607 27.4229C37.6228 27.8966 37.489 28.3723 37.3573 28.852C37.333 28.9436 37.3066 29.0372 37.2823 29.1287C37.2397 29.288 37.1951 29.4452 37.1525 29.6064C26.1375 27.3731 17.1494 27.7274 11.3297 30.5818C11.4898 30.2016 11.6703 29.8353 11.877 29.481ZM10.5878 33.5914C13.6649 31.4417 18.2299 30.3529 23.9563 30.3529C27.7084 30.3529 31.9572 30.8186 36.6052 31.7582C36.5708 31.8995 36.5383 32.0448 36.5039 32.1881C36.4714 32.3195 36.439 32.4489 36.4086 32.5822C36.3741 32.7275 36.3417 32.8768 36.3093 33.0241C36.2302 33.3685 36.1512 33.7148 36.0741 34.0631C36.0377 34.2283 35.9991 34.3916 35.9627 34.5588C35.9343 34.6881 35.9079 34.8215 35.8816 34.9529C35.8086 35.2913 35.7397 35.6316 35.6708 35.974C35.6302 36.173 35.5876 36.3701 35.5491 36.5711C35.5268 36.6826 35.5066 36.7961 35.4843 36.9075C35.4194 37.2439 35.3566 37.5843 35.2917 37.9227C35.2491 38.1536 35.2045 38.3825 35.162 38.6154C35.1457 38.7069 35.1295 38.7985 35.1133 38.8881C35.0525 39.2284 34.9957 39.5708 34.937 39.9132C34.8924 40.1719 34.8478 40.4307 34.8052 40.6914C34.793 40.7611 34.7829 40.8288 34.7707 40.8965C34.714 41.2488 34.6613 41.6031 34.6065 41.9574C34.566 42.2221 34.5234 42.4869 34.4849 42.7536C34.4748 42.8173 34.4647 42.881 34.4565 42.9447C34.4464 43.0203 34.4363 43.0959 34.4261 43.1716C34.3815 43.4821 34.339 43.7966 34.2964 44.1091C34.266 44.332 34.2336 44.555 34.2052 44.7799C34.195 44.8555 34.1849 44.9332 34.1768 45.0088C34.1484 45.2357 34.12 45.4646 34.0937 45.6935C34.0471 46.0717 33.9984 46.4499 33.9538 46.8321C33.8626 46.8978 33.7714 46.9654 33.6802 47.0311C33.5464 47.1287 33.4106 47.2282 33.2768 47.3257C33.1146 47.4452 32.9545 47.5626 32.7943 47.682C32.6666 47.7756 32.5389 47.8711 32.4133 47.9647C32.3747 47.9945 32.3342 48.0224 32.2957 48.0522C32.168 48.1478 32.0423 48.2433 31.9166 48.3369C31.7849 48.4364 31.6531 48.5359 31.5213 48.6355C31.3632 48.7549 31.2071 48.8743 31.0511 48.9957C30.9578 49.0674 30.8625 49.1391 30.7693 49.2107C30.747 49.2286 30.7267 49.2445 30.7044 49.2625C30.6882 49.2744 30.674 49.2863 30.6578 49.2983C30.5038 49.4177 30.3497 49.5371 30.1956 49.6566C30.0659 49.7581 29.9362 49.8596 29.8064 49.9611C29.6544 50.0806 29.5024 50.202 29.3504 50.3214C29.3382 50.3314 29.324 50.3413 29.3118 50.3513C29.2612 50.3911 29.2105 50.4309 29.1598 50.4727C29.0949 50.5244 29.0301 50.5762 28.9652 50.6279C28.8152 50.7474 28.6652 50.8688 28.5152 50.9882C28.3875 51.0917 28.2578 51.1952 28.1301 51.2987C28.0145 51.3923 27.901 51.4858 27.7875 51.5774C27.7246 51.6291 27.6618 51.6809 27.599 51.7327C27.5017 51.8123 27.4064 51.8899 27.3111 51.9695C27.1652 52.0909 27.0192 52.2104 26.8753 52.3318C26.7517 52.4353 26.626 52.5388 26.5023 52.6423C26.4273 52.704 26.3543 52.7677 26.2793 52.8294C26.2185 52.8812 26.1597 52.9309 26.0989 52.9827C26.0908 52.9906 26.0807 52.9966 26.0726 53.0046C25.9489 53.1101 25.8253 53.2136 25.7016 53.3191C25.5597 53.4405 25.4178 53.5619 25.278 53.6833C25.1563 53.7868 25.0347 53.8923 24.9151 53.9958C24.8766 54.0297 24.8381 54.0635 24.7996 54.0954C24.7631 54.1272 24.7286 54.1591 24.6921 54.1909C24.6253 54.2486 24.5584 54.3083 24.4915 54.3661C24.3739 54.4696 24.2543 54.5731 24.1367 54.6766C23.9948 54.802 23.855 54.9274 23.7131 55.0528C23.6016 55.1523 23.4881 55.2538 23.3766 55.3533C23.3685 55.3613 23.3604 55.3673 23.3523 55.3752C23.2124 55.5006 23.0745 55.628 22.9347 55.7534C22.8293 55.849 22.7218 55.9445 22.6185 56.042C22.4603 56.1874 22.3043 56.3327 22.1482 56.476C22.1259 56.4979 22.1016 56.5178 22.0793 56.5397C22.0509 56.5655 22.0205 56.5914 21.9921 56.6193C14.0298 47.8214 10.0101 39.6962 10.5939 33.5854L10.5878 33.5914ZM32.991 65.3834C32.991 65.4093 32.991 65.4351 32.991 65.461C32.991 65.6203 32.995 65.7795 32.9971 65.9387C33.0011 66.2691 33.0052 66.5996 33.0112 66.928C33.0112 66.9718 33.0112 67.0156 33.0112 67.0594C31.7808 66.0442 30.5869 65.0211 29.4416 63.998C29.4618 63.9801 29.4821 63.9622 29.5024 63.9423C29.5571 63.8945 29.6098 63.8467 29.6645 63.799C29.7213 63.7492 29.7781 63.6994 29.8348 63.6497C30.072 63.4387 30.3112 63.2297 30.5544 63.0187C30.674 62.9152 30.7936 62.8097 30.9153 62.7062C31.1504 62.5032 31.3896 62.3001 31.6268 62.0971C31.7139 62.0215 31.8031 61.9478 31.8903 61.8722C31.9369 61.8324 31.9835 61.7945 32.0301 61.7547C32.2997 61.5278 32.5693 61.3029 32.841 61.078C32.8977 61.0322 32.9525 60.9844 33.0092 60.9386C33.0092 60.9824 33.0092 61.0262 33.0092 61.07C33.0031 61.4004 32.9991 61.7308 32.995 62.0613C32.995 62.2205 32.991 62.3797 32.9889 62.539C32.9849 63.0267 32.9829 63.5143 32.9829 64.002C32.9829 64.4638 32.9829 64.9256 32.9889 65.3874L32.991 65.3834ZM33.1025 70.0073C33.1207 70.485 33.143 70.9647 33.1653 71.4404C33.1734 71.5957 33.1795 71.7509 33.1876 71.9062C33.22 72.5432 33.2565 73.1781 33.2971 73.8111C33.3011 73.8808 33.3072 73.9484 33.3112 74.0181C33.3498 74.5993 33.3903 75.1786 33.4349 75.7578C33.4471 75.9071 33.4572 76.0564 33.4694 76.2056C33.52 76.8287 33.5727 77.4497 33.6295 78.0667C33.6315 78.0966 33.6336 78.1265 33.6376 78.1563C29.9808 75.4194 26.5834 72.5949 23.5063 69.7306C23.707 69.5216 23.9077 69.3106 24.1104 69.1016C24.1448 69.0658 24.1813 69.0299 24.2158 68.9941C24.3982 68.805 24.5847 68.6179 24.7692 68.4288C24.8462 68.3512 24.9232 68.2736 25.0003 68.1979C25.1482 68.0506 25.2962 67.9013 25.4442 67.7541C25.5314 67.6685 25.6185 67.5829 25.7057 67.4973C25.8476 67.3579 25.9915 67.2166 26.1354 67.0773C26.2246 66.9897 26.3138 66.9041 26.403 66.8165C26.551 66.6732 26.6989 66.5319 26.8489 66.3886C26.9341 66.307 27.0192 66.2254 27.1044 66.1437C27.2726 65.9845 27.4429 65.8233 27.6152 65.664C27.6699 65.6123 27.7246 65.5625 27.7794 65.5108C29.4618 67.0176 31.2477 68.5264 33.0984 70.0053L33.1025 70.0073ZM7.61004 36.7383C7.8168 36.386 8.04991 36.0476 8.30532 35.7232C8.7006 42.0987 12.8824 49.9193 20.3583 58.1679C20.3096 58.2157 20.263 58.2614 20.2144 58.3092C20.0522 58.4665 19.892 58.6237 19.7339 58.781C19.6508 58.8626 19.5677 58.9442 19.4866 59.0278C19.3387 59.1751 19.1907 59.3224 19.0427 59.4716C18.9596 59.5552 18.8765 59.6389 18.7934 59.7225C18.6413 59.8757 18.4913 60.029 18.3413 60.1842C18.2684 60.2579 18.1954 60.3335 18.1244 60.4072C17.9217 60.6162 17.7211 60.8272 17.5204 61.0362C17.5042 61.0541 17.4879 61.07 17.4717 61.0879C17.2569 61.3128 17.046 61.5398 16.8373 61.7647C16.7704 61.8363 16.7055 61.906 16.6406 61.9777C16.5373 62.0891 16.4339 62.2006 16.3305 62.3121C7.35665 51.858 4.17821 42.5784 7.61004 36.7383ZM10.2959 84.6035C10.2554 84.697 10.2148 84.7906 10.1743 84.8841C10.0973 85.0653 10.0263 85.2464 9.95333 85.4256C9.92495 85.4992 9.89454 85.5729 9.86617 85.6445C9.76887 85.8953 9.67359 86.1461 9.58643 86.3949C9.57224 86.4367 9.55805 86.4785 9.54386 86.5203C9.47089 86.7253 9.40197 86.9304 9.33507 87.1354C9.30669 87.223 9.28034 87.3105 9.25196 87.4001C9.20331 87.5574 9.15466 87.7146 9.10804 87.8699C9.07966 87.9674 9.05331 88.0649 9.02493 88.1625C8.98439 88.3078 8.94588 88.4531 8.90736 88.5964C8.88101 88.6959 8.85669 88.7954 8.83236 88.895C8.7979 89.0363 8.76547 89.1776 8.73303 89.3189C8.71074 89.4165 8.68844 89.514 8.66817 89.6115C8.63776 89.7569 8.60938 89.9022 8.58303 90.0455C8.56681 90.135 8.54857 90.2246 8.53235 90.3142C8.50195 90.4854 8.47762 90.6565 8.4533 90.8257C8.44519 90.8854 8.43303 90.9472 8.42695 91.0069C8.39654 91.2318 8.37019 91.4567 8.34992 91.6797C8.34181 91.7533 8.33776 91.827 8.33167 91.9006C8.32154 92.026 8.30938 92.1494 8.30127 92.2728C8.04788 91.9484 7.8168 91.608 7.61004 91.2577C4.0728 85.2385 7.55531 75.5667 17.1677 64.7245C18.8441 62.8336 20.709 60.9128 22.7076 59.0118C23.0806 58.6575 23.4617 58.3032 23.8448 57.9509C23.9056 57.8952 23.9665 57.8375 24.0293 57.7817C24.3982 57.4433 24.7712 57.105 25.1503 56.7666C25.2212 56.7049 25.2901 56.6412 25.3611 56.5795C25.7462 56.2371 26.1354 55.8948 26.5307 55.5524C26.5692 55.5185 26.6077 55.4847 26.6483 55.4529C27.0334 55.1205 27.4226 54.788 27.8179 54.4576C27.8665 54.4178 27.9132 54.376 27.9618 54.3362C28.3632 53.9998 28.7686 53.6654 29.1781 53.329C29.2571 53.2653 29.3362 53.1996 29.4152 53.1359C29.8206 52.8055 30.2301 52.4771 30.6416 52.1507C30.7125 52.0949 30.7835 52.0392 30.8544 51.9815C31.268 51.653 31.6876 51.3266 32.1092 51.0021C32.1335 50.9842 32.1558 50.9663 32.1801 50.9484C32.6099 50.618 33.0457 50.2876 33.4835 49.9591C33.5363 49.9193 33.5869 49.8815 33.6396 49.8417C33.6376 49.8715 33.6336 49.9034 33.6315 49.9333C33.5768 50.5165 33.5261 51.1037 33.4795 51.6928C33.4673 51.8441 33.4552 51.9974 33.443 52.1487C33.4065 52.6284 33.37 53.1101 33.3376 53.5938C33.3275 53.741 33.3173 53.8864 33.3072 54.0336C33.2687 54.6268 33.2342 55.224 33.2018 55.8191C33.1957 55.9505 33.1896 56.0799 33.1815 56.2112C33.1572 56.7049 33.1349 57.1985 33.1146 57.6922C33.1106 57.7917 33.1045 57.8892 33.1004 57.9887C33.0153 58.0564 32.9302 58.1261 32.845 58.1938C32.7802 58.2455 32.7133 58.2993 32.6484 58.351C32.5957 58.3928 32.545 58.4346 32.4943 58.4764C32.3383 58.6038 32.1822 58.7312 32.0261 58.8586C31.9085 58.9541 31.7909 59.0497 31.6754 59.1472C31.5193 59.2746 31.3653 59.402 31.2112 59.5314C31.0957 59.6269 30.9801 59.7224 30.8666 59.818C30.7105 59.9494 30.5565 60.0787 30.4024 60.2101C30.2929 60.3037 30.1815 60.3972 30.072 60.4888C29.9139 60.6241 29.7558 60.7595 29.5977 60.8948C29.5145 60.9645 29.4314 61.0362 29.3504 61.1058C29.3341 61.1198 29.3179 61.1357 29.2997 61.1496C29.2956 61.1536 29.2916 61.1576 29.2875 61.1616C29.1213 61.3049 28.9591 61.4482 28.7949 61.5915C28.7017 61.6731 28.6084 61.7547 28.5172 61.8344C28.3368 61.9936 28.1584 62.1528 27.9801 62.3121C27.9071 62.3778 27.8321 62.4434 27.7571 62.5091C27.5057 62.7341 27.2564 62.959 27.0111 63.1839C27.0111 63.1839 27.0091 63.1839 27.0071 63.1859L26.1192 63.996L26.1233 64C25.8983 64.211 25.6732 64.42 25.4503 64.631C23.9158 66.086 22.4543 67.561 21.09 69.028L20.3502 69.8242L20.3542 69.8281C20.3339 69.85 20.3157 69.8719 20.2954 69.8938C20.2123 69.9874 20.1292 70.0789 20.0461 70.1705C19.8698 70.3656 19.6954 70.5626 19.5231 70.7577C19.4278 70.8672 19.3346 70.9746 19.2393 71.0821C19.0832 71.2613 18.9272 71.4424 18.7731 71.6216C18.6778 71.735 18.5805 71.8465 18.4873 71.9599C18.3373 72.1371 18.1893 72.3142 18.0413 72.4914C17.9866 72.5571 17.9319 72.6228 17.8771 72.6865C17.8407 72.7303 17.8062 72.776 17.7697 72.8198C17.6177 73.0049 17.4677 73.1901 17.3197 73.3732C17.2386 73.4727 17.1596 73.5722 17.0805 73.6718C16.9082 73.8887 16.74 74.1037 16.5737 74.3187C16.5231 74.3843 16.4683 74.452 16.4177 74.5177C16.1987 74.8004 15.9859 75.083 15.7751 75.3657C15.7366 75.4174 15.7001 75.4672 15.6636 75.5189C15.4953 75.7478 15.3271 75.9767 15.1629 76.2036C15.096 76.2952 15.0332 76.3868 14.9663 76.4803C14.8345 76.6674 14.7028 76.8525 14.573 77.0397C14.5021 77.1412 14.4332 77.2447 14.3622 77.3462C14.2426 77.5233 14.123 77.6985 14.0054 77.8737C13.9365 77.9772 13.8676 78.0807 13.8007 78.1842C13.6852 78.3613 13.5716 78.5365 13.4581 78.7117C13.3953 78.8112 13.3304 78.9107 13.2696 79.0082C13.15 79.1973 13.0345 79.3844 12.921 79.5715C12.8703 79.6551 12.8176 79.7387 12.7669 79.8223C12.6128 80.0771 12.4649 80.3299 12.3189 80.5827C12.3108 80.5986 12.3007 80.6146 12.2926 80.6285C12.1365 80.8992 11.9865 81.1679 11.8405 81.4346C11.8 81.5083 11.7615 81.5799 11.723 81.6536C11.6196 81.8447 11.5162 82.0378 11.4189 82.2269C11.3703 82.3224 11.3216 82.4159 11.275 82.5095C11.1898 82.6787 11.1047 82.8479 11.0216 83.0151C10.9729 83.1166 10.9243 83.2161 10.8756 83.3156C10.7986 83.4789 10.7216 83.6401 10.6466 83.8013C10.6 83.9008 10.5554 84.0024 10.5087 84.1019C10.4358 84.2671 10.3628 84.4303 10.2939 84.5935L10.2959 84.6035ZM10.5797 94.3409C10.5716 94.2434 10.5655 94.1419 10.5594 94.0424C10.5533 93.9408 10.5452 93.8373 10.5412 93.7338C10.5371 93.6323 10.5351 93.5308 10.5351 93.4293C10.5351 93.3258 10.531 93.2203 10.5331 93.1168C10.5331 93.0133 10.5371 92.9078 10.5412 92.8043C10.5452 92.6988 10.5473 92.5933 10.5533 92.4858C10.5594 92.3803 10.5675 92.2728 10.5756 92.1673C10.5837 92.0598 10.5919 91.9524 10.602 91.8429C10.6121 91.7354 10.6243 91.6259 10.6385 91.5184C10.6506 91.4089 10.6648 91.2995 10.679 91.188C10.6932 91.0785 10.7115 90.9671 10.7297 90.8576C10.7479 90.7461 10.7662 90.6347 10.7844 90.5232C10.8047 90.4117 10.827 90.2983 10.8493 90.1868C10.8716 90.0733 10.8939 89.9599 10.9202 89.8464C10.9446 89.733 10.9709 89.6175 10.9993 89.5021C11.0256 89.3866 11.054 89.2732 11.0844 89.1577C11.1148 89.0423 11.1452 88.9248 11.1777 88.8094C11.2101 88.6919 11.2425 88.5765 11.277 88.4591C11.3115 88.3416 11.3459 88.2242 11.3824 88.1047C11.4189 87.9873 11.4574 87.8679 11.4959 87.7484C11.5344 87.629 11.575 87.5096 11.6155 87.3902C11.6561 87.2707 11.6986 87.1493 11.7432 87.0299C11.7878 86.9085 11.8324 86.787 11.877 86.6656C11.9236 86.5442 11.9703 86.4228 12.0189 86.3014C12.0676 86.178 12.1162 86.0565 12.1669 85.9331C12.2176 85.8097 12.2703 85.6863 12.323 85.5629C12.3757 85.4395 12.4304 85.3141 12.4851 85.1907C12.5399 85.0673 12.5966 84.9419 12.6534 84.8165C12.7101 84.6911 12.7689 84.5657 12.8297 84.4383C12.8885 84.3129 12.9514 84.1855 13.0122 84.0601C13.075 83.9327 13.1358 83.8053 13.2007 83.6779C13.2656 83.5505 13.3304 83.4211 13.3973 83.2937C13.4642 83.1664 13.5311 83.037 13.6 82.9076C13.6689 82.7782 13.7399 82.6488 13.8108 82.5195C13.8818 82.3901 13.9527 82.2607 14.0257 82.1293C14.0987 81.9979 14.1757 81.8666 14.2507 81.7372C14.3257 81.6058 14.4007 81.4764 14.4798 81.3451C14.5588 81.2117 14.6379 81.0803 14.719 80.947C14.798 80.8156 14.8771 80.6842 14.9602 80.5509C15.0433 80.4175 15.1284 80.2821 15.2136 80.1488C15.2967 80.0154 15.3818 79.8841 15.467 79.7507C15.5541 79.6153 15.6453 79.48 15.7345 79.3426C15.8217 79.2093 15.9109 79.0759 16.0001 78.9426C16.0913 78.8052 16.1866 78.6679 16.2818 78.5305C16.3751 78.3952 16.4663 78.2618 16.5616 78.1265C16.6589 77.9891 16.7582 77.8498 16.8575 77.7104C16.9528 77.5751 17.0501 77.4417 17.1474 77.3064C17.2508 77.1651 17.3562 77.0237 17.4616 76.8824C17.5609 76.749 17.6582 76.6137 17.7596 76.4803C17.867 76.337 17.9785 76.1917 18.09 76.0484C18.1934 75.915 18.2927 75.7817 18.3981 75.6463C18.5116 75.499 18.6292 75.3517 18.7468 75.2064C18.8522 75.0731 18.9555 74.9417 19.063 74.8083C19.1846 74.659 19.3083 74.5078 19.4319 74.3565C19.5393 74.2251 19.6447 74.0957 19.7542 73.9644C19.8819 73.8091 20.0157 73.6538 20.1454 73.4986C20.2529 73.3712 20.3603 73.2418 20.4698 73.1144C20.6096 72.9512 20.7536 72.788 20.8954 72.6228C21.0009 72.5014 21.1042 72.3819 21.2117 72.2605C21.3718 72.0774 21.538 71.8943 21.7022 71.7111C21.7955 71.6076 21.8847 71.5061 21.9779 71.4026C21.984 71.3966 21.9901 71.3907 21.9961 71.3827C25.5942 74.7267 29.6139 78.015 33.966 81.1759C34.0288 81.7213 34.0937 82.2667 34.1626 82.8061C34.193 83.0449 34.2275 83.2798 34.2579 83.5167C34.3187 83.9785 34.3795 84.4403 34.4464 84.8981C34.4869 85.1767 34.5295 85.4534 34.5721 85.7301C34.6329 86.1421 34.6957 86.5542 34.7606 86.9622C34.8072 87.2548 34.8559 87.5434 34.9045 87.834C34.9694 88.2242 35.0343 88.6143 35.1032 89.0005C35.1559 89.297 35.2106 89.5896 35.2633 89.8842C35.3322 90.2604 35.4032 90.6366 35.4741 91.0109C35.5309 91.3054 35.5897 91.6 35.6505 91.8926C35.7255 92.2609 35.8005 92.6271 35.8775 92.9894C35.9404 93.282 36.0032 93.5726 36.066 93.8612C36.1451 94.2215 36.2262 94.5798 36.3093 94.9381C36.3762 95.2247 36.441 95.5093 36.51 95.792C36.5464 95.9433 36.5809 96.0965 36.6174 96.2478C24.8786 98.6205 15.698 97.9775 10.602 94.4245C10.6 94.4006 10.5959 94.3748 10.5939 94.3509L10.5797 94.3409ZM11.877 98.517C11.6682 98.1627 11.4878 97.7944 11.3277 97.4142C14.6176 99.0285 18.915 99.8466 24.0232 99.8466C27.9537 99.8466 32.3626 99.3629 37.1525 98.3916C37.1708 98.4612 37.1911 98.5309 37.2093 98.6006C37.264 98.8056 37.3188 99.0106 37.3755 99.2156C37.408 99.3351 37.4424 99.4565 37.4748 99.5759C37.5276 99.767 37.5823 99.9581 37.637 100.147C37.6715 100.267 37.7059 100.386 37.7384 100.503C37.7972 100.705 37.8559 100.904 37.9147 101.103C37.9451 101.204 37.9755 101.308 38.0059 101.409C38.0911 101.692 38.1762 101.97 38.2634 102.249C38.2695 102.265 38.2735 102.283 38.2796 102.299C38.3728 102.595 38.4661 102.892 38.5614 103.185C38.5877 103.268 38.6161 103.352 38.6424 103.435C38.6911 103.587 38.7397 103.738 38.7904 103.887C25.0834 106.292 15.3109 104.357 11.877 98.517ZM59.9632 125.779C52.8867 125.779 46.1 117.98 41.3425 104.383C40.5114 102.008 39.7472 99.4624 39.0742 96.8151C37.7769 91.7274 36.7917 86.2158 36.1431 80.4374C35.7437 76.8645 35.4721 73.1582 35.3403 69.4261C35.2775 67.6466 35.2451 65.8213 35.2451 64C35.2451 62.1787 35.2775 60.3534 35.3403 58.5739C35.4741 54.8398 35.7437 51.1355 36.1431 47.5626C36.3052 46.1175 36.4877 44.6903 36.6924 43.2811C36.8201 42.3993 36.9579 41.5294 37.1019 40.6636C37.6471 37.3773 38.3039 34.2045 39.0742 31.1809C39.1756 30.7808 39.281 30.3847 39.3864 29.9886C39.9803 27.7732 40.635 25.6334 41.3425 23.6151C46.1 10.0161 52.8867 2.2174 59.9632 2.2174C60.3767 2.2174 60.7922 2.24526 61.2057 2.29901C61.0922 2.37266 60.9807 2.45028 60.8672 2.52791C60.8145 2.56374 60.7618 2.59758 60.7091 2.63341C60.5206 2.76478 60.3341 2.90013 60.1476 3.04146C60.1111 3.06932 60.0746 3.09918 60.0382 3.12705C59.8881 3.2425 59.7402 3.35794 59.5902 3.47936C59.5253 3.53112 59.4604 3.58685 59.3956 3.64059C59.276 3.74012 59.1543 3.84163 59.0348 3.94713C58.9638 4.00883 58.8929 4.07253 58.8219 4.13622C58.7084 4.23774 58.5969 4.33925 58.4834 4.44475C58.4104 4.51242 58.3395 4.5801 58.2685 4.64778C58.157 4.75526 58.0435 4.86474 57.932 4.97621C57.8631 5.04587 57.7942 5.11355 57.7253 5.18322C57.6057 5.30464 57.4881 5.42805 57.3705 5.55146C57.3097 5.61515 57.2489 5.67885 57.1901 5.74254C57.0381 5.90576 56.8881 6.07296 56.7381 6.24415C56.7138 6.27201 56.6874 6.29988 56.6631 6.32775C56.4867 6.52878 56.3124 6.7338 56.1401 6.9428C56.0914 7.00252 56.0428 7.06422 55.9921 7.12394C55.8685 7.27522 55.7448 7.42848 55.6232 7.58374C55.5604 7.66336 55.4975 7.74696 55.4347 7.82658C55.3252 7.9679 55.2178 8.10923 55.1103 8.25453C55.0435 8.3441 54.9786 8.43368 54.9117 8.52325C54.8083 8.66656 54.7049 8.80988 54.6016 8.95518C54.5367 9.04874 54.4698 9.1403 54.4049 9.23385C54.2995 9.38513 54.1961 9.53839 54.0907 9.69365C54.0299 9.78521 53.9691 9.87479 53.9063 9.96635C53.7907 10.1415 53.6752 10.3187 53.5617 10.4978C53.513 10.5734 53.4664 10.6451 53.4177 10.7207C53.2556 10.9775 53.0954 11.2383 52.9353 11.503C52.9191 11.5309 52.9008 11.5607 52.8846 11.5886C52.7427 11.8255 52.6029 12.0643 52.463 12.3091C52.4103 12.4007 52.3596 12.4943 52.3069 12.5858C52.2035 12.7689 52.1002 12.9541 51.9968 13.1432C51.938 13.2506 51.8792 13.3601 51.8204 13.4696C51.7251 13.6468 51.6299 13.8259 51.5346 14.005C51.4738 14.1205 51.415 14.2359 51.3542 14.3514C51.2609 14.5325 51.1677 14.7156 51.0765 14.9008C51.0177 15.0162 50.9609 15.1317 50.9022 15.2491C50.8069 15.4442 50.7116 15.6412 50.6163 15.8403C50.5636 15.9497 50.513 16.0572 50.4603 16.1667C50.3467 16.4076 50.2352 16.6524 50.1238 16.8972C50.0913 16.9669 50.0609 17.0346 50.0285 17.1042C49.8866 17.4207 49.7447 17.7412 49.6048 18.0656C49.5683 18.1532 49.5319 18.2408 49.4933 18.3284C49.392 18.5672 49.2906 18.8081 49.1893 19.0529C49.1386 19.1763 49.0879 19.2997 49.0393 19.4231C48.9541 19.6361 48.867 19.8491 48.7839 20.0641C48.7312 20.1994 48.6764 20.3368 48.6237 20.4741C48.5426 20.6831 48.4636 20.8921 48.3825 21.1031C48.3298 21.2444 48.2771 21.3857 48.2244 21.5291C48.1453 21.744 48.0663 21.961 47.9872 22.178C47.9366 22.3173 47.8859 22.4586 47.8352 22.5999C47.7521 22.8348 47.669 23.0737 47.5879 23.3125C47.5453 23.4379 47.5007 23.5613 47.4582 23.6887C47.4501 23.7146 47.4399 23.7405 47.4318 23.7664H47.4257L47.0973 24.7815C47.0973 24.7855 47.0953 24.7895 47.0933 24.7915L46.7406 25.8803H46.7487C46.1811 27.7135 45.6541 29.6244 45.1737 31.585H45.1676L44.8959 32.7434C44.8959 32.7434 44.8959 32.7454 44.8959 32.7474L44.6628 33.7526H44.6669C44.1763 35.9481 43.7405 38.2193 43.3615 40.5262H43.3594L43.2804 41.0199C43.2804 41.0219 43.2804 41.0239 43.2804 41.0278C43.2094 41.4697 43.1405 41.9136 43.0736 42.3615C42.7412 44.5928 42.4594 46.8699 42.2324 49.1709C42.1594 49.9153 42.0925 50.6618 42.0317 51.4102H42.0297L41.9871 51.9397C41.6729 55.8709 41.5148 59.9275 41.5148 63.994C41.5148 64.5016 41.5168 65.0112 41.5229 65.5187C41.529 66.0522 41.5371 66.5856 41.5472 67.1191C41.608 70.1327 41.754 73.1264 41.9871 76.0484C41.9871 76.0564 41.9871 76.0663 41.9891 76.0743L42.0297 76.5779C42.281 79.6392 42.6297 82.6747 43.0716 85.6266C43.1385 86.0725 43.2074 86.5163 43.2783 86.9602C43.2783 86.9702 43.2824 86.9801 43.2824 86.9921L43.3574 87.4618H43.3594C43.3898 87.6489 43.4202 87.836 43.4506 88.0231C43.8074 90.139 44.2128 92.2211 44.6628 94.2354H44.6588L44.8919 95.2406C44.8919 95.2406 44.8919 95.2426 44.8919 95.2446L45.1635 96.4051H45.1696C45.648 98.3577 46.175 100.267 46.7446 102.108H46.7365L47.0892 103.199L47.4217 104.226H47.4278C47.4379 104.252 47.446 104.277 47.4561 104.305C47.4967 104.425 47.5392 104.544 47.5798 104.664C47.6629 104.908 47.748 105.151 47.8332 105.392C47.8818 105.531 47.9325 105.669 47.9811 105.806C48.0602 106.025 48.1393 106.244 48.2203 106.461C48.273 106.602 48.3257 106.744 48.3785 106.883C48.4575 107.096 48.5386 107.305 48.6197 107.514C48.6724 107.651 48.7251 107.787 48.7798 107.922C48.8649 108.137 48.9501 108.35 49.0352 108.561C49.0859 108.686 49.1366 108.81 49.1873 108.933C49.2886 109.176 49.39 109.417 49.4913 109.658C49.5278 109.745 49.5643 109.833 49.6028 109.918C49.7427 110.243 49.8825 110.563 50.0265 110.88C50.0589 110.95 50.0893 111.019 50.1217 111.089C50.2332 111.334 50.3447 111.579 50.4582 111.819C50.5089 111.929 50.5616 112.036 50.6123 112.144C50.7076 112.343 50.8028 112.542 50.8981 112.737C50.9549 112.854 51.0136 112.968 51.0704 113.083C51.1636 113.268 51.2569 113.454 51.3501 113.635C51.4089 113.75 51.4677 113.864 51.5265 113.977C51.6218 114.16 51.7191 114.341 51.8143 114.52C51.8711 114.628 51.9299 114.733 51.9866 114.839C52.092 115.03 52.1974 115.219 52.3029 115.408C52.3535 115.496 52.4022 115.585 52.4529 115.673C52.5988 115.928 52.7448 116.179 52.8927 116.425C52.9029 116.443 52.913 116.461 52.9252 116.479C53.0853 116.746 53.2475 117.009 53.4096 117.267C53.4542 117.337 53.4968 117.405 53.5414 117.472C53.659 117.657 53.7786 117.843 53.8982 118.024C53.9549 118.111 54.0137 118.197 54.0725 118.282C54.1799 118.442 54.2874 118.601 54.3968 118.758C54.4597 118.848 54.5205 118.937 54.5833 119.025C54.6907 119.176 54.7982 119.325 54.9056 119.473C54.9685 119.558 55.0313 119.644 55.0941 119.73C55.2056 119.879 55.3171 120.026 55.4306 120.171C55.4894 120.247 55.5482 120.325 55.607 120.4C55.7347 120.564 55.8644 120.725 55.9941 120.884C56.0367 120.938 56.0793 120.992 56.1239 121.043C56.2982 121.254 56.4746 121.463 56.6529 121.666C56.6692 121.686 56.6874 121.704 56.7036 121.722C56.8617 121.903 57.0219 122.078 57.182 122.251C57.2367 122.311 57.2935 122.369 57.3503 122.429C57.4719 122.558 57.5955 122.687 57.7192 122.813C57.7841 122.88 57.8509 122.944 57.9158 123.01C58.0314 123.125 58.1469 123.239 58.2624 123.348C58.3314 123.414 58.4003 123.48 58.4692 123.543C58.5847 123.651 58.7003 123.756 58.8179 123.862C58.8868 123.923 58.9537 123.983 59.0226 124.043C59.1462 124.15 59.2699 124.256 59.3935 124.357C59.4544 124.409 59.5152 124.461 59.578 124.511C59.7321 124.636 59.8881 124.757 60.0442 124.877C60.0746 124.901 60.105 124.925 60.1355 124.949C60.3219 125.09 60.5105 125.227 60.701 125.359C60.7517 125.394 60.8024 125.426 60.853 125.46C60.9665 125.538 61.0801 125.617 61.1956 125.691C60.7821 125.745 60.3665 125.771 59.953 125.771L59.9632 125.779ZM66.7559 123.34C66.6687 123.404 66.5836 123.466 66.4964 123.527C66.4031 123.593 66.3079 123.655 66.2146 123.718C66.1275 123.776 66.0403 123.836 65.9531 123.892C65.8599 123.951 65.7646 124.009 65.6694 124.067C65.5822 124.121 65.493 124.174 65.4058 124.224C65.3106 124.278 65.2153 124.33 65.12 124.381C65.0308 124.429 64.9416 124.479 64.8545 124.525C64.7592 124.574 64.6639 124.62 64.5687 124.666C64.4795 124.71 64.3903 124.754 64.3011 124.793C64.2788 124.803 64.2565 124.813 64.2342 124.823C64.2099 124.813 64.1876 124.803 64.1632 124.791C64.0842 124.756 64.0051 124.716 63.9261 124.678C63.8227 124.628 63.7193 124.578 63.6159 124.525C63.5348 124.483 63.4558 124.439 63.3747 124.395C63.2734 124.34 63.172 124.286 63.0727 124.228C62.9916 124.182 62.9105 124.132 62.8294 124.085C62.7301 124.025 62.6308 123.965 62.5314 123.902C62.4504 123.85 62.3693 123.796 62.2882 123.744C62.1909 123.679 62.0916 123.613 61.9943 123.545C61.9132 123.49 61.8321 123.432 61.7531 123.374C61.6558 123.304 61.5585 123.233 61.4632 123.159C61.3821 123.097 61.301 123.036 61.222 122.974C61.1267 122.898 61.0314 122.823 60.9361 122.743C60.8551 122.677 60.776 122.612 60.697 122.544C60.6017 122.464 60.5064 122.381 60.4132 122.297C60.3341 122.228 60.255 122.158 60.176 122.086C60.0807 122.001 59.9875 121.911 59.8922 121.824C59.8131 121.75 59.7361 121.676 59.6571 121.601C59.5618 121.509 59.4685 121.413 59.3753 121.318C59.2983 121.24 59.2212 121.165 59.1462 121.085C59.051 120.986 58.9557 120.884 58.8604 120.783C58.7854 120.703 58.7124 120.623 58.6374 120.542C58.5401 120.434 58.4428 120.323 58.3455 120.211C58.2746 120.132 58.2037 120.052 58.1347 119.97C58.0314 119.849 57.928 119.724 57.8246 119.598C57.7618 119.523 57.6989 119.449 57.6381 119.371C57.5043 119.204 57.3705 119.033 57.2388 118.862C57.2084 118.822 57.178 118.784 57.1476 118.744C56.9854 118.533 56.8252 118.316 56.6671 118.095C56.6084 118.014 56.5475 117.926 56.4888 117.843C56.3874 117.701 56.2881 117.56 56.1867 117.415C56.1178 117.315 56.0509 117.214 55.984 117.112C55.8928 116.979 55.8036 116.845 55.7144 116.708C55.6435 116.601 55.5725 116.489 55.5036 116.378C55.4185 116.244 55.3333 116.111 55.2482 115.974C55.1772 115.858 55.1063 115.741 55.0333 115.623C54.9502 115.488 54.8671 115.352 54.786 115.213C54.7151 115.092 54.6441 114.97 54.5732 114.847C54.4921 114.708 54.411 114.568 54.332 114.427C54.261 114.301 54.1901 114.174 54.1211 114.047C54.0421 113.903 53.963 113.76 53.884 113.615C53.813 113.483 53.7441 113.352 53.6732 113.221C53.5961 113.073 53.5191 112.926 53.4421 112.779C53.3731 112.643 53.3042 112.508 53.2353 112.371C53.1583 112.219 53.0833 112.068 53.0083 111.915C52.9394 111.776 52.8725 111.638 52.8035 111.497C52.7285 111.342 52.6535 111.184 52.5785 111.025C52.5116 110.884 52.4448 110.741 52.3779 110.597C52.3029 110.436 52.2299 110.273 52.1569 110.11C52.092 109.964 52.0272 109.821 51.9623 109.674C51.8893 109.506 51.8164 109.337 51.7434 109.168C51.6805 109.021 51.6177 108.875 51.5549 108.726C51.4819 108.553 51.4089 108.376 51.3359 108.201C51.2751 108.053 51.2143 107.906 51.1535 107.755C51.0805 107.574 51.0076 107.389 50.9346 107.203C50.8758 107.056 50.817 106.909 50.7603 106.76C50.6853 106.566 50.6123 106.371 50.5393 106.176C50.4846 106.031 50.4298 105.886 50.3751 105.74C50.2981 105.531 50.2211 105.318 50.1461 105.107C50.0974 104.97 50.0467 104.835 49.9981 104.697C49.9109 104.449 49.8238 104.196 49.7366 103.943C49.7001 103.84 49.6636 103.738 49.6292 103.633C49.6271 103.627 49.6251 103.621 49.6231 103.615C49.6555 103.605 49.69 103.595 49.7224 103.585C50.3001 103.416 50.8778 103.242 51.4596 103.061C51.4616 103.061 51.4636 103.061 51.4657 103.059C52.0454 102.88 52.6252 102.693 53.209 102.502C53.2637 102.484 53.3164 102.466 53.3711 102.448C53.9265 102.265 54.484 102.078 55.0414 101.885C55.1225 101.857 55.2036 101.829 55.2867 101.801C55.832 101.612 56.3773 101.419 56.9246 101.22C57.0178 101.186 57.109 101.152 57.2023 101.119C57.7476 100.919 58.2928 100.716 58.8402 100.509C58.9314 100.474 59.0246 100.44 59.1179 100.404C59.6692 100.193 60.2226 99.978 60.778 99.757C60.8591 99.7252 60.9382 99.6933 61.0193 99.6615C61.5889 99.4346 62.1605 99.2037 62.7321 98.9668C62.7848 98.9449 62.8396 98.921 62.8923 98.8991C63.3423 98.712 63.7923 98.5229 64.2423 98.3299C69.2086 100.456 74.1182 102.229 78.8595 103.613C78.8575 103.621 78.8534 103.631 78.8514 103.638C78.8129 103.75 78.7743 103.859 78.7358 103.969C78.6487 104.22 78.5635 104.472 78.4764 104.719C78.4277 104.857 78.377 104.99 78.3284 105.127C78.2493 105.344 78.1723 105.563 78.0933 105.778C78.0385 105.924 77.9838 106.065 77.9311 106.21C77.8541 106.411 77.7791 106.614 77.702 106.813C77.6453 106.961 77.5865 107.106 77.5297 107.251C77.4547 107.442 77.3797 107.635 77.3027 107.822C77.2439 107.97 77.1831 108.113 77.1223 108.258C77.0473 108.442 76.9703 108.627 76.8932 108.808C76.8324 108.953 76.7696 109.094 76.7067 109.238C76.6297 109.415 76.5527 109.594 76.4757 109.767C76.4128 109.909 76.3479 110.05 76.2851 110.189C76.2081 110.36 76.1311 110.534 76.052 110.703C75.9871 110.842 75.9223 110.979 75.8554 111.117C75.7763 111.282 75.6993 111.447 75.6202 111.61C75.5533 111.748 75.4864 111.883 75.4196 112.018C75.3405 112.178 75.2614 112.337 75.1824 112.494C75.1135 112.629 75.0445 112.761 74.9756 112.894C74.8966 113.047 74.8155 113.201 74.7364 113.352C74.6655 113.483 74.5966 113.613 74.5256 113.742C74.4445 113.889 74.3634 114.039 74.2824 114.184C74.2114 114.311 74.1405 114.437 74.0675 114.562C73.9864 114.706 73.9033 114.849 73.8222 114.99C73.7492 115.114 73.6763 115.235 73.6033 115.356C73.5202 115.494 73.4391 115.633 73.356 115.768C73.283 115.888 73.208 116.007 73.133 116.125C73.0499 116.258 72.9668 116.39 72.8817 116.521C72.8067 116.636 72.7317 116.752 72.6567 116.865C72.5715 116.993 72.4884 117.12 72.4033 117.245C72.3262 117.357 72.2512 117.468 72.1742 117.578C72.0891 117.701 72.0039 117.823 71.9188 117.942C71.8418 118.05 71.7647 118.157 71.6857 118.263C71.6006 118.38 71.5134 118.495 71.4262 118.611C71.3472 118.714 71.2681 118.818 71.1911 118.919C71.1039 119.031 71.0168 119.142 70.9296 119.252C70.8505 119.351 70.7715 119.449 70.6904 119.546C70.6032 119.654 70.514 119.759 70.4269 119.865C70.3458 119.96 70.2667 120.054 70.1857 120.148C70.0965 120.249 70.0093 120.351 69.9201 120.45C69.839 120.542 69.758 120.631 69.6748 120.719C69.5856 120.816 69.4965 120.91 69.4073 121.005C69.3242 121.091 69.2431 121.177 69.16 121.262C69.0708 121.354 68.9796 121.443 68.8883 121.533C68.8052 121.615 68.7221 121.696 68.639 121.776C68.5478 121.861 68.4566 121.947 68.3653 122.031C68.2802 122.108 68.1971 122.184 68.112 122.259C68.0207 122.341 67.9295 122.419 67.8363 122.498C67.7512 122.572 67.666 122.644 67.5809 122.713C67.4897 122.789 67.3964 122.863 67.3032 122.936C67.218 123.004 67.1309 123.072 67.0457 123.137C66.9525 123.207 66.8592 123.277 66.766 123.344L66.7559 123.34ZM89.1306 97.8024C89.011 98.2562 88.8854 98.7041 88.7617 99.1499C88.2529 100.961 87.7036 102.715 87.1218 104.383L87.1178 104.393C82.3602 117.984 75.5756 125.777 68.5012 125.777C68.0876 125.777 67.6741 125.749 67.2586 125.697C67.3721 125.623 67.4836 125.546 67.5971 125.468C67.6498 125.432 67.7025 125.398 67.7532 125.363C67.9417 125.231 68.1282 125.094 68.3167 124.955C68.3512 124.929 68.3856 124.901 68.4201 124.875C68.5721 124.757 68.7241 124.64 68.8762 124.517C68.939 124.465 69.0019 124.411 69.0647 124.359C69.1863 124.258 69.31 124.154 69.4316 124.047C69.5005 123.987 69.5694 123.925 69.6383 123.864C69.7539 123.76 69.8694 123.655 69.985 123.547C70.0539 123.482 70.1248 123.416 70.1938 123.35C70.3093 123.241 70.4249 123.127 70.5384 123.014C70.6053 122.948 70.6701 122.882 70.737 122.815C70.8607 122.689 70.9823 122.562 71.1039 122.431C71.1607 122.371 71.2154 122.313 71.2722 122.253C71.4343 122.08 71.5945 121.901 71.7546 121.72C71.7708 121.702 71.787 121.686 71.8012 121.668C71.9796 121.465 72.156 121.258 72.3303 121.045C72.3729 120.993 72.4154 120.94 72.46 120.886C72.5898 120.727 72.7195 120.566 72.8492 120.4C72.908 120.327 72.9648 120.249 73.0236 120.173C73.1371 120.026 73.2506 119.879 73.3621 119.728C73.4249 119.644 73.4857 119.558 73.5486 119.475C73.656 119.325 73.7655 119.176 73.8729 119.025C73.9337 118.937 73.9966 118.85 74.0574 118.762C74.1668 118.603 74.2763 118.444 74.3857 118.28C74.4425 118.197 74.4993 118.113 74.556 118.028C74.6776 117.843 74.7993 117.655 74.9189 117.466C74.9614 117.401 75.002 117.337 75.0445 117.271C75.2087 117.011 75.3709 116.748 75.531 116.479C75.5371 116.467 75.5452 116.455 75.5513 116.445C75.7033 116.192 75.8533 115.934 76.0034 115.673C76.05 115.589 76.0986 115.506 76.1452 115.42C76.2547 115.227 76.3621 115.034 76.4696 114.837C76.5243 114.735 76.5811 114.632 76.6358 114.53C76.7351 114.347 76.8344 114.162 76.9317 113.975C76.9885 113.866 77.0453 113.756 77.102 113.645C77.1973 113.458 77.2946 113.268 77.3878 113.079C77.4426 112.968 77.4993 112.858 77.5541 112.745C77.6534 112.544 77.7507 112.339 77.848 112.136C77.8966 112.032 77.9473 111.931 77.996 111.827C78.1135 111.577 78.2311 111.322 78.3466 111.067C78.373 111.007 78.4014 110.95 78.4277 110.888C78.5716 110.569 78.7135 110.247 78.8534 109.92C78.8879 109.843 78.9203 109.763 78.9527 109.684C79.0581 109.435 79.1635 109.186 79.2669 108.935C79.3156 108.816 79.3642 108.696 79.4129 108.575C79.5 108.358 79.5872 108.141 79.6744 107.922C79.7271 107.789 79.7777 107.655 79.8305 107.522C79.9136 107.309 79.9946 107.096 80.0757 106.881C80.1284 106.744 80.1791 106.604 80.2298 106.467C80.3109 106.248 80.392 106.025 80.471 105.802C80.5197 105.667 80.5683 105.533 80.617 105.398C80.7041 105.155 80.7872 104.908 80.8724 104.662C80.9129 104.544 80.9535 104.429 80.994 104.311C81.0041 104.283 81.0122 104.258 81.0224 104.23H81.0285L81.3609 103.205C82.0582 101.047 82.7028 98.7658 83.2805 96.409H83.2866L83.5582 95.2486C83.6332 94.9261 83.7082 94.6017 83.7812 94.2752C83.8055 94.1638 83.8299 94.0503 83.8542 93.9389C83.9008 93.7239 83.9495 93.5089 83.9961 93.2919C84.0245 93.1566 84.0528 93.0193 84.0812 92.8839C84.1218 92.6888 84.1623 92.4958 84.2028 92.2987C84.2332 92.1514 84.2616 92.0041 84.292 91.8548C84.3285 91.6697 84.367 91.4826 84.4035 91.2975C84.4339 91.1442 84.4643 90.989 84.4927 90.8337C84.5272 90.6526 84.5637 90.4694 84.5961 90.2863C84.6265 90.1291 84.6549 89.9698 84.6833 89.8126C84.7157 89.6314 84.7502 89.4503 84.7826 89.2672C84.811 89.108 84.8393 88.9467 84.8677 88.7875C84.9002 88.6044 84.9306 88.4232 84.963 88.2401C84.9893 88.0809 85.0157 87.9236 85.0441 87.7644C85.0603 87.6649 85.0785 87.5673 85.0947 87.4678C85.1799 87.414 85.265 87.3603 85.3502 87.3066C85.7758 87.0418 86.1995 86.7771 86.6211 86.5104C86.7326 86.4407 86.8441 86.371 86.9536 86.2994C87.4664 85.9729 87.9772 85.6425 88.484 85.3101C88.6016 85.2345 88.7171 85.1568 88.8327 85.0812C89.2563 84.8025 89.678 84.5219 90.0955 84.2412C90.2111 84.1636 90.3266 84.086 90.4422 84.0083C90.9489 83.666 91.4496 83.3236 91.9483 82.9773C91.9685 82.9633 91.9888 82.9494 92.0091 82.9355C91.9402 83.459 91.8712 83.9805 91.7962 84.498C91.7841 84.5776 91.7739 84.6572 91.7638 84.7368C91.6685 85.3917 91.5692 86.0406 91.4658 86.6875C91.4314 86.8965 91.3969 87.1035 91.3625 87.3105C91.2895 87.7504 91.2165 88.1903 91.1395 88.6263C91.0969 88.8711 91.0523 89.1119 91.0077 89.3548C90.9347 89.7529 90.8597 90.151 90.7847 90.5471C90.7361 90.7959 90.6874 91.0447 90.6388 91.2935C90.5597 91.6856 90.4807 92.0758 90.3976 92.4619C90.3469 92.7008 90.2982 92.9376 90.2455 93.1745C90.1543 93.5905 90.0611 94.0025 89.9658 94.4146C89.9192 94.6136 89.8746 94.8167 89.828 95.0137C89.684 95.6188 89.5381 96.2199 89.3881 96.8151C89.303 97.1455 89.2178 97.4759 89.1306 97.8024ZM116.585 98.517C113.153 104.357 103.381 106.294 89.6719 103.887C89.6881 103.836 89.7043 103.784 89.7226 103.732C89.8766 103.264 90.0307 102.793 90.1786 102.313C90.1786 102.311 90.1786 102.307 90.1807 102.305C90.3307 101.823 90.4766 101.335 90.6205 100.846C90.6469 100.756 90.6732 100.669 90.6996 100.579C90.8374 100.105 90.9733 99.6257 91.105 99.144C91.1293 99.0524 91.1557 98.9608 91.18 98.8693C91.2226 98.71 91.2672 98.5508 91.3097 98.3896C96.1017 99.3609 100.509 99.8446 104.441 99.8446C109.549 99.8446 113.847 99.0265 117.137 97.4122C116.976 97.7924 116.794 98.1627 116.587 98.515L116.585 98.517ZM117.874 94.4106C112.778 97.9656 103.598 98.6085 91.8571 96.2359C91.8915 96.0945 91.9239 95.9512 91.9564 95.8099C91.9888 95.6765 92.0212 95.5452 92.0537 95.4118C92.0881 95.2625 92.1206 95.1112 92.155 94.96C92.2341 94.6196 92.3111 94.2792 92.3861 93.9369C92.4226 93.7697 92.4611 93.6045 92.4976 93.4373C92.526 93.3039 92.5544 93.1665 92.5827 93.0312C92.6537 92.6988 92.7226 92.3644 92.7895 92.03C92.83 91.8289 92.8726 91.6279 92.9132 91.4249C92.9355 91.3094 92.9578 91.192 92.9801 91.0765C93.0449 90.7481 93.1057 90.4157 93.1665 90.0853C93.2111 89.8504 93.2557 89.6175 93.2983 89.3806C93.3145 89.2851 93.3328 89.1896 93.349 89.094C93.4078 88.7636 93.4625 88.4312 93.5193 88.0988C93.5639 87.834 93.6105 87.5713 93.653 87.3046C93.6652 87.2309 93.6774 87.1593 93.6895 87.0856C93.7443 86.7452 93.7949 86.4029 93.8476 86.0605C93.8902 85.7838 93.9328 85.5092 93.9733 85.2325C93.9814 85.1728 93.9916 85.115 93.9997 85.0553C94.0159 84.9379 94.0321 84.8205 94.0483 84.703C94.0848 84.4403 94.1213 84.1775 94.1558 83.9148C94.1882 83.6779 94.2226 83.445 94.2531 83.2082C94.2632 83.1365 94.2713 83.0648 94.2814 82.9932C94.3139 82.7484 94.3422 82.4995 94.3726 82.2547C94.4172 81.8905 94.4639 81.5282 94.5064 81.1619C94.5855 81.1042 94.6645 81.0465 94.7436 80.9888C94.8977 80.8753 95.0517 80.7638 95.2058 80.6504C95.3497 80.5449 95.4936 80.4374 95.6375 80.3319C95.7774 80.2284 95.9173 80.1249 96.0551 80.0214C96.0916 79.9955 96.1281 79.9677 96.1625 79.9418C96.2821 79.8522 96.4017 79.7626 96.5193 79.6731C96.6612 79.5656 96.8051 79.4581 96.947 79.3506C97.097 79.2371 97.245 79.1237 97.393 79.0102C97.4923 78.9346 97.5937 78.857 97.693 78.7813C97.7092 78.7694 97.7254 78.7554 97.7416 78.7435C97.7619 78.7276 97.7842 78.7117 97.8045 78.6937C97.9565 78.5763 98.1065 78.4589 98.2585 78.3414C98.3903 78.2379 98.5221 78.1364 98.6538 78.0329C98.8079 77.9135 98.9599 77.7921 99.1119 77.6726C99.1261 77.6607 99.1423 77.6487 99.1565 77.6368C99.2032 77.599 99.2518 77.5612 99.2984 77.5233C99.3633 77.4716 99.4282 77.4198 99.493 77.3681C99.6471 77.2447 99.8011 77.1213 99.9532 76.9998C100.077 76.9003 100.2 76.8008 100.322 76.7013C100.44 76.6057 100.557 76.5082 100.677 76.4127C100.738 76.3629 100.798 76.3131 100.861 76.2634C100.957 76.1857 101.05 76.1081 101.143 76.0325C101.299 75.9031 101.453 75.7757 101.609 75.6463C101.725 75.5508 101.84 75.4552 101.954 75.3597C102.033 75.294 102.11 75.2283 102.189 75.1626C102.246 75.1149 102.301 75.0691 102.355 75.0213C102.378 75.0034 102.398 74.9855 102.418 74.9676C102.53 74.872 102.641 74.7785 102.753 74.6829C102.909 74.5496 103.063 74.4182 103.217 74.2848C103.326 74.1913 103.436 74.0977 103.543 74.0042C103.586 73.9683 103.626 73.9325 103.669 73.8947C103.699 73.8668 103.732 73.8409 103.762 73.8131C103.847 73.7394 103.93 73.6658 104.015 73.5921C104.117 73.5026 104.22 73.413 104.319 73.3254C104.482 73.1821 104.64 73.0408 104.8 72.8975C104.895 72.8119 104.992 72.7263 105.086 72.6407C105.086 72.6407 105.09 72.6387 105.09 72.6367C105.094 72.6327 105.1 72.6268 105.106 72.6228C105.264 72.4795 105.422 72.3361 105.578 72.1948C105.665 72.1152 105.755 72.0356 105.84 71.956C106.018 71.7927 106.192 71.6315 106.369 71.4683L106.389 71.4504C106.415 71.4245 106.444 71.4006 106.472 71.3747C114.437 80.1747 118.458 88.3018 117.87 94.4126L117.874 94.4106ZM120.852 91.2597C120.645 91.612 120.41 91.9504 120.157 92.2748C119.762 85.8993 115.58 78.0787 108.102 69.8301C108.157 69.7784 108.209 69.7246 108.264 69.6729C108.414 69.5256 108.566 69.3803 108.714 69.233C108.805 69.1434 108.897 69.0538 108.988 68.9623C109.128 68.8249 109.266 68.6856 109.403 68.5463C109.495 68.4547 109.584 68.3651 109.673 68.2736C109.815 68.1283 109.957 67.9849 110.099 67.8396C110.18 67.756 110.261 67.6744 110.34 67.5908C110.522 67.4017 110.705 67.2126 110.885 67.0235C110.92 66.9857 110.956 66.9499 110.993 66.9121C111.203 66.6911 111.41 66.4682 111.617 66.2473C111.694 66.1637 111.771 66.0801 111.848 65.9984C111.943 65.8949 112.041 65.7914 112.136 65.6879C121.11 76.14 124.288 85.4196 120.856 91.2597H120.852Z" fill="url(#paint0_linear_139_41)"/>
<defs>
<linearGradient id="paint0_linear_139_41" x1="19.6444" y1="128" x2="123.467" y2="2.89619e-06" gradientUnits="userSpaceOnUse">
<stop stop-color="#6A00D4"/>
<stop offset="1" stop-color="#001FFF"/>
</linearGradient>
</defs>
</svg>
